%TF.GenerationSoftware,KiCad,Pcbnew,(6.0.5)*%
%TF.CreationDate,2022-07-14T21:33:15+08:00*%
%TF.ProjectId,thermometer,74686572-6d6f-46d6-9574-65722e6b6963,rev?*%
%TF.SameCoordinates,Original*%
%TF.FileFunction,Legend,Top*%
%TF.FilePolarity,Positive*%
%FSLAX46Y46*%
G04 Gerber Fmt 4.6, Leading zero omitted, Abs format (unit mm)*
G04 Created by KiCad (PCBNEW (6.0.5)) date 2022-07-14 21:33:15*
%MOMM*%
%LPD*%
G01*
G04 APERTURE LIST*
%ADD10C,0.150000*%
%ADD11C,0.120000*%
G04 APERTURE END LIST*
D10*
X99014285Y-95542857D02*
X99109523Y-95400000D01*
X99300000Y-95257142D01*
X99776190Y-95257142D01*
X99966666Y-95400000D01*
X100061904Y-95542857D01*
X100157142Y-95828571D01*
X100157142Y-96114285D01*
X100061904Y-96542857D01*
X98919047Y-98257142D01*
X100157142Y-98257142D01*
X101395238Y-95257142D02*
X101585714Y-95257142D01*
X101776190Y-95400000D01*
X101871428Y-95542857D01*
X101966666Y-95828571D01*
X102061904Y-96400000D01*
X102061904Y-97114285D01*
X101966666Y-97685714D01*
X101871428Y-97971428D01*
X101776190Y-98114285D01*
X101585714Y-98257142D01*
X101395238Y-98257142D01*
X101204761Y-98114285D01*
X101109523Y-97971428D01*
X101014285Y-97685714D01*
X100919047Y-97114285D01*
X100919047Y-96400000D01*
X101014285Y-95828571D01*
X101109523Y-95542857D01*
X101204761Y-95400000D01*
X101395238Y-95257142D01*
X103871428Y-95257142D02*
X102919047Y-95257142D01*
X102823809Y-96685714D01*
X102919047Y-96542857D01*
X103109523Y-96400000D01*
X103585714Y-96400000D01*
X103776190Y-96542857D01*
X103871428Y-96685714D01*
X103966666Y-96971428D01*
X103966666Y-97685714D01*
X103871428Y-97971428D01*
X103776190Y-98114285D01*
X103585714Y-98257142D01*
X103109523Y-98257142D01*
X102919047Y-98114285D01*
X102823809Y-97971428D01*
X104728571Y-95542857D02*
X104823809Y-95400000D01*
X105014285Y-95257142D01*
X105490476Y-95257142D01*
X105680952Y-95400000D01*
X105776190Y-95542857D01*
X105871428Y-95828571D01*
X105871428Y-96114285D01*
X105776190Y-96542857D01*
X104633333Y-98257142D01*
X105871428Y-98257142D01*
X106823809Y-98257142D02*
X107204761Y-98257142D01*
X107395238Y-98114285D01*
X107490476Y-97971428D01*
X107680952Y-97542857D01*
X107776190Y-96971428D01*
X107776190Y-95828571D01*
X107680952Y-95542857D01*
X107585714Y-95400000D01*
X107395238Y-95257142D01*
X107014285Y-95257142D01*
X106823809Y-95400000D01*
X106728571Y-95542857D01*
X106633333Y-95828571D01*
X106633333Y-96542857D01*
X106728571Y-96828571D01*
X106823809Y-96971428D01*
X107014285Y-97114285D01*
X107395238Y-97114285D01*
X107585714Y-96971428D01*
X107680952Y-96828571D01*
X107776190Y-96542857D01*
X109014285Y-95257142D02*
X109204761Y-95257142D01*
X109395238Y-95400000D01*
X109490476Y-95542857D01*
X109585714Y-95828571D01*
X109680952Y-96400000D01*
X109680952Y-97114285D01*
X109585714Y-97685714D01*
X109490476Y-97971428D01*
X109395238Y-98114285D01*
X109204761Y-98257142D01*
X109014285Y-98257142D01*
X108823809Y-98114285D01*
X108728571Y-97971428D01*
X108633333Y-97685714D01*
X108538095Y-97114285D01*
X108538095Y-96400000D01*
X108633333Y-95828571D01*
X108728571Y-95542857D01*
X108823809Y-95400000D01*
X109014285Y-95257142D01*
X110442857Y-95542857D02*
X110538095Y-95400000D01*
X110728571Y-95257142D01*
X111204761Y-95257142D01*
X111395238Y-95400000D01*
X111490476Y-95542857D01*
X111585714Y-95828571D01*
X111585714Y-96114285D01*
X111490476Y-96542857D01*
X110347619Y-98257142D01*
X111585714Y-98257142D01*
%TO.C,R11*%
X88752380Y-117042857D02*
X88276190Y-117376190D01*
X88752380Y-117614285D02*
X87752380Y-117614285D01*
X87752380Y-117233333D01*
X87800000Y-117138095D01*
X87847619Y-117090476D01*
X87942857Y-117042857D01*
X88085714Y-117042857D01*
X88180952Y-117090476D01*
X88228571Y-117138095D01*
X88276190Y-117233333D01*
X88276190Y-117614285D01*
X88752380Y-116090476D02*
X88752380Y-116661904D01*
X88752380Y-116376190D02*
X87752380Y-116376190D01*
X87895238Y-116471428D01*
X87990476Y-116566666D01*
X88038095Y-116661904D01*
X88752380Y-115138095D02*
X88752380Y-115709523D01*
X88752380Y-115423809D02*
X87752380Y-115423809D01*
X87895238Y-115519047D01*
X87990476Y-115614285D01*
X88038095Y-115709523D01*
%TO.C,R13*%
X83752380Y-117042857D02*
X83276190Y-117376190D01*
X83752380Y-117614285D02*
X82752380Y-117614285D01*
X82752380Y-117233333D01*
X82800000Y-117138095D01*
X82847619Y-117090476D01*
X82942857Y-117042857D01*
X83085714Y-117042857D01*
X83180952Y-117090476D01*
X83228571Y-117138095D01*
X83276190Y-117233333D01*
X83276190Y-117614285D01*
X83752380Y-116090476D02*
X83752380Y-116661904D01*
X83752380Y-116376190D02*
X82752380Y-116376190D01*
X82895238Y-116471428D01*
X82990476Y-116566666D01*
X83038095Y-116661904D01*
X82752380Y-115757142D02*
X82752380Y-115138095D01*
X83133333Y-115471428D01*
X83133333Y-115328571D01*
X83180952Y-115233333D01*
X83228571Y-115185714D01*
X83323809Y-115138095D01*
X83561904Y-115138095D01*
X83657142Y-115185714D01*
X83704761Y-115233333D01*
X83752380Y-115328571D01*
X83752380Y-115614285D01*
X83704761Y-115709523D01*
X83657142Y-115757142D01*
%TO.C,J1*%
X59827380Y-110233333D02*
X60541666Y-110233333D01*
X60684523Y-110280952D01*
X60779761Y-110376190D01*
X60827380Y-110519047D01*
X60827380Y-110614285D01*
X60827380Y-109233333D02*
X60827380Y-109804761D01*
X60827380Y-109519047D02*
X59827380Y-109519047D01*
X59970238Y-109614285D01*
X60065476Y-109709523D01*
X60113095Y-109804761D01*
%TO.C,R12*%
X86252380Y-117042857D02*
X85776190Y-117376190D01*
X86252380Y-117614285D02*
X85252380Y-117614285D01*
X85252380Y-117233333D01*
X85300000Y-117138095D01*
X85347619Y-117090476D01*
X85442857Y-117042857D01*
X85585714Y-117042857D01*
X85680952Y-117090476D01*
X85728571Y-117138095D01*
X85776190Y-117233333D01*
X85776190Y-117614285D01*
X86252380Y-116090476D02*
X86252380Y-116661904D01*
X86252380Y-116376190D02*
X85252380Y-116376190D01*
X85395238Y-116471428D01*
X85490476Y-116566666D01*
X85538095Y-116661904D01*
X85347619Y-115709523D02*
X85300000Y-115661904D01*
X85252380Y-115566666D01*
X85252380Y-115328571D01*
X85300000Y-115233333D01*
X85347619Y-115185714D01*
X85442857Y-115138095D01*
X85538095Y-115138095D01*
X85680952Y-115185714D01*
X86252380Y-115757142D01*
X86252380Y-115138095D01*
%TO.C,R3*%
X69252380Y-118066666D02*
X68776190Y-118400000D01*
X69252380Y-118638095D02*
X68252380Y-118638095D01*
X68252380Y-118257142D01*
X68300000Y-118161904D01*
X68347619Y-118114285D01*
X68442857Y-118066666D01*
X68585714Y-118066666D01*
X68680952Y-118114285D01*
X68728571Y-118161904D01*
X68776190Y-118257142D01*
X68776190Y-118638095D01*
X68252380Y-117733333D02*
X68252380Y-117114285D01*
X68633333Y-117447619D01*
X68633333Y-117304761D01*
X68680952Y-117209523D01*
X68728571Y-117161904D01*
X68823809Y-117114285D01*
X69061904Y-117114285D01*
X69157142Y-117161904D01*
X69204761Y-117209523D01*
X69252380Y-117304761D01*
X69252380Y-117590476D01*
X69204761Y-117685714D01*
X69157142Y-117733333D01*
%TO.C,R14*%
X81252380Y-117042857D02*
X80776190Y-117376190D01*
X81252380Y-117614285D02*
X80252380Y-117614285D01*
X80252380Y-117233333D01*
X80300000Y-117138095D01*
X80347619Y-117090476D01*
X80442857Y-117042857D01*
X80585714Y-117042857D01*
X80680952Y-117090476D01*
X80728571Y-117138095D01*
X80776190Y-117233333D01*
X80776190Y-117614285D01*
X81252380Y-116090476D02*
X81252380Y-116661904D01*
X81252380Y-116376190D02*
X80252380Y-116376190D01*
X80395238Y-116471428D01*
X80490476Y-116566666D01*
X80538095Y-116661904D01*
X80585714Y-115233333D02*
X81252380Y-115233333D01*
X80204761Y-115471428D02*
X80919047Y-115709523D01*
X80919047Y-115090476D01*
%TO.C,R5*%
X66252380Y-107566666D02*
X65776190Y-107900000D01*
X66252380Y-108138095D02*
X65252380Y-108138095D01*
X65252380Y-107757142D01*
X65300000Y-107661904D01*
X65347619Y-107614285D01*
X65442857Y-107566666D01*
X65585714Y-107566666D01*
X65680952Y-107614285D01*
X65728571Y-107661904D01*
X65776190Y-107757142D01*
X65776190Y-108138095D01*
X65252380Y-106661904D02*
X65252380Y-107138095D01*
X65728571Y-107185714D01*
X65680952Y-107138095D01*
X65633333Y-107042857D01*
X65633333Y-106804761D01*
X65680952Y-106709523D01*
X65728571Y-106661904D01*
X65823809Y-106614285D01*
X66061904Y-106614285D01*
X66157142Y-106661904D01*
X66204761Y-106709523D01*
X66252380Y-106804761D01*
X66252380Y-107042857D01*
X66204761Y-107138095D01*
X66157142Y-107185714D01*
%TO.C,R1*%
X63252380Y-118066666D02*
X62776190Y-118400000D01*
X63252380Y-118638095D02*
X62252380Y-118638095D01*
X62252380Y-118257142D01*
X62300000Y-118161904D01*
X62347619Y-118114285D01*
X62442857Y-118066666D01*
X62585714Y-118066666D01*
X62680952Y-118114285D01*
X62728571Y-118161904D01*
X62776190Y-118257142D01*
X62776190Y-118638095D01*
X63252380Y-117114285D02*
X63252380Y-117685714D01*
X63252380Y-117400000D02*
X62252380Y-117400000D01*
X62395238Y-117495238D01*
X62490476Y-117590476D01*
X62538095Y-117685714D01*
%TO.C,C1*%
X59657142Y-99566666D02*
X59704761Y-99614285D01*
X59752380Y-99757142D01*
X59752380Y-99852380D01*
X59704761Y-99995238D01*
X59609523Y-100090476D01*
X59514285Y-100138095D01*
X59323809Y-100185714D01*
X59180952Y-100185714D01*
X58990476Y-100138095D01*
X58895238Y-100090476D01*
X58800000Y-99995238D01*
X58752380Y-99852380D01*
X58752380Y-99757142D01*
X58800000Y-99614285D01*
X58847619Y-99566666D01*
X59752380Y-98614285D02*
X59752380Y-99185714D01*
X59752380Y-98900000D02*
X58752380Y-98900000D01*
X58895238Y-98995238D01*
X58990476Y-99090476D01*
X59038095Y-99185714D01*
%TO.C,R4*%
X68252380Y-107566666D02*
X67776190Y-107900000D01*
X68252380Y-108138095D02*
X67252380Y-108138095D01*
X67252380Y-107757142D01*
X67300000Y-107661904D01*
X67347619Y-107614285D01*
X67442857Y-107566666D01*
X67585714Y-107566666D01*
X67680952Y-107614285D01*
X67728571Y-107661904D01*
X67776190Y-107757142D01*
X67776190Y-108138095D01*
X67585714Y-106709523D02*
X68252380Y-106709523D01*
X67204761Y-106947619D02*
X67919047Y-107185714D01*
X67919047Y-106566666D01*
%TO.C,U4*%
X64538095Y-92352380D02*
X64538095Y-93161904D01*
X64585714Y-93257142D01*
X64633333Y-93304761D01*
X64728571Y-93352380D01*
X64919047Y-93352380D01*
X65014285Y-93304761D01*
X65061904Y-93257142D01*
X65109523Y-93161904D01*
X65109523Y-92352380D01*
X66014285Y-92685714D02*
X66014285Y-93352380D01*
X65776190Y-92304761D02*
X65538095Y-93019047D01*
X66157142Y-93019047D01*
%TO.C,U1*%
X53538095Y-118352380D02*
X53538095Y-119161904D01*
X53585714Y-119257142D01*
X53633333Y-119304761D01*
X53728571Y-119352380D01*
X53919047Y-119352380D01*
X54014285Y-119304761D01*
X54061904Y-119257142D01*
X54109523Y-119161904D01*
X54109523Y-118352380D01*
X55109523Y-119352380D02*
X54538095Y-119352380D01*
X54823809Y-119352380D02*
X54823809Y-118352380D01*
X54728571Y-118495238D01*
X54633333Y-118590476D01*
X54538095Y-118638095D01*
%TO.C,R6*%
X63252380Y-107566666D02*
X62776190Y-107900000D01*
X63252380Y-108138095D02*
X62252380Y-108138095D01*
X62252380Y-107757142D01*
X62300000Y-107661904D01*
X62347619Y-107614285D01*
X62442857Y-107566666D01*
X62585714Y-107566666D01*
X62680952Y-107614285D01*
X62728571Y-107661904D01*
X62776190Y-107757142D01*
X62776190Y-108138095D01*
X62252380Y-106709523D02*
X62252380Y-106900000D01*
X62300000Y-106995238D01*
X62347619Y-107042857D01*
X62490476Y-107138095D01*
X62680952Y-107185714D01*
X63061904Y-107185714D01*
X63157142Y-107138095D01*
X63204761Y-107090476D01*
X63252380Y-106995238D01*
X63252380Y-106804761D01*
X63204761Y-106709523D01*
X63157142Y-106661904D01*
X63061904Y-106614285D01*
X62823809Y-106614285D01*
X62728571Y-106661904D01*
X62680952Y-106709523D01*
X62633333Y-106804761D01*
X62633333Y-106995238D01*
X62680952Y-107090476D01*
X62728571Y-107138095D01*
X62823809Y-107185714D01*
%TO.C,R7*%
X73752380Y-116066666D02*
X73276190Y-116400000D01*
X73752380Y-116638095D02*
X72752380Y-116638095D01*
X72752380Y-116257142D01*
X72800000Y-116161904D01*
X72847619Y-116114285D01*
X72942857Y-116066666D01*
X73085714Y-116066666D01*
X73180952Y-116114285D01*
X73228571Y-116161904D01*
X73276190Y-116257142D01*
X73276190Y-116638095D01*
X72752380Y-115733333D02*
X72752380Y-115066666D01*
X73752380Y-115495238D01*
%TO.C,U3*%
X69752380Y-102661904D02*
X70561904Y-102661904D01*
X70657142Y-102614285D01*
X70704761Y-102566666D01*
X70752380Y-102471428D01*
X70752380Y-102280952D01*
X70704761Y-102185714D01*
X70657142Y-102138095D01*
X70561904Y-102090476D01*
X69752380Y-102090476D01*
X69752380Y-101709523D02*
X69752380Y-101090476D01*
X70133333Y-101423809D01*
X70133333Y-101280952D01*
X70180952Y-101185714D01*
X70228571Y-101138095D01*
X70323809Y-101090476D01*
X70561904Y-101090476D01*
X70657142Y-101138095D01*
X70704761Y-101185714D01*
X70752380Y-101280952D01*
X70752380Y-101566666D01*
X70704761Y-101661904D01*
X70657142Y-101709523D01*
%TO.C,U2*%
X70852380Y-106661904D02*
X71661904Y-106661904D01*
X71757142Y-106614285D01*
X71804761Y-106566666D01*
X71852380Y-106471428D01*
X71852380Y-106280952D01*
X71804761Y-106185714D01*
X71757142Y-106138095D01*
X71661904Y-106090476D01*
X70852380Y-106090476D01*
X70947619Y-105661904D02*
X70900000Y-105614285D01*
X70852380Y-105519047D01*
X70852380Y-105280952D01*
X70900000Y-105185714D01*
X70947619Y-105138095D01*
X71042857Y-105090476D01*
X71138095Y-105090476D01*
X71280952Y-105138095D01*
X71852380Y-105709523D01*
X71852380Y-105090476D01*
%TO.C,R10*%
X91252380Y-117042857D02*
X90776190Y-117376190D01*
X91252380Y-117614285D02*
X90252380Y-117614285D01*
X90252380Y-117233333D01*
X90300000Y-117138095D01*
X90347619Y-117090476D01*
X90442857Y-117042857D01*
X90585714Y-117042857D01*
X90680952Y-117090476D01*
X90728571Y-117138095D01*
X90776190Y-117233333D01*
X90776190Y-117614285D01*
X91252380Y-116090476D02*
X91252380Y-116661904D01*
X91252380Y-116376190D02*
X90252380Y-116376190D01*
X90395238Y-116471428D01*
X90490476Y-116566666D01*
X90538095Y-116661904D01*
X90252380Y-115471428D02*
X90252380Y-115376190D01*
X90300000Y-115280952D01*
X90347619Y-115233333D01*
X90442857Y-115185714D01*
X90633333Y-115138095D01*
X90871428Y-115138095D01*
X91061904Y-115185714D01*
X91157142Y-115233333D01*
X91204761Y-115280952D01*
X91252380Y-115376190D01*
X91252380Y-115471428D01*
X91204761Y-115566666D01*
X91157142Y-115614285D01*
X91061904Y-115661904D01*
X90871428Y-115709523D01*
X90633333Y-115709523D01*
X90442857Y-115661904D01*
X90347619Y-115614285D01*
X90300000Y-115566666D01*
X90252380Y-115471428D01*
%TO.C,R8*%
X76252380Y-116066666D02*
X75776190Y-116400000D01*
X76252380Y-116638095D02*
X75252380Y-116638095D01*
X75252380Y-116257142D01*
X75300000Y-116161904D01*
X75347619Y-116114285D01*
X75442857Y-116066666D01*
X75585714Y-116066666D01*
X75680952Y-116114285D01*
X75728571Y-116161904D01*
X75776190Y-116257142D01*
X75776190Y-116638095D01*
X75680952Y-115495238D02*
X75633333Y-115590476D01*
X75585714Y-115638095D01*
X75490476Y-115685714D01*
X75442857Y-115685714D01*
X75347619Y-115638095D01*
X75300000Y-115590476D01*
X75252380Y-115495238D01*
X75252380Y-115304761D01*
X75300000Y-115209523D01*
X75347619Y-115161904D01*
X75442857Y-115114285D01*
X75490476Y-115114285D01*
X75585714Y-115161904D01*
X75633333Y-115209523D01*
X75680952Y-115304761D01*
X75680952Y-115495238D01*
X75728571Y-115590476D01*
X75776190Y-115638095D01*
X75871428Y-115685714D01*
X76061904Y-115685714D01*
X76157142Y-115638095D01*
X76204761Y-115590476D01*
X76252380Y-115495238D01*
X76252380Y-115304761D01*
X76204761Y-115209523D01*
X76157142Y-115161904D01*
X76061904Y-115114285D01*
X75871428Y-115114285D01*
X75776190Y-115161904D01*
X75728571Y-115209523D01*
X75680952Y-115304761D01*
%TO.C,R9*%
X78752380Y-116066666D02*
X78276190Y-116400000D01*
X78752380Y-116638095D02*
X77752380Y-116638095D01*
X77752380Y-116257142D01*
X77800000Y-116161904D01*
X77847619Y-116114285D01*
X77942857Y-116066666D01*
X78085714Y-116066666D01*
X78180952Y-116114285D01*
X78228571Y-116161904D01*
X78276190Y-116257142D01*
X78276190Y-116638095D01*
X78752380Y-115590476D02*
X78752380Y-115400000D01*
X78704761Y-115304761D01*
X78657142Y-115257142D01*
X78514285Y-115161904D01*
X78323809Y-115114285D01*
X77942857Y-115114285D01*
X77847619Y-115161904D01*
X77800000Y-115209523D01*
X77752380Y-115304761D01*
X77752380Y-115495238D01*
X77800000Y-115590476D01*
X77847619Y-115638095D01*
X77942857Y-115685714D01*
X78180952Y-115685714D01*
X78276190Y-115638095D01*
X78323809Y-115590476D01*
X78371428Y-115495238D01*
X78371428Y-115304761D01*
X78323809Y-115209523D01*
X78276190Y-115161904D01*
X78180952Y-115114285D01*
%TO.C,R2*%
X66252380Y-118066666D02*
X65776190Y-118400000D01*
X66252380Y-118638095D02*
X65252380Y-118638095D01*
X65252380Y-118257142D01*
X65300000Y-118161904D01*
X65347619Y-118114285D01*
X65442857Y-118066666D01*
X65585714Y-118066666D01*
X65680952Y-118114285D01*
X65728571Y-118161904D01*
X65776190Y-118257142D01*
X65776190Y-118638095D01*
X65347619Y-117685714D02*
X65300000Y-117638095D01*
X65252380Y-117542857D01*
X65252380Y-117304761D01*
X65300000Y-117209523D01*
X65347619Y-117161904D01*
X65442857Y-117114285D01*
X65538095Y-117114285D01*
X65680952Y-117161904D01*
X66252380Y-117733333D01*
X66252380Y-117114285D01*
D11*
%TO.C,R11*%
X89035000Y-113127064D02*
X89035000Y-112672936D01*
X87565000Y-113127064D02*
X87565000Y-112672936D01*
%TO.C,R13*%
X84035000Y-113127064D02*
X84035000Y-112672936D01*
X82565000Y-113127064D02*
X82565000Y-112672936D01*
%TO.C,J1*%
X57025000Y-113700000D02*
X57025000Y-112950000D01*
X59275000Y-106100000D02*
X58525000Y-106100000D01*
X58525000Y-106100000D02*
X58525000Y-107900000D01*
X59575000Y-107050000D02*
X59575000Y-105800000D01*
X59275000Y-113700000D02*
X59275000Y-111900000D01*
X53315000Y-113710000D02*
X59285000Y-113710000D01*
X58525000Y-109400000D02*
X58525000Y-110400000D01*
X59575000Y-105800000D02*
X58325000Y-105800000D01*
X57025000Y-106850000D02*
X54075000Y-106850000D01*
X58525000Y-110400000D02*
X59275000Y-110400000D01*
X54075000Y-112950000D02*
X54075000Y-109900000D01*
X57025000Y-112950000D02*
X54075000Y-112950000D01*
X53315000Y-106090000D02*
X53315000Y-113710000D01*
X58525000Y-113700000D02*
X59275000Y-113700000D01*
X59275000Y-111900000D02*
X58525000Y-111900000D01*
X59275000Y-107900000D02*
X59275000Y-106100000D01*
X59275000Y-110400000D02*
X59275000Y-109400000D01*
X54075000Y-106850000D02*
X54075000Y-109900000D01*
X57025000Y-106100000D02*
X57025000Y-106850000D01*
X59285000Y-113710000D02*
X59285000Y-106090000D01*
X58525000Y-111900000D02*
X58525000Y-113700000D01*
X59275000Y-109400000D02*
X58525000Y-109400000D01*
X59285000Y-106090000D02*
X53315000Y-106090000D01*
X58525000Y-107900000D02*
X59275000Y-107900000D01*
%TO.C,R12*%
X85065000Y-113127064D02*
X85065000Y-112672936D01*
X86535000Y-113127064D02*
X86535000Y-112672936D01*
%TO.C,R3*%
X69535000Y-115127064D02*
X69535000Y-114672936D01*
X68065000Y-115127064D02*
X68065000Y-114672936D01*
%TO.C,R14*%
X81535000Y-113127064D02*
X81535000Y-112672936D01*
X80065000Y-113127064D02*
X80065000Y-112672936D01*
%TO.C,R5*%
X65065000Y-110627064D02*
X65065000Y-110172936D01*
X66535000Y-110627064D02*
X66535000Y-110172936D01*
%TO.C,R1*%
X62065000Y-114672936D02*
X62065000Y-115127064D01*
X63535000Y-114672936D02*
X63535000Y-115127064D01*
%TO.C,C1*%
X62035000Y-99138748D02*
X62035000Y-99661252D01*
X60565000Y-99138748D02*
X60565000Y-99661252D01*
%TO.C,R4*%
X69535000Y-110627064D02*
X69535000Y-110172936D01*
X68065000Y-110627064D02*
X68065000Y-110172936D01*
%TO.C,U4*%
X77450000Y-91930000D02*
X79450000Y-91930000D01*
X64480000Y-91455000D02*
X105120000Y-91455000D01*
X105120000Y-91455000D02*
X105120000Y-74945000D01*
X105120000Y-74945000D02*
X64480000Y-74945000D01*
X64480000Y-74945000D02*
X64480000Y-91455000D01*
%TO.C,U1*%
X113780000Y-150440000D02*
X52820000Y-150440000D01*
X52820000Y-150440000D02*
X52820000Y-119960000D01*
X52820000Y-119960000D02*
X113780000Y-119960000D01*
X113780000Y-119960000D02*
X113780000Y-150440000D01*
X52820000Y-140280000D02*
X60440000Y-140280000D01*
X60440000Y-140280000D02*
X60440000Y-130120000D01*
X60440000Y-130120000D02*
X52820000Y-130120000D01*
X52820000Y-130120000D02*
X52820000Y-140280000D01*
%TO.C,R6*%
X62065000Y-110627064D02*
X62065000Y-110172936D01*
X63535000Y-110627064D02*
X63535000Y-110172936D01*
%TO.C,R7*%
X74035000Y-113127064D02*
X74035000Y-112672936D01*
X72565000Y-113127064D02*
X72565000Y-112672936D01*
%TO.C,U3*%
X64240000Y-99400000D02*
X64240000Y-97450000D01*
X69360000Y-99400000D02*
X69360000Y-101350000D01*
X64240000Y-99400000D02*
X64240000Y-102850000D01*
X69360000Y-99400000D02*
X69360000Y-97450000D01*
%TO.C,U2*%
X75360000Y-105900000D02*
X75360000Y-106550000D01*
X72240000Y-105900000D02*
X72240000Y-107575000D01*
X75360000Y-105900000D02*
X75360000Y-105250000D01*
X72240000Y-105900000D02*
X72240000Y-105250000D01*
%TO.C,R10*%
X91535000Y-113127064D02*
X91535000Y-112672936D01*
X90065000Y-113127064D02*
X90065000Y-112672936D01*
%TO.C,R8*%
X75065000Y-113127064D02*
X75065000Y-112672936D01*
X76535000Y-113127064D02*
X76535000Y-112672936D01*
%TO.C,R9*%
X79035000Y-113127064D02*
X79035000Y-112672936D01*
X77565000Y-113127064D02*
X77565000Y-112672936D01*
%TO.C,R2*%
X65065000Y-114672936D02*
X65065000Y-115127064D01*
X66535000Y-114672936D02*
X66535000Y-115127064D01*
%TD*%
M02*
