%TF.GenerationSoftware,KiCad,Pcbnew,(6.0.5)*%
%TF.CreationDate,2022-07-14T21:33:15+08:00*%
%TF.ProjectId,thermometer,74686572-6d6f-46d6-9574-65722e6b6963,rev?*%
%TF.SameCoordinates,Original*%
%TF.FileFunction,Soldermask,Top*%
%TF.FilePolarity,Negative*%
%FSLAX46Y46*%
G04 Gerber Fmt 4.6, Leading zero omitted, Abs format (unit mm)*
G04 Created by KiCad (PCBNEW (6.0.5)) date 2022-07-14 21:33:15*
%MOMM*%
%LPD*%
G01*
G04 APERTURE LIST*
G04 Aperture macros list*
%AMRoundRect*
0 Rectangle with rounded corners*
0 $1 Rounding radius*
0 $2 $3 $4 $5 $6 $7 $8 $9 X,Y pos of 4 corners*
0 Add a 4 corners polygon primitive as box body*
4,1,4,$2,$3,$4,$5,$6,$7,$8,$9,$2,$3,0*
0 Add four circle primitives for the rounded corners*
1,1,$1+$1,$2,$3*
1,1,$1+$1,$4,$5*
1,1,$1+$1,$6,$7*
1,1,$1+$1,$8,$9*
0 Add four rect primitives between the rounded corners*
20,1,$1+$1,$2,$3,$4,$5,0*
20,1,$1+$1,$4,$5,$6,$7,0*
20,1,$1+$1,$6,$7,$8,$9,0*
20,1,$1+$1,$8,$9,$2,$3,0*%
G04 Aperture macros list end*
%ADD10RoundRect,0.350000X0.450000X-0.262500X0.450000X0.262500X-0.450000X0.262500X-0.450000X-0.262500X0*%
%ADD11RoundRect,0.350000X-0.750000X0.600000X-0.750000X-0.600000X0.750000X-0.600000X0.750000X0.600000X0*%
%ADD12O,2.200000X1.900000*%
%ADD13RoundRect,0.350000X-0.450000X0.262500X-0.450000X-0.262500X0.450000X-0.262500X0.450000X0.262500X0*%
%ADD14RoundRect,0.350000X-0.475000X0.250000X-0.475000X-0.250000X0.475000X-0.250000X0.475000X0.250000X0*%
%ADD15RoundRect,0.100000X0.800000X-1.250000X0.800000X1.250000X-0.800000X1.250000X-0.800000X-1.250000X0*%
%ADD16O,1.800000X2.700000*%
%ADD17RoundRect,0.250000X0.150000X-0.825000X0.150000X0.825000X-0.150000X0.825000X-0.150000X-0.825000X0*%
%ADD18RoundRect,0.250000X0.150000X-0.587500X0.150000X0.587500X-0.150000X0.587500X-0.150000X-0.587500X0*%
G04 APERTURE END LIST*
D10*
%TO.C,R11*%
X88300000Y-111987500D03*
X88300000Y-113812500D03*
%TD*%
%TO.C,R13*%
X83300000Y-111987500D03*
X83300000Y-113812500D03*
%TD*%
D11*
%TO.C,J1*%
X56825000Y-108650000D03*
D12*
X56825000Y-111150000D03*
%TD*%
D10*
%TO.C,R12*%
X85800000Y-113812500D03*
X85800000Y-111987500D03*
%TD*%
%TO.C,R3*%
X68800000Y-113987500D03*
X68800000Y-115812500D03*
%TD*%
%TO.C,R14*%
X80800000Y-111987500D03*
X80800000Y-113812500D03*
%TD*%
%TO.C,R5*%
X65800000Y-109487500D03*
X65800000Y-111312500D03*
%TD*%
D13*
%TO.C,R1*%
X62800000Y-113987500D03*
X62800000Y-115812500D03*
%TD*%
D14*
%TO.C,C1*%
X61300000Y-98450000D03*
X61300000Y-100350000D03*
%TD*%
D10*
%TO.C,R4*%
X68800000Y-111312500D03*
X68800000Y-109487500D03*
%TD*%
D15*
%TO.C,U4*%
X78450000Y-89550000D03*
D16*
X80990000Y-89550000D03*
X83530000Y-89550000D03*
X86070000Y-89550000D03*
X88610000Y-89550000D03*
X91150000Y-89550000D03*
X91150000Y-76850000D03*
X88610000Y-76850000D03*
X86070000Y-76850000D03*
X83530000Y-76850000D03*
X80990000Y-76850000D03*
X78450000Y-76850000D03*
%TD*%
%TO.C,U1*%
X62980000Y-122500000D03*
X65520000Y-122500000D03*
X68060000Y-122500000D03*
X70600000Y-122500000D03*
X73140000Y-122500000D03*
X75680000Y-122500000D03*
X78220000Y-122500000D03*
X80760000Y-122500000D03*
X83300000Y-122500000D03*
X85840000Y-122500000D03*
X88380000Y-122500000D03*
X90920000Y-122500000D03*
X93460000Y-122500000D03*
X96000000Y-122500000D03*
X98540000Y-122500000D03*
X101080000Y-122500000D03*
X103620000Y-122500000D03*
X106160000Y-122500000D03*
X108700000Y-122500000D03*
X111240000Y-122500000D03*
X111240000Y-147900000D03*
X108700000Y-147900000D03*
X106160000Y-147900000D03*
X103620000Y-147900000D03*
X101080000Y-147900000D03*
X98540000Y-147900000D03*
X96000000Y-147900000D03*
X93460000Y-147900000D03*
X90920000Y-147900000D03*
X88380000Y-147900000D03*
X85840000Y-147900000D03*
X83300000Y-147900000D03*
X80760000Y-147900000D03*
X78220000Y-147900000D03*
X75680000Y-147900000D03*
X73140000Y-147900000D03*
X70600000Y-147900000D03*
X68060000Y-147900000D03*
X65520000Y-147900000D03*
X62980000Y-147900000D03*
%TD*%
D10*
%TO.C,R6*%
X62800000Y-111312500D03*
X62800000Y-109487500D03*
%TD*%
%TO.C,R7*%
X73300000Y-113812500D03*
X73300000Y-111987500D03*
%TD*%
D17*
%TO.C,U3*%
X64895000Y-96925000D03*
X66165000Y-96925000D03*
X67435000Y-96925000D03*
X68705000Y-96925000D03*
X68705000Y-101875000D03*
X67435000Y-101875000D03*
X66165000Y-101875000D03*
X64895000Y-101875000D03*
%TD*%
D18*
%TO.C,U2*%
X73800000Y-104962500D03*
X74750000Y-106837500D03*
X72850000Y-106837500D03*
%TD*%
D10*
%TO.C,R10*%
X90800000Y-111987500D03*
X90800000Y-113812500D03*
%TD*%
%TO.C,R8*%
X75800000Y-113812500D03*
X75800000Y-111987500D03*
%TD*%
%TO.C,R9*%
X78300000Y-113812500D03*
X78300000Y-111987500D03*
%TD*%
D13*
%TO.C,R2*%
X65800000Y-113987500D03*
X65800000Y-115812500D03*
%TD*%
M02*
