M48
; DRILL file {KiCad (6.0.5)} date Thu Jul 14 21:33:40 2022
; FORMAT={-:-/ absolute / metric / decimal}
; #@! TF.CreationDate,2022-07-14T21:33:40+08:00
; #@! TF.GenerationSoftware,Kicad,Pcbnew,(6.0.5)
; #@! TF.FileFunction,Plated,1,2,PTH
FMAT,2
METRIC
; #@! TA.AperFunction,Plated,PTH,ViaDrill
T1C0.400
; #@! TA.AperFunction,Plated,PTH,ComponentDrill
T2C0.900
; #@! TA.AperFunction,Plated,PTH,ComponentDrill
T3C1.000
%
G90
G05
T1
X61.3Y-101.9
X61.3Y-106.4
X68.8Y-103.9
X68.8Y-107.9
X73.8Y-102.9
X89.3Y-83.4
X90.8Y-93.4
X105.8Y-91.9
T2
X62.98Y-122.5
X62.98Y-147.9
X65.52Y-122.5
X65.52Y-147.9
X68.06Y-122.5
X68.06Y-147.9
X70.6Y-122.5
X70.6Y-147.9
X73.14Y-122.5
X73.14Y-147.9
X75.68Y-122.5
X75.68Y-147.9
X78.22Y-122.5
X78.22Y-147.9
X78.45Y-76.85
X78.45Y-89.55
X80.76Y-122.5
X80.76Y-147.9
X80.99Y-76.85
X80.99Y-89.55
X83.3Y-122.5
X83.3Y-147.9
X83.53Y-76.85
X83.53Y-89.55
X85.84Y-122.5
X85.84Y-147.9
X86.07Y-76.85
X86.07Y-89.55
X88.38Y-122.5
X88.38Y-147.9
X88.61Y-76.85
X88.61Y-89.55
X90.92Y-122.5
X90.92Y-147.9
X91.15Y-76.85
X91.15Y-89.55
X93.46Y-122.5
X93.46Y-147.9
X96.0Y-122.5
X96.0Y-147.9
X98.54Y-122.5
X98.54Y-147.9
X101.08Y-122.5
X101.08Y-147.9
X103.62Y-122.5
X103.62Y-147.9
X106.16Y-122.5
X106.16Y-147.9
X108.7Y-122.5
X108.7Y-147.9
X111.24Y-122.5
X111.24Y-147.9
T3
X56.825Y-108.65
X56.825Y-111.15
T0
M30
