%TF.GenerationSoftware,KiCad,Pcbnew,(6.0.5)*%
%TF.CreationDate,2022-07-14T21:33:15+08:00*%
%TF.ProjectId,thermometer,74686572-6d6f-46d6-9574-65722e6b6963,rev?*%
%TF.SameCoordinates,Original*%
%TF.FileFunction,Copper,L2,Bot*%
%TF.FilePolarity,Positive*%
%FSLAX46Y46*%
G04 Gerber Fmt 4.6, Leading zero omitted, Abs format (unit mm)*
G04 Created by KiCad (PCBNEW (6.0.5)) date 2022-07-14 21:33:15*
%MOMM*%
%LPD*%
G01*
G04 APERTURE LIST*
G04 Aperture macros list*
%AMRoundRect*
0 Rectangle with rounded corners*
0 $1 Rounding radius*
0 $2 $3 $4 $5 $6 $7 $8 $9 X,Y pos of 4 corners*
0 Add a 4 corners polygon primitive as box body*
4,1,4,$2,$3,$4,$5,$6,$7,$8,$9,$2,$3,0*
0 Add four circle primitives for the rounded corners*
1,1,$1+$1,$2,$3*
1,1,$1+$1,$4,$5*
1,1,$1+$1,$6,$7*
1,1,$1+$1,$8,$9*
0 Add four rect primitives between the rounded corners*
20,1,$1+$1,$2,$3,$4,$5,0*
20,1,$1+$1,$4,$5,$6,$7,0*
20,1,$1+$1,$6,$7,$8,$9,0*
20,1,$1+$1,$8,$9,$2,$3,0*%
G04 Aperture macros list end*
%TA.AperFunction,ComponentPad*%
%ADD10RoundRect,0.250000X-0.750000X0.600000X-0.750000X-0.600000X0.750000X-0.600000X0.750000X0.600000X0*%
%TD*%
%TA.AperFunction,ComponentPad*%
%ADD11O,2.000000X1.700000*%
%TD*%
%TA.AperFunction,ComponentPad*%
%ADD12R,1.600000X2.500000*%
%TD*%
%TA.AperFunction,ComponentPad*%
%ADD13O,1.600000X2.500000*%
%TD*%
%TA.AperFunction,ViaPad*%
%ADD14C,0.800000*%
%TD*%
%TA.AperFunction,Conductor*%
%ADD15C,0.300000*%
%TD*%
%TA.AperFunction,Conductor*%
%ADD16C,0.500000*%
%TD*%
G04 APERTURE END LIST*
D10*
%TO.P,J1,1,Pin_1*%
%TO.N,Net-(J1-Pad1)*%
X56825000Y-108650000D03*
D11*
%TO.P,J1,2,Pin_2*%
%TO.N,GND*%
X56825000Y-111150000D03*
%TD*%
D12*
%TO.P,U4,1,e*%
%TO.N,Net-(R11-Pad2)*%
X78450000Y-89550000D03*
D13*
%TO.P,U4,2,d*%
%TO.N,Net-(R10-Pad2)*%
X80990000Y-89550000D03*
%TO.P,U4,3,DPX*%
%TO.N,Net-(R14-Pad2)*%
X83530000Y-89550000D03*
%TO.P,U4,4,c*%
%TO.N,Net-(R9-Pad2)*%
X86070000Y-89550000D03*
%TO.P,U4,5,g*%
%TO.N,Net-(R13-Pad2)*%
X88610000Y-89550000D03*
%TO.P,U4,6,CC4*%
%TO.N,/LED_CC4*%
X91150000Y-89550000D03*
%TO.P,U4,7,b*%
%TO.N,Net-(R8-Pad2)*%
X91150000Y-76850000D03*
%TO.P,U4,8,CC3*%
%TO.N,/LED_CC3*%
X88610000Y-76850000D03*
%TO.P,U4,9,CC2*%
%TO.N,/LED_CC2*%
X86070000Y-76850000D03*
%TO.P,U4,10,f*%
%TO.N,Net-(R12-Pad2)*%
X83530000Y-76850000D03*
%TO.P,U4,11,a*%
%TO.N,Net-(R7-Pad2)*%
X80990000Y-76850000D03*
%TO.P,U4,12,CC1*%
%TO.N,/LED_CC1*%
X78450000Y-76850000D03*
%TD*%
%TO.P,U1,40,5V*%
%TO.N,+5VA*%
X62980000Y-122500000D03*
%TO.P,U1,39,3V3*%
%TO.N,unconnected-(U1-Pad39)*%
X65520000Y-122500000D03*
%TO.P,U1,38,PC15*%
%TO.N,unconnected-(U1-Pad38)*%
X68060000Y-122500000D03*
%TO.P,U1,37,PC14*%
%TO.N,unconnected-(U1-Pad37)*%
X70600000Y-122500000D03*
%TO.P,U1,36,PC13*%
%TO.N,unconnected-(U1-Pad36)*%
X73140000Y-122500000D03*
%TO.P,U1,35,PB9*%
%TO.N,unconnected-(U1-Pad35)*%
X75680000Y-122500000D03*
%TO.P,U1,34,PB8*%
%TO.N,unconnected-(U1-Pad34)*%
X78220000Y-122500000D03*
%TO.P,U1,33,PB7*%
%TO.N,/LED_DP*%
X80760000Y-122500000D03*
%TO.P,U1,32,PB6*%
%TO.N,/LED_G*%
X83300000Y-122500000D03*
%TO.P,U1,31,PB5*%
%TO.N,/LED_F*%
X85840000Y-122500000D03*
%TO.P,U1,30,PB4*%
%TO.N,/LED_E*%
X88380000Y-122500000D03*
%TO.P,U1,29,PB3*%
%TO.N,/LED_D*%
X90920000Y-122500000D03*
%TO.P,U1,28,PD3*%
%TO.N,/LED_CC1*%
X93460000Y-122500000D03*
%TO.P,U1,27,PD2*%
%TO.N,/LED_CC2*%
X96000000Y-122500000D03*
%TO.P,U1,26,PD1*%
%TO.N,/LED_CC3*%
X98540000Y-122500000D03*
%TO.P,U1,25,PD0*%
%TO.N,/LED_CC4*%
X101080000Y-122500000D03*
%TO.P,U1,24,PA15*%
%TO.N,unconnected-(U1-Pad24)*%
X103620000Y-122500000D03*
%TO.P,U1,23,PA12*%
%TO.N,unconnected-(U1-Pad23)*%
X106160000Y-122500000D03*
%TO.P,U1,22,PA11*%
%TO.N,unconnected-(U1-Pad22)*%
X108700000Y-122500000D03*
%TO.P,U1,21,PC7*%
%TO.N,unconnected-(U1-Pad21)*%
X111240000Y-122500000D03*
%TO.P,U1,20,GND*%
%TO.N,GND*%
X111240000Y-147900000D03*
%TO.P,U1,19,PC6*%
%TO.N,unconnected-(U1-Pad19)*%
X108700000Y-147900000D03*
%TO.P,U1,18,PA8*%
%TO.N,unconnected-(U1-Pad18)*%
X106160000Y-147900000D03*
%TO.P,U1,17,PB15*%
%TO.N,unconnected-(U1-Pad17)*%
X103620000Y-147900000D03*
%TO.P,U1,16,PB14*%
%TO.N,unconnected-(U1-Pad16)*%
X101080000Y-147900000D03*
%TO.P,U1,15,PB13*%
%TO.N,unconnected-(U1-Pad15)*%
X98540000Y-147900000D03*
%TO.P,U1,14,PB12*%
%TO.N,unconnected-(U1-Pad14)*%
X96000000Y-147900000D03*
%TO.P,U1,13,PB11*%
%TO.N,unconnected-(U1-Pad13)*%
X93460000Y-147900000D03*
%TO.P,U1,12,PB10*%
%TO.N,unconnected-(U1-Pad12)*%
X90920000Y-147900000D03*
%TO.P,U1,11,PB2*%
%TO.N,/LED_C*%
X88380000Y-147900000D03*
%TO.P,U1,10,PB1*%
%TO.N,/LED_B*%
X85840000Y-147900000D03*
%TO.P,U1,9,PB0*%
%TO.N,/LED_A*%
X83300000Y-147900000D03*
%TO.P,U1,8,PA7*%
%TO.N,unconnected-(U1-Pad8)*%
X80760000Y-147900000D03*
%TO.P,U1,7,PA6*%
%TO.N,unconnected-(U1-Pad7)*%
X78220000Y-147900000D03*
%TO.P,U1,6,PA5*%
%TO.N,unconnected-(U1-Pad6)*%
X75680000Y-147900000D03*
%TO.P,U1,5,PA4*%
%TO.N,unconnected-(U1-Pad5)*%
X73140000Y-147900000D03*
%TO.P,U1,4,PA3*%
%TO.N,unconnected-(U1-Pad4)*%
X70600000Y-147900000D03*
%TO.P,U1,3,PA2*%
%TO.N,unconnected-(U1-Pad3)*%
X68060000Y-147900000D03*
%TO.P,U1,2,PA1*%
%TO.N,unconnected-(U1-Pad2)*%
X65520000Y-147900000D03*
%TO.P,U1,1,PA0*%
%TO.N,/AOUT*%
X62980000Y-147900000D03*
%TD*%
D14*
%TO.N,Net-(R8-Pad2)*%
X89300000Y-83400000D03*
%TO.N,/LED_CC4*%
X105800000Y-91900000D03*
%TO.N,Net-(R12-Pad2)*%
X90800000Y-93400000D03*
%TO.N,GND*%
X73800000Y-102900000D03*
%TO.N,/AOUT*%
X61300000Y-106400000D03*
%TO.N,GND*%
X61300000Y-101900000D03*
X68800000Y-107900000D03*
X68800000Y-103900000D03*
%TD*%
D15*
%TO.N,Net-(R8-Pad2)*%
X91150000Y-82550000D02*
X91150000Y-76850000D01*
X90300000Y-83400000D02*
X91150000Y-82550000D01*
X89300000Y-83400000D02*
X90300000Y-83400000D01*
%TO.N,/LED_CC4*%
X104450000Y-89550000D02*
X91150000Y-89550000D01*
X105800000Y-90900000D02*
X104450000Y-89550000D01*
X105800000Y-91900000D02*
X105800000Y-90900000D01*
%TO.N,Net-(R12-Pad2)*%
X83530000Y-79630000D02*
X83530000Y-76850000D01*
X89759520Y-85859520D02*
X83530000Y-79630000D01*
X89759520Y-92359520D02*
X89759520Y-85859520D01*
X90800000Y-93400000D02*
X89759520Y-92359520D01*
D16*
%TO.N,/AOUT*%
X61300000Y-146220000D02*
X62980000Y-147900000D01*
X61300000Y-106400000D02*
X61300000Y-146220000D01*
%TD*%
%TA.AperFunction,Conductor*%
%TO.N,GND*%
G36*
X114683691Y-73494407D02*
G01*
X114719655Y-73543907D01*
X114724500Y-73574500D01*
X114724500Y-151225500D01*
X114705593Y-151283691D01*
X114656093Y-151319655D01*
X114625500Y-151324500D01*
X51974500Y-151324500D01*
X51916309Y-151305593D01*
X51880345Y-151256093D01*
X51875500Y-151225500D01*
X51875500Y-111311873D01*
X55535877Y-111311873D01*
X55558657Y-111444441D01*
X55560998Y-111453177D01*
X55631009Y-111642950D01*
X55634902Y-111651113D01*
X55738326Y-111824953D01*
X55743631Y-111832255D01*
X55877010Y-111984343D01*
X55883568Y-111990566D01*
X56042415Y-112115791D01*
X56049998Y-112120716D01*
X56229018Y-112214903D01*
X56237358Y-112218357D01*
X56430538Y-112278342D01*
X56439388Y-112280223D01*
X56603598Y-112299658D01*
X56609394Y-112300000D01*
X56659320Y-112300000D01*
X56672005Y-112295878D01*
X56675000Y-112291757D01*
X56675000Y-112284320D01*
X56975000Y-112284320D01*
X56979122Y-112297005D01*
X56983243Y-112300000D01*
X57026360Y-112300000D01*
X57030870Y-112299793D01*
X57180952Y-112286003D01*
X57189836Y-112284356D01*
X57384519Y-112229449D01*
X57392963Y-112226208D01*
X57574376Y-112136745D01*
X57582086Y-112132020D01*
X57744160Y-112010994D01*
X57750878Y-112004945D01*
X57888186Y-111856405D01*
X57893685Y-111849240D01*
X58001626Y-111678163D01*
X58005729Y-111670110D01*
X58080686Y-111482229D01*
X58083251Y-111473571D01*
X58114717Y-111315379D01*
X58113149Y-111302132D01*
X58113119Y-111302100D01*
X58105072Y-111300000D01*
X56990680Y-111300000D01*
X56977995Y-111304122D01*
X56975000Y-111308243D01*
X56975000Y-112284320D01*
X56675000Y-112284320D01*
X56675000Y-111315680D01*
X56670878Y-111302995D01*
X56666757Y-111300000D01*
X55549517Y-111300000D01*
X55536832Y-111304122D01*
X55536393Y-111304726D01*
X55535877Y-111311873D01*
X51875500Y-111311873D01*
X51875500Y-110984621D01*
X55535283Y-110984621D01*
X55536851Y-110997868D01*
X55536881Y-110997900D01*
X55544928Y-111000000D01*
X56659320Y-111000000D01*
X56672005Y-110995878D01*
X56675000Y-110991757D01*
X56675000Y-110984320D01*
X56975000Y-110984320D01*
X56979122Y-110997005D01*
X56983243Y-111000000D01*
X58100483Y-111000000D01*
X58113168Y-110995878D01*
X58113607Y-110995274D01*
X58114123Y-110988127D01*
X58091343Y-110855559D01*
X58089002Y-110846823D01*
X58018991Y-110657050D01*
X58015098Y-110648887D01*
X57911674Y-110475047D01*
X57906369Y-110467745D01*
X57772990Y-110315657D01*
X57766432Y-110309434D01*
X57607585Y-110184209D01*
X57600002Y-110179284D01*
X57420982Y-110085097D01*
X57412642Y-110081643D01*
X57219462Y-110021658D01*
X57210612Y-110019777D01*
X57046402Y-110000342D01*
X57040606Y-110000000D01*
X56990680Y-110000000D01*
X56977995Y-110004122D01*
X56975000Y-110008243D01*
X56975000Y-110984320D01*
X56675000Y-110984320D01*
X56675000Y-110015680D01*
X56670878Y-110002995D01*
X56666757Y-110000000D01*
X56623640Y-110000000D01*
X56619130Y-110000207D01*
X56469048Y-110013997D01*
X56460164Y-110015644D01*
X56265481Y-110070551D01*
X56257037Y-110073792D01*
X56075624Y-110163255D01*
X56067914Y-110167980D01*
X55905840Y-110289006D01*
X55899122Y-110295055D01*
X55761814Y-110443595D01*
X55756315Y-110450760D01*
X55648374Y-110621837D01*
X55644271Y-110629890D01*
X55569314Y-110817771D01*
X55566749Y-110826429D01*
X55535283Y-110984621D01*
X51875500Y-110984621D01*
X51875500Y-109292772D01*
X55524500Y-109292772D01*
X55535364Y-109382547D01*
X55590887Y-109522783D01*
X55682078Y-109642922D01*
X55687457Y-109647005D01*
X55796840Y-109730032D01*
X55796842Y-109730033D01*
X55802217Y-109734113D01*
X55942453Y-109789636D01*
X56032228Y-109800500D01*
X57617772Y-109800500D01*
X57707547Y-109789636D01*
X57847783Y-109734113D01*
X57853158Y-109730033D01*
X57853160Y-109730032D01*
X57962543Y-109647005D01*
X57967922Y-109642922D01*
X58059113Y-109522783D01*
X58114636Y-109382547D01*
X58125500Y-109292772D01*
X58125500Y-108007228D01*
X58114636Y-107917453D01*
X58059113Y-107777217D01*
X57967922Y-107657078D01*
X57962543Y-107652995D01*
X57853160Y-107569968D01*
X57853158Y-107569967D01*
X57847783Y-107565887D01*
X57707547Y-107510364D01*
X57617772Y-107499500D01*
X56032228Y-107499500D01*
X55942453Y-107510364D01*
X55802217Y-107565887D01*
X55796842Y-107569967D01*
X55796840Y-107569968D01*
X55687457Y-107652995D01*
X55682078Y-107657078D01*
X55590887Y-107777217D01*
X55535364Y-107917453D01*
X55524500Y-108007228D01*
X55524500Y-109292772D01*
X51875500Y-109292772D01*
X51875500Y-106389877D01*
X60575012Y-106389877D01*
X60590785Y-106550748D01*
X60641808Y-106704128D01*
X60644673Y-106708859D01*
X60644675Y-106708863D01*
X60655206Y-106726251D01*
X60725543Y-106842391D01*
X60728997Y-106845968D01*
X60749500Y-106906190D01*
X60749500Y-146205565D01*
X60749413Y-146209711D01*
X60746790Y-146272294D01*
X60748332Y-146278867D01*
X60748332Y-146278870D01*
X60757016Y-146315893D01*
X60758716Y-146325063D01*
X60764794Y-146369432D01*
X60771724Y-146385446D01*
X60777247Y-146402144D01*
X60781232Y-146419136D01*
X60784483Y-146425049D01*
X60784485Y-146425055D01*
X60802809Y-146458387D01*
X60806911Y-146466760D01*
X60822014Y-146501661D01*
X60822016Y-146501665D01*
X60824695Y-146507855D01*
X60828940Y-146513098D01*
X60828941Y-146513099D01*
X60835671Y-146521410D01*
X60845484Y-146536014D01*
X60851395Y-146546765D01*
X60853893Y-146551308D01*
X60860897Y-146559422D01*
X60886444Y-146584969D01*
X60893376Y-146592669D01*
X60919614Y-146625070D01*
X60925113Y-146628978D01*
X60936791Y-146637277D01*
X60949446Y-146647971D01*
X61850504Y-147549028D01*
X61878281Y-147603545D01*
X61879500Y-147619032D01*
X61879500Y-148402469D01*
X61894439Y-148559046D01*
X61953553Y-148760549D01*
X61955709Y-148764735D01*
X62047411Y-148942784D01*
X62049705Y-148947239D01*
X62179424Y-149112379D01*
X62338029Y-149250010D01*
X62519799Y-149355166D01*
X62524244Y-149356710D01*
X62524245Y-149356710D01*
X62713727Y-149422509D01*
X62713729Y-149422510D01*
X62718174Y-149424053D01*
X62722836Y-149424729D01*
X62921326Y-149453509D01*
X62921327Y-149453509D01*
X62925996Y-149454186D01*
X62930707Y-149453968D01*
X62930708Y-149453968D01*
X63131059Y-149444695D01*
X63131060Y-149444695D01*
X63135767Y-149444477D01*
X63220513Y-149424053D01*
X63335335Y-149396381D01*
X63335340Y-149396379D01*
X63339918Y-149395276D01*
X63345250Y-149392852D01*
X63526792Y-149310310D01*
X63526791Y-149310310D01*
X63531081Y-149308360D01*
X63702360Y-149186863D01*
X63777545Y-149108324D01*
X63844317Y-149038573D01*
X63844320Y-149038569D01*
X63847575Y-149035169D01*
X63961485Y-148858754D01*
X64039981Y-148663981D01*
X64059591Y-148563565D01*
X64079548Y-148461373D01*
X64079549Y-148461366D01*
X64080230Y-148457878D01*
X64080500Y-148452357D01*
X64080500Y-148402469D01*
X64419500Y-148402469D01*
X64434439Y-148559046D01*
X64493553Y-148760549D01*
X64495709Y-148764735D01*
X64587411Y-148942784D01*
X64589705Y-148947239D01*
X64719424Y-149112379D01*
X64878029Y-149250010D01*
X65059799Y-149355166D01*
X65064244Y-149356710D01*
X65064245Y-149356710D01*
X65253727Y-149422509D01*
X65253729Y-149422510D01*
X65258174Y-149424053D01*
X65262836Y-149424729D01*
X65461326Y-149453509D01*
X65461327Y-149453509D01*
X65465996Y-149454186D01*
X65470707Y-149453968D01*
X65470708Y-149453968D01*
X65671059Y-149444695D01*
X65671060Y-149444695D01*
X65675767Y-149444477D01*
X65760513Y-149424053D01*
X65875335Y-149396381D01*
X65875340Y-149396379D01*
X65879918Y-149395276D01*
X65885250Y-149392852D01*
X66066792Y-149310310D01*
X66066791Y-149310310D01*
X66071081Y-149308360D01*
X66242360Y-149186863D01*
X66317545Y-149108324D01*
X66384317Y-149038573D01*
X66384320Y-149038569D01*
X66387575Y-149035169D01*
X66501485Y-148858754D01*
X66579981Y-148663981D01*
X66599591Y-148563565D01*
X66619548Y-148461373D01*
X66619549Y-148461366D01*
X66620230Y-148457878D01*
X66620500Y-148452357D01*
X66620500Y-148402469D01*
X66959500Y-148402469D01*
X66974439Y-148559046D01*
X67033553Y-148760549D01*
X67035709Y-148764735D01*
X67127411Y-148942784D01*
X67129705Y-148947239D01*
X67259424Y-149112379D01*
X67418029Y-149250010D01*
X67599799Y-149355166D01*
X67604244Y-149356710D01*
X67604245Y-149356710D01*
X67793727Y-149422509D01*
X67793729Y-149422510D01*
X67798174Y-149424053D01*
X67802836Y-149424729D01*
X68001326Y-149453509D01*
X68001327Y-149453509D01*
X68005996Y-149454186D01*
X68010707Y-149453968D01*
X68010708Y-149453968D01*
X68211059Y-149444695D01*
X68211060Y-149444695D01*
X68215767Y-149444477D01*
X68300513Y-149424053D01*
X68415335Y-149396381D01*
X68415340Y-149396379D01*
X68419918Y-149395276D01*
X68425250Y-149392852D01*
X68606792Y-149310310D01*
X68606791Y-149310310D01*
X68611081Y-149308360D01*
X68782360Y-149186863D01*
X68857545Y-149108324D01*
X68924317Y-149038573D01*
X68924320Y-149038569D01*
X68927575Y-149035169D01*
X69041485Y-148858754D01*
X69119981Y-148663981D01*
X69139591Y-148563565D01*
X69159548Y-148461373D01*
X69159549Y-148461366D01*
X69160230Y-148457878D01*
X69160500Y-148452357D01*
X69160500Y-148402469D01*
X69499500Y-148402469D01*
X69514439Y-148559046D01*
X69573553Y-148760549D01*
X69575709Y-148764735D01*
X69667411Y-148942784D01*
X69669705Y-148947239D01*
X69799424Y-149112379D01*
X69958029Y-149250010D01*
X70139799Y-149355166D01*
X70144244Y-149356710D01*
X70144245Y-149356710D01*
X70333727Y-149422509D01*
X70333729Y-149422510D01*
X70338174Y-149424053D01*
X70342836Y-149424729D01*
X70541326Y-149453509D01*
X70541327Y-149453509D01*
X70545996Y-149454186D01*
X70550707Y-149453968D01*
X70550708Y-149453968D01*
X70751059Y-149444695D01*
X70751060Y-149444695D01*
X70755767Y-149444477D01*
X70840513Y-149424053D01*
X70955335Y-149396381D01*
X70955340Y-149396379D01*
X70959918Y-149395276D01*
X70965250Y-149392852D01*
X71146792Y-149310310D01*
X71146791Y-149310310D01*
X71151081Y-149308360D01*
X71322360Y-149186863D01*
X71397545Y-149108324D01*
X71464317Y-149038573D01*
X71464320Y-149038569D01*
X71467575Y-149035169D01*
X71581485Y-148858754D01*
X71659981Y-148663981D01*
X71679591Y-148563565D01*
X71699548Y-148461373D01*
X71699549Y-148461366D01*
X71700230Y-148457878D01*
X71700500Y-148452357D01*
X71700500Y-148402469D01*
X72039500Y-148402469D01*
X72054439Y-148559046D01*
X72113553Y-148760549D01*
X72115709Y-148764735D01*
X72207411Y-148942784D01*
X72209705Y-148947239D01*
X72339424Y-149112379D01*
X72498029Y-149250010D01*
X72679799Y-149355166D01*
X72684244Y-149356710D01*
X72684245Y-149356710D01*
X72873727Y-149422509D01*
X72873729Y-149422510D01*
X72878174Y-149424053D01*
X72882836Y-149424729D01*
X73081326Y-149453509D01*
X73081327Y-149453509D01*
X73085996Y-149454186D01*
X73090707Y-149453968D01*
X73090708Y-149453968D01*
X73291059Y-149444695D01*
X73291060Y-149444695D01*
X73295767Y-149444477D01*
X73380513Y-149424053D01*
X73495335Y-149396381D01*
X73495340Y-149396379D01*
X73499918Y-149395276D01*
X73505250Y-149392852D01*
X73686792Y-149310310D01*
X73686791Y-149310310D01*
X73691081Y-149308360D01*
X73862360Y-149186863D01*
X73937545Y-149108324D01*
X74004317Y-149038573D01*
X74004320Y-149038569D01*
X74007575Y-149035169D01*
X74121485Y-148858754D01*
X74199981Y-148663981D01*
X74219591Y-148563565D01*
X74239548Y-148461373D01*
X74239549Y-148461366D01*
X74240230Y-148457878D01*
X74240500Y-148452357D01*
X74240500Y-148402469D01*
X74579500Y-148402469D01*
X74594439Y-148559046D01*
X74653553Y-148760549D01*
X74655709Y-148764735D01*
X74747411Y-148942784D01*
X74749705Y-148947239D01*
X74879424Y-149112379D01*
X75038029Y-149250010D01*
X75219799Y-149355166D01*
X75224244Y-149356710D01*
X75224245Y-149356710D01*
X75413727Y-149422509D01*
X75413729Y-149422510D01*
X75418174Y-149424053D01*
X75422836Y-149424729D01*
X75621326Y-149453509D01*
X75621327Y-149453509D01*
X75625996Y-149454186D01*
X75630707Y-149453968D01*
X75630708Y-149453968D01*
X75831059Y-149444695D01*
X75831060Y-149444695D01*
X75835767Y-149444477D01*
X75920513Y-149424053D01*
X76035335Y-149396381D01*
X76035340Y-149396379D01*
X76039918Y-149395276D01*
X76045250Y-149392852D01*
X76226792Y-149310310D01*
X76226791Y-149310310D01*
X76231081Y-149308360D01*
X76402360Y-149186863D01*
X76477545Y-149108324D01*
X76544317Y-149038573D01*
X76544320Y-149038569D01*
X76547575Y-149035169D01*
X76661485Y-148858754D01*
X76739981Y-148663981D01*
X76759591Y-148563565D01*
X76779548Y-148461373D01*
X76779549Y-148461366D01*
X76780230Y-148457878D01*
X76780500Y-148452357D01*
X76780500Y-148402469D01*
X77119500Y-148402469D01*
X77134439Y-148559046D01*
X77193553Y-148760549D01*
X77195709Y-148764735D01*
X77287411Y-148942784D01*
X77289705Y-148947239D01*
X77419424Y-149112379D01*
X77578029Y-149250010D01*
X77759799Y-149355166D01*
X77764244Y-149356710D01*
X77764245Y-149356710D01*
X77953727Y-149422509D01*
X77953729Y-149422510D01*
X77958174Y-149424053D01*
X77962836Y-149424729D01*
X78161326Y-149453509D01*
X78161327Y-149453509D01*
X78165996Y-149454186D01*
X78170707Y-149453968D01*
X78170708Y-149453968D01*
X78371059Y-149444695D01*
X78371060Y-149444695D01*
X78375767Y-149444477D01*
X78460513Y-149424053D01*
X78575335Y-149396381D01*
X78575340Y-149396379D01*
X78579918Y-149395276D01*
X78585250Y-149392852D01*
X78766792Y-149310310D01*
X78766791Y-149310310D01*
X78771081Y-149308360D01*
X78942360Y-149186863D01*
X79017545Y-149108324D01*
X79084317Y-149038573D01*
X79084320Y-149038569D01*
X79087575Y-149035169D01*
X79201485Y-148858754D01*
X79279981Y-148663981D01*
X79299591Y-148563565D01*
X79319548Y-148461373D01*
X79319549Y-148461366D01*
X79320230Y-148457878D01*
X79320500Y-148452357D01*
X79320500Y-148402469D01*
X79659500Y-148402469D01*
X79674439Y-148559046D01*
X79733553Y-148760549D01*
X79735709Y-148764735D01*
X79827411Y-148942784D01*
X79829705Y-148947239D01*
X79959424Y-149112379D01*
X80118029Y-149250010D01*
X80299799Y-149355166D01*
X80304244Y-149356710D01*
X80304245Y-149356710D01*
X80493727Y-149422509D01*
X80493729Y-149422510D01*
X80498174Y-149424053D01*
X80502836Y-149424729D01*
X80701326Y-149453509D01*
X80701327Y-149453509D01*
X80705996Y-149454186D01*
X80710707Y-149453968D01*
X80710708Y-149453968D01*
X80911059Y-149444695D01*
X80911060Y-149444695D01*
X80915767Y-149444477D01*
X81000513Y-149424053D01*
X81115335Y-149396381D01*
X81115340Y-149396379D01*
X81119918Y-149395276D01*
X81125250Y-149392852D01*
X81306792Y-149310310D01*
X81306791Y-149310310D01*
X81311081Y-149308360D01*
X81482360Y-149186863D01*
X81557545Y-149108324D01*
X81624317Y-149038573D01*
X81624320Y-149038569D01*
X81627575Y-149035169D01*
X81741485Y-148858754D01*
X81819981Y-148663981D01*
X81839591Y-148563565D01*
X81859548Y-148461373D01*
X81859549Y-148461366D01*
X81860230Y-148457878D01*
X81860500Y-148452357D01*
X81860500Y-148402469D01*
X82199500Y-148402469D01*
X82214439Y-148559046D01*
X82273553Y-148760549D01*
X82275709Y-148764735D01*
X82367411Y-148942784D01*
X82369705Y-148947239D01*
X82499424Y-149112379D01*
X82658029Y-149250010D01*
X82839799Y-149355166D01*
X82844244Y-149356710D01*
X82844245Y-149356710D01*
X83033727Y-149422509D01*
X83033729Y-149422510D01*
X83038174Y-149424053D01*
X83042836Y-149424729D01*
X83241326Y-149453509D01*
X83241327Y-149453509D01*
X83245996Y-149454186D01*
X83250707Y-149453968D01*
X83250708Y-149453968D01*
X83451059Y-149444695D01*
X83451060Y-149444695D01*
X83455767Y-149444477D01*
X83540513Y-149424053D01*
X83655335Y-149396381D01*
X83655340Y-149396379D01*
X83659918Y-149395276D01*
X83665250Y-149392852D01*
X83846792Y-149310310D01*
X83846791Y-149310310D01*
X83851081Y-149308360D01*
X84022360Y-149186863D01*
X84097545Y-149108324D01*
X84164317Y-149038573D01*
X84164320Y-149038569D01*
X84167575Y-149035169D01*
X84281485Y-148858754D01*
X84359981Y-148663981D01*
X84379591Y-148563565D01*
X84399548Y-148461373D01*
X84399549Y-148461366D01*
X84400230Y-148457878D01*
X84400500Y-148452357D01*
X84400500Y-148402469D01*
X84739500Y-148402469D01*
X84754439Y-148559046D01*
X84813553Y-148760549D01*
X84815709Y-148764735D01*
X84907411Y-148942784D01*
X84909705Y-148947239D01*
X85039424Y-149112379D01*
X85198029Y-149250010D01*
X85379799Y-149355166D01*
X85384244Y-149356710D01*
X85384245Y-149356710D01*
X85573727Y-149422509D01*
X85573729Y-149422510D01*
X85578174Y-149424053D01*
X85582836Y-149424729D01*
X85781326Y-149453509D01*
X85781327Y-149453509D01*
X85785996Y-149454186D01*
X85790707Y-149453968D01*
X85790708Y-149453968D01*
X85991059Y-149444695D01*
X85991060Y-149444695D01*
X85995767Y-149444477D01*
X86080513Y-149424053D01*
X86195335Y-149396381D01*
X86195340Y-149396379D01*
X86199918Y-149395276D01*
X86205250Y-149392852D01*
X86386792Y-149310310D01*
X86386791Y-149310310D01*
X86391081Y-149308360D01*
X86562360Y-149186863D01*
X86637545Y-149108324D01*
X86704317Y-149038573D01*
X86704320Y-149038569D01*
X86707575Y-149035169D01*
X86821485Y-148858754D01*
X86899981Y-148663981D01*
X86919591Y-148563565D01*
X86939548Y-148461373D01*
X86939549Y-148461366D01*
X86940230Y-148457878D01*
X86940500Y-148452357D01*
X86940500Y-148402469D01*
X87279500Y-148402469D01*
X87294439Y-148559046D01*
X87353553Y-148760549D01*
X87355709Y-148764735D01*
X87447411Y-148942784D01*
X87449705Y-148947239D01*
X87579424Y-149112379D01*
X87738029Y-149250010D01*
X87919799Y-149355166D01*
X87924244Y-149356710D01*
X87924245Y-149356710D01*
X88113727Y-149422509D01*
X88113729Y-149422510D01*
X88118174Y-149424053D01*
X88122836Y-149424729D01*
X88321326Y-149453509D01*
X88321327Y-149453509D01*
X88325996Y-149454186D01*
X88330707Y-149453968D01*
X88330708Y-149453968D01*
X88531059Y-149444695D01*
X88531060Y-149444695D01*
X88535767Y-149444477D01*
X88620513Y-149424053D01*
X88735335Y-149396381D01*
X88735340Y-149396379D01*
X88739918Y-149395276D01*
X88745250Y-149392852D01*
X88926792Y-149310310D01*
X88926791Y-149310310D01*
X88931081Y-149308360D01*
X89102360Y-149186863D01*
X89177545Y-149108324D01*
X89244317Y-149038573D01*
X89244320Y-149038569D01*
X89247575Y-149035169D01*
X89361485Y-148858754D01*
X89439981Y-148663981D01*
X89459591Y-148563565D01*
X89479548Y-148461373D01*
X89479549Y-148461366D01*
X89480230Y-148457878D01*
X89480500Y-148452357D01*
X89480500Y-148402469D01*
X89819500Y-148402469D01*
X89834439Y-148559046D01*
X89893553Y-148760549D01*
X89895709Y-148764735D01*
X89987411Y-148942784D01*
X89989705Y-148947239D01*
X90119424Y-149112379D01*
X90278029Y-149250010D01*
X90459799Y-149355166D01*
X90464244Y-149356710D01*
X90464245Y-149356710D01*
X90653727Y-149422509D01*
X90653729Y-149422510D01*
X90658174Y-149424053D01*
X90662836Y-149424729D01*
X90861326Y-149453509D01*
X90861327Y-149453509D01*
X90865996Y-149454186D01*
X90870707Y-149453968D01*
X90870708Y-149453968D01*
X91071059Y-149444695D01*
X91071060Y-149444695D01*
X91075767Y-149444477D01*
X91160513Y-149424053D01*
X91275335Y-149396381D01*
X91275340Y-149396379D01*
X91279918Y-149395276D01*
X91285250Y-149392852D01*
X91466792Y-149310310D01*
X91466791Y-149310310D01*
X91471081Y-149308360D01*
X91642360Y-149186863D01*
X91717545Y-149108324D01*
X91784317Y-149038573D01*
X91784320Y-149038569D01*
X91787575Y-149035169D01*
X91901485Y-148858754D01*
X91979981Y-148663981D01*
X91999591Y-148563565D01*
X92019548Y-148461373D01*
X92019549Y-148461366D01*
X92020230Y-148457878D01*
X92020500Y-148452357D01*
X92020500Y-148402469D01*
X92359500Y-148402469D01*
X92374439Y-148559046D01*
X92433553Y-148760549D01*
X92435709Y-148764735D01*
X92527411Y-148942784D01*
X92529705Y-148947239D01*
X92659424Y-149112379D01*
X92818029Y-149250010D01*
X92999799Y-149355166D01*
X93004244Y-149356710D01*
X93004245Y-149356710D01*
X93193727Y-149422509D01*
X93193729Y-149422510D01*
X93198174Y-149424053D01*
X93202836Y-149424729D01*
X93401326Y-149453509D01*
X93401327Y-149453509D01*
X93405996Y-149454186D01*
X93410707Y-149453968D01*
X93410708Y-149453968D01*
X93611059Y-149444695D01*
X93611060Y-149444695D01*
X93615767Y-149444477D01*
X93700513Y-149424053D01*
X93815335Y-149396381D01*
X93815340Y-149396379D01*
X93819918Y-149395276D01*
X93825250Y-149392852D01*
X94006792Y-149310310D01*
X94006791Y-149310310D01*
X94011081Y-149308360D01*
X94182360Y-149186863D01*
X94257545Y-149108324D01*
X94324317Y-149038573D01*
X94324320Y-149038569D01*
X94327575Y-149035169D01*
X94441485Y-148858754D01*
X94519981Y-148663981D01*
X94539591Y-148563565D01*
X94559548Y-148461373D01*
X94559549Y-148461366D01*
X94560230Y-148457878D01*
X94560500Y-148452357D01*
X94560500Y-148402469D01*
X94899500Y-148402469D01*
X94914439Y-148559046D01*
X94973553Y-148760549D01*
X94975709Y-148764735D01*
X95067411Y-148942784D01*
X95069705Y-148947239D01*
X95199424Y-149112379D01*
X95358029Y-149250010D01*
X95539799Y-149355166D01*
X95544244Y-149356710D01*
X95544245Y-149356710D01*
X95733727Y-149422509D01*
X95733729Y-149422510D01*
X95738174Y-149424053D01*
X95742836Y-149424729D01*
X95941326Y-149453509D01*
X95941327Y-149453509D01*
X95945996Y-149454186D01*
X95950707Y-149453968D01*
X95950708Y-149453968D01*
X96151059Y-149444695D01*
X96151060Y-149444695D01*
X96155767Y-149444477D01*
X96240513Y-149424053D01*
X96355335Y-149396381D01*
X96355340Y-149396379D01*
X96359918Y-149395276D01*
X96365250Y-149392852D01*
X96546792Y-149310310D01*
X96546791Y-149310310D01*
X96551081Y-149308360D01*
X96722360Y-149186863D01*
X96797545Y-149108324D01*
X96864317Y-149038573D01*
X96864320Y-149038569D01*
X96867575Y-149035169D01*
X96981485Y-148858754D01*
X97059981Y-148663981D01*
X97079591Y-148563565D01*
X97099548Y-148461373D01*
X97099549Y-148461366D01*
X97100230Y-148457878D01*
X97100500Y-148452357D01*
X97100500Y-148402469D01*
X97439500Y-148402469D01*
X97454439Y-148559046D01*
X97513553Y-148760549D01*
X97515709Y-148764735D01*
X97607411Y-148942784D01*
X97609705Y-148947239D01*
X97739424Y-149112379D01*
X97898029Y-149250010D01*
X98079799Y-149355166D01*
X98084244Y-149356710D01*
X98084245Y-149356710D01*
X98273727Y-149422509D01*
X98273729Y-149422510D01*
X98278174Y-149424053D01*
X98282836Y-149424729D01*
X98481326Y-149453509D01*
X98481327Y-149453509D01*
X98485996Y-149454186D01*
X98490707Y-149453968D01*
X98490708Y-149453968D01*
X98691059Y-149444695D01*
X98691060Y-149444695D01*
X98695767Y-149444477D01*
X98780513Y-149424053D01*
X98895335Y-149396381D01*
X98895340Y-149396379D01*
X98899918Y-149395276D01*
X98905250Y-149392852D01*
X99086792Y-149310310D01*
X99086791Y-149310310D01*
X99091081Y-149308360D01*
X99262360Y-149186863D01*
X99337545Y-149108324D01*
X99404317Y-149038573D01*
X99404320Y-149038569D01*
X99407575Y-149035169D01*
X99521485Y-148858754D01*
X99599981Y-148663981D01*
X99619591Y-148563565D01*
X99639548Y-148461373D01*
X99639549Y-148461366D01*
X99640230Y-148457878D01*
X99640500Y-148452357D01*
X99640500Y-148402469D01*
X99979500Y-148402469D01*
X99994439Y-148559046D01*
X100053553Y-148760549D01*
X100055709Y-148764735D01*
X100147411Y-148942784D01*
X100149705Y-148947239D01*
X100279424Y-149112379D01*
X100438029Y-149250010D01*
X100619799Y-149355166D01*
X100624244Y-149356710D01*
X100624245Y-149356710D01*
X100813727Y-149422509D01*
X100813729Y-149422510D01*
X100818174Y-149424053D01*
X100822836Y-149424729D01*
X101021326Y-149453509D01*
X101021327Y-149453509D01*
X101025996Y-149454186D01*
X101030707Y-149453968D01*
X101030708Y-149453968D01*
X101231059Y-149444695D01*
X101231060Y-149444695D01*
X101235767Y-149444477D01*
X101320513Y-149424053D01*
X101435335Y-149396381D01*
X101435340Y-149396379D01*
X101439918Y-149395276D01*
X101445250Y-149392852D01*
X101626792Y-149310310D01*
X101626791Y-149310310D01*
X101631081Y-149308360D01*
X101802360Y-149186863D01*
X101877545Y-149108324D01*
X101944317Y-149038573D01*
X101944320Y-149038569D01*
X101947575Y-149035169D01*
X102061485Y-148858754D01*
X102139981Y-148663981D01*
X102159591Y-148563565D01*
X102179548Y-148461373D01*
X102179549Y-148461366D01*
X102180230Y-148457878D01*
X102180500Y-148452357D01*
X102180500Y-148402469D01*
X102519500Y-148402469D01*
X102534439Y-148559046D01*
X102593553Y-148760549D01*
X102595709Y-148764735D01*
X102687411Y-148942784D01*
X102689705Y-148947239D01*
X102819424Y-149112379D01*
X102978029Y-149250010D01*
X103159799Y-149355166D01*
X103164244Y-149356710D01*
X103164245Y-149356710D01*
X103353727Y-149422509D01*
X103353729Y-149422510D01*
X103358174Y-149424053D01*
X103362836Y-149424729D01*
X103561326Y-149453509D01*
X103561327Y-149453509D01*
X103565996Y-149454186D01*
X103570707Y-149453968D01*
X103570708Y-149453968D01*
X103771059Y-149444695D01*
X103771060Y-149444695D01*
X103775767Y-149444477D01*
X103860513Y-149424053D01*
X103975335Y-149396381D01*
X103975340Y-149396379D01*
X103979918Y-149395276D01*
X103985250Y-149392852D01*
X104166792Y-149310310D01*
X104166791Y-149310310D01*
X104171081Y-149308360D01*
X104342360Y-149186863D01*
X104417545Y-149108324D01*
X104484317Y-149038573D01*
X104484320Y-149038569D01*
X104487575Y-149035169D01*
X104601485Y-148858754D01*
X104679981Y-148663981D01*
X104699591Y-148563565D01*
X104719548Y-148461373D01*
X104719549Y-148461366D01*
X104720230Y-148457878D01*
X104720500Y-148452357D01*
X104720500Y-148402469D01*
X105059500Y-148402469D01*
X105074439Y-148559046D01*
X105133553Y-148760549D01*
X105135709Y-148764735D01*
X105227411Y-148942784D01*
X105229705Y-148947239D01*
X105359424Y-149112379D01*
X105518029Y-149250010D01*
X105699799Y-149355166D01*
X105704244Y-149356710D01*
X105704245Y-149356710D01*
X105893727Y-149422509D01*
X105893729Y-149422510D01*
X105898174Y-149424053D01*
X105902836Y-149424729D01*
X106101326Y-149453509D01*
X106101327Y-149453509D01*
X106105996Y-149454186D01*
X106110707Y-149453968D01*
X106110708Y-149453968D01*
X106311059Y-149444695D01*
X106311060Y-149444695D01*
X106315767Y-149444477D01*
X106400513Y-149424053D01*
X106515335Y-149396381D01*
X106515340Y-149396379D01*
X106519918Y-149395276D01*
X106525250Y-149392852D01*
X106706792Y-149310310D01*
X106706791Y-149310310D01*
X106711081Y-149308360D01*
X106882360Y-149186863D01*
X106957545Y-149108324D01*
X107024317Y-149038573D01*
X107024320Y-149038569D01*
X107027575Y-149035169D01*
X107141485Y-148858754D01*
X107219981Y-148663981D01*
X107239591Y-148563565D01*
X107259548Y-148461373D01*
X107259549Y-148461366D01*
X107260230Y-148457878D01*
X107260500Y-148452357D01*
X107260500Y-148402469D01*
X107599500Y-148402469D01*
X107614439Y-148559046D01*
X107673553Y-148760549D01*
X107675709Y-148764735D01*
X107767411Y-148942784D01*
X107769705Y-148947239D01*
X107899424Y-149112379D01*
X108058029Y-149250010D01*
X108239799Y-149355166D01*
X108244244Y-149356710D01*
X108244245Y-149356710D01*
X108433727Y-149422509D01*
X108433729Y-149422510D01*
X108438174Y-149424053D01*
X108442836Y-149424729D01*
X108641326Y-149453509D01*
X108641327Y-149453509D01*
X108645996Y-149454186D01*
X108650707Y-149453968D01*
X108650708Y-149453968D01*
X108851059Y-149444695D01*
X108851060Y-149444695D01*
X108855767Y-149444477D01*
X108940513Y-149424053D01*
X109055335Y-149396381D01*
X109055340Y-149396379D01*
X109059918Y-149395276D01*
X109065250Y-149392852D01*
X109246792Y-149310310D01*
X109246791Y-149310310D01*
X109251081Y-149308360D01*
X109422360Y-149186863D01*
X109497545Y-149108324D01*
X109564317Y-149038573D01*
X109564320Y-149038569D01*
X109567575Y-149035169D01*
X109681485Y-148858754D01*
X109759981Y-148663981D01*
X109779591Y-148563565D01*
X109799548Y-148461373D01*
X109799549Y-148461366D01*
X109800230Y-148457878D01*
X109800500Y-148452357D01*
X109800500Y-148400087D01*
X110140000Y-148400087D01*
X110140225Y-148404801D01*
X110154484Y-148554258D01*
X110156258Y-148563470D01*
X110212694Y-148755846D01*
X110216175Y-148764549D01*
X110307972Y-148942784D01*
X110313036Y-148950671D01*
X110436874Y-149108324D01*
X110443347Y-149115122D01*
X110594761Y-149246512D01*
X110602403Y-149251963D01*
X110775932Y-149352352D01*
X110784455Y-149356254D01*
X110973846Y-149422022D01*
X110982955Y-149424242D01*
X111074482Y-149437513D01*
X111087628Y-149435254D01*
X111088637Y-149434219D01*
X111089955Y-149428564D01*
X111390000Y-149428564D01*
X111394122Y-149441249D01*
X111397003Y-149443342D01*
X111400274Y-149442877D01*
X111595171Y-149395906D01*
X111604043Y-149392852D01*
X111786541Y-149309874D01*
X111794674Y-149305198D01*
X111958189Y-149189209D01*
X111965289Y-149183080D01*
X112103923Y-149038262D01*
X112109737Y-149030899D01*
X112218487Y-148862477D01*
X112222798Y-148854161D01*
X112297742Y-148668201D01*
X112300402Y-148659221D01*
X112339048Y-148461323D01*
X112339904Y-148454272D01*
X112339940Y-148453528D01*
X112340000Y-148451084D01*
X112340000Y-148065680D01*
X112335878Y-148052995D01*
X112331757Y-148050000D01*
X111405680Y-148050000D01*
X111392995Y-148054122D01*
X111390000Y-148058243D01*
X111390000Y-149428564D01*
X111089955Y-149428564D01*
X111090000Y-149428372D01*
X111090000Y-148065680D01*
X111085878Y-148052995D01*
X111081757Y-148050000D01*
X110155680Y-148050000D01*
X110142995Y-148054122D01*
X110140000Y-148058243D01*
X110140000Y-148400087D01*
X109800500Y-148400087D01*
X109800500Y-147734320D01*
X110140000Y-147734320D01*
X110144122Y-147747005D01*
X110148243Y-147750000D01*
X111074320Y-147750000D01*
X111087005Y-147745878D01*
X111090000Y-147741757D01*
X111090000Y-147734320D01*
X111390000Y-147734320D01*
X111394122Y-147747005D01*
X111398243Y-147750000D01*
X112324320Y-147750000D01*
X112337005Y-147745878D01*
X112340000Y-147741757D01*
X112340000Y-147399913D01*
X112339775Y-147395199D01*
X112325516Y-147245742D01*
X112323742Y-147236530D01*
X112267306Y-147044154D01*
X112263825Y-147035451D01*
X112172028Y-146857216D01*
X112166964Y-146849329D01*
X112043126Y-146691676D01*
X112036653Y-146684878D01*
X111885239Y-146553488D01*
X111877597Y-146548037D01*
X111704068Y-146447648D01*
X111695545Y-146443746D01*
X111506154Y-146377978D01*
X111497045Y-146375758D01*
X111405518Y-146362487D01*
X111392372Y-146364746D01*
X111391363Y-146365781D01*
X111390000Y-146371628D01*
X111390000Y-147734320D01*
X111090000Y-147734320D01*
X111090000Y-146371436D01*
X111085878Y-146358751D01*
X111082997Y-146356658D01*
X111079726Y-146357123D01*
X110884829Y-146404094D01*
X110875957Y-146407148D01*
X110693459Y-146490126D01*
X110685326Y-146494802D01*
X110521811Y-146610791D01*
X110514711Y-146616920D01*
X110376077Y-146761738D01*
X110370263Y-146769101D01*
X110261513Y-146937523D01*
X110257202Y-146945839D01*
X110182258Y-147131799D01*
X110179598Y-147140779D01*
X110140952Y-147338677D01*
X110140096Y-147345728D01*
X110140060Y-147346472D01*
X110140000Y-147348916D01*
X110140000Y-147734320D01*
X109800500Y-147734320D01*
X109800500Y-147397531D01*
X109785561Y-147240954D01*
X109726447Y-147039451D01*
X109663315Y-146916874D01*
X109632452Y-146856949D01*
X109630295Y-146852761D01*
X109500576Y-146687621D01*
X109354304Y-146560692D01*
X109345531Y-146553079D01*
X109345530Y-146553078D01*
X109341971Y-146549990D01*
X109160201Y-146444834D01*
X109086198Y-146419136D01*
X108966273Y-146377491D01*
X108966271Y-146377490D01*
X108961826Y-146375947D01*
X108932039Y-146371628D01*
X108758674Y-146346491D01*
X108758673Y-146346491D01*
X108754004Y-146345814D01*
X108749293Y-146346032D01*
X108749292Y-146346032D01*
X108548941Y-146355305D01*
X108548940Y-146355305D01*
X108544233Y-146355523D01*
X108486520Y-146369432D01*
X108344665Y-146403619D01*
X108344660Y-146403621D01*
X108340082Y-146404724D01*
X108335794Y-146406674D01*
X108335793Y-146406674D01*
X108322832Y-146412567D01*
X108148919Y-146491640D01*
X107977640Y-146613137D01*
X107908963Y-146684878D01*
X107835683Y-146761427D01*
X107835680Y-146761431D01*
X107832425Y-146764831D01*
X107718515Y-146941246D01*
X107640019Y-147136019D01*
X107639116Y-147140643D01*
X107600452Y-147338627D01*
X107600451Y-147338634D01*
X107599770Y-147342122D01*
X107599500Y-147347643D01*
X107599500Y-148402469D01*
X107260500Y-148402469D01*
X107260500Y-147397531D01*
X107245561Y-147240954D01*
X107186447Y-147039451D01*
X107123315Y-146916874D01*
X107092452Y-146856949D01*
X107090295Y-146852761D01*
X106960576Y-146687621D01*
X106814304Y-146560692D01*
X106805531Y-146553079D01*
X106805530Y-146553078D01*
X106801971Y-146549990D01*
X106620201Y-146444834D01*
X106546198Y-146419136D01*
X106426273Y-146377491D01*
X106426271Y-146377490D01*
X106421826Y-146375947D01*
X106392039Y-146371628D01*
X106218674Y-146346491D01*
X106218673Y-146346491D01*
X106214004Y-146345814D01*
X106209293Y-146346032D01*
X106209292Y-146346032D01*
X106008941Y-146355305D01*
X106008940Y-146355305D01*
X106004233Y-146355523D01*
X105946520Y-146369432D01*
X105804665Y-146403619D01*
X105804660Y-146403621D01*
X105800082Y-146404724D01*
X105795794Y-146406674D01*
X105795793Y-146406674D01*
X105782832Y-146412567D01*
X105608919Y-146491640D01*
X105437640Y-146613137D01*
X105368963Y-146684878D01*
X105295683Y-146761427D01*
X105295680Y-146761431D01*
X105292425Y-146764831D01*
X105178515Y-146941246D01*
X105100019Y-147136019D01*
X105099116Y-147140643D01*
X105060452Y-147338627D01*
X105060451Y-147338634D01*
X105059770Y-147342122D01*
X105059500Y-147347643D01*
X105059500Y-148402469D01*
X104720500Y-148402469D01*
X104720500Y-147397531D01*
X104705561Y-147240954D01*
X104646447Y-147039451D01*
X104583315Y-146916874D01*
X104552452Y-146856949D01*
X104550295Y-146852761D01*
X104420576Y-146687621D01*
X104274304Y-146560692D01*
X104265531Y-146553079D01*
X104265530Y-146553078D01*
X104261971Y-146549990D01*
X104080201Y-146444834D01*
X104006198Y-146419136D01*
X103886273Y-146377491D01*
X103886271Y-146377490D01*
X103881826Y-146375947D01*
X103852039Y-146371628D01*
X103678674Y-146346491D01*
X103678673Y-146346491D01*
X103674004Y-146345814D01*
X103669293Y-146346032D01*
X103669292Y-146346032D01*
X103468941Y-146355305D01*
X103468940Y-146355305D01*
X103464233Y-146355523D01*
X103406520Y-146369432D01*
X103264665Y-146403619D01*
X103264660Y-146403621D01*
X103260082Y-146404724D01*
X103255794Y-146406674D01*
X103255793Y-146406674D01*
X103242832Y-146412567D01*
X103068919Y-146491640D01*
X102897640Y-146613137D01*
X102828963Y-146684878D01*
X102755683Y-146761427D01*
X102755680Y-146761431D01*
X102752425Y-146764831D01*
X102638515Y-146941246D01*
X102560019Y-147136019D01*
X102559116Y-147140643D01*
X102520452Y-147338627D01*
X102520451Y-147338634D01*
X102519770Y-147342122D01*
X102519500Y-147347643D01*
X102519500Y-148402469D01*
X102180500Y-148402469D01*
X102180500Y-147397531D01*
X102165561Y-147240954D01*
X102106447Y-147039451D01*
X102043315Y-146916874D01*
X102012452Y-146856949D01*
X102010295Y-146852761D01*
X101880576Y-146687621D01*
X101734304Y-146560692D01*
X101725531Y-146553079D01*
X101725530Y-146553078D01*
X101721971Y-146549990D01*
X101540201Y-146444834D01*
X101466198Y-146419136D01*
X101346273Y-146377491D01*
X101346271Y-146377490D01*
X101341826Y-146375947D01*
X101312039Y-146371628D01*
X101138674Y-146346491D01*
X101138673Y-146346491D01*
X101134004Y-146345814D01*
X101129293Y-146346032D01*
X101129292Y-146346032D01*
X100928941Y-146355305D01*
X100928940Y-146355305D01*
X100924233Y-146355523D01*
X100866520Y-146369432D01*
X100724665Y-146403619D01*
X100724660Y-146403621D01*
X100720082Y-146404724D01*
X100715794Y-146406674D01*
X100715793Y-146406674D01*
X100702832Y-146412567D01*
X100528919Y-146491640D01*
X100357640Y-146613137D01*
X100288963Y-146684878D01*
X100215683Y-146761427D01*
X100215680Y-146761431D01*
X100212425Y-146764831D01*
X100098515Y-146941246D01*
X100020019Y-147136019D01*
X100019116Y-147140643D01*
X99980452Y-147338627D01*
X99980451Y-147338634D01*
X99979770Y-147342122D01*
X99979500Y-147347643D01*
X99979500Y-148402469D01*
X99640500Y-148402469D01*
X99640500Y-147397531D01*
X99625561Y-147240954D01*
X99566447Y-147039451D01*
X99503315Y-146916874D01*
X99472452Y-146856949D01*
X99470295Y-146852761D01*
X99340576Y-146687621D01*
X99194304Y-146560692D01*
X99185531Y-146553079D01*
X99185530Y-146553078D01*
X99181971Y-146549990D01*
X99000201Y-146444834D01*
X98926198Y-146419136D01*
X98806273Y-146377491D01*
X98806271Y-146377490D01*
X98801826Y-146375947D01*
X98772039Y-146371628D01*
X98598674Y-146346491D01*
X98598673Y-146346491D01*
X98594004Y-146345814D01*
X98589293Y-146346032D01*
X98589292Y-146346032D01*
X98388941Y-146355305D01*
X98388940Y-146355305D01*
X98384233Y-146355523D01*
X98326520Y-146369432D01*
X98184665Y-146403619D01*
X98184660Y-146403621D01*
X98180082Y-146404724D01*
X98175794Y-146406674D01*
X98175793Y-146406674D01*
X98162832Y-146412567D01*
X97988919Y-146491640D01*
X97817640Y-146613137D01*
X97748963Y-146684878D01*
X97675683Y-146761427D01*
X97675680Y-146761431D01*
X97672425Y-146764831D01*
X97558515Y-146941246D01*
X97480019Y-147136019D01*
X97479116Y-147140643D01*
X97440452Y-147338627D01*
X97440451Y-147338634D01*
X97439770Y-147342122D01*
X97439500Y-147347643D01*
X97439500Y-148402469D01*
X97100500Y-148402469D01*
X97100500Y-147397531D01*
X97085561Y-147240954D01*
X97026447Y-147039451D01*
X96963315Y-146916874D01*
X96932452Y-146856949D01*
X96930295Y-146852761D01*
X96800576Y-146687621D01*
X96654304Y-146560692D01*
X96645531Y-146553079D01*
X96645530Y-146553078D01*
X96641971Y-146549990D01*
X96460201Y-146444834D01*
X96386198Y-146419136D01*
X96266273Y-146377491D01*
X96266271Y-146377490D01*
X96261826Y-146375947D01*
X96232039Y-146371628D01*
X96058674Y-146346491D01*
X96058673Y-146346491D01*
X96054004Y-146345814D01*
X96049293Y-146346032D01*
X96049292Y-146346032D01*
X95848941Y-146355305D01*
X95848940Y-146355305D01*
X95844233Y-146355523D01*
X95786520Y-146369432D01*
X95644665Y-146403619D01*
X95644660Y-146403621D01*
X95640082Y-146404724D01*
X95635794Y-146406674D01*
X95635793Y-146406674D01*
X95622832Y-146412567D01*
X95448919Y-146491640D01*
X95277640Y-146613137D01*
X95208963Y-146684878D01*
X95135683Y-146761427D01*
X95135680Y-146761431D01*
X95132425Y-146764831D01*
X95018515Y-146941246D01*
X94940019Y-147136019D01*
X94939116Y-147140643D01*
X94900452Y-147338627D01*
X94900451Y-147338634D01*
X94899770Y-147342122D01*
X94899500Y-147347643D01*
X94899500Y-148402469D01*
X94560500Y-148402469D01*
X94560500Y-147397531D01*
X94545561Y-147240954D01*
X94486447Y-147039451D01*
X94423315Y-146916874D01*
X94392452Y-146856949D01*
X94390295Y-146852761D01*
X94260576Y-146687621D01*
X94114304Y-146560692D01*
X94105531Y-146553079D01*
X94105530Y-146553078D01*
X94101971Y-146549990D01*
X93920201Y-146444834D01*
X93846198Y-146419136D01*
X93726273Y-146377491D01*
X93726271Y-146377490D01*
X93721826Y-146375947D01*
X93692039Y-146371628D01*
X93518674Y-146346491D01*
X93518673Y-146346491D01*
X93514004Y-146345814D01*
X93509293Y-146346032D01*
X93509292Y-146346032D01*
X93308941Y-146355305D01*
X93308940Y-146355305D01*
X93304233Y-146355523D01*
X93246520Y-146369432D01*
X93104665Y-146403619D01*
X93104660Y-146403621D01*
X93100082Y-146404724D01*
X93095794Y-146406674D01*
X93095793Y-146406674D01*
X93082832Y-146412567D01*
X92908919Y-146491640D01*
X92737640Y-146613137D01*
X92668963Y-146684878D01*
X92595683Y-146761427D01*
X92595680Y-146761431D01*
X92592425Y-146764831D01*
X92478515Y-146941246D01*
X92400019Y-147136019D01*
X92399116Y-147140643D01*
X92360452Y-147338627D01*
X92360451Y-147338634D01*
X92359770Y-147342122D01*
X92359500Y-147347643D01*
X92359500Y-148402469D01*
X92020500Y-148402469D01*
X92020500Y-147397531D01*
X92005561Y-147240954D01*
X91946447Y-147039451D01*
X91883315Y-146916874D01*
X91852452Y-146856949D01*
X91850295Y-146852761D01*
X91720576Y-146687621D01*
X91574304Y-146560692D01*
X91565531Y-146553079D01*
X91565530Y-146553078D01*
X91561971Y-146549990D01*
X91380201Y-146444834D01*
X91306198Y-146419136D01*
X91186273Y-146377491D01*
X91186271Y-146377490D01*
X91181826Y-146375947D01*
X91152039Y-146371628D01*
X90978674Y-146346491D01*
X90978673Y-146346491D01*
X90974004Y-146345814D01*
X90969293Y-146346032D01*
X90969292Y-146346032D01*
X90768941Y-146355305D01*
X90768940Y-146355305D01*
X90764233Y-146355523D01*
X90706520Y-146369432D01*
X90564665Y-146403619D01*
X90564660Y-146403621D01*
X90560082Y-146404724D01*
X90555794Y-146406674D01*
X90555793Y-146406674D01*
X90542832Y-146412567D01*
X90368919Y-146491640D01*
X90197640Y-146613137D01*
X90128963Y-146684878D01*
X90055683Y-146761427D01*
X90055680Y-146761431D01*
X90052425Y-146764831D01*
X89938515Y-146941246D01*
X89860019Y-147136019D01*
X89859116Y-147140643D01*
X89820452Y-147338627D01*
X89820451Y-147338634D01*
X89819770Y-147342122D01*
X89819500Y-147347643D01*
X89819500Y-148402469D01*
X89480500Y-148402469D01*
X89480500Y-147397531D01*
X89465561Y-147240954D01*
X89406447Y-147039451D01*
X89343315Y-146916874D01*
X89312452Y-146856949D01*
X89310295Y-146852761D01*
X89180576Y-146687621D01*
X89034304Y-146560692D01*
X89025531Y-146553079D01*
X89025530Y-146553078D01*
X89021971Y-146549990D01*
X88840201Y-146444834D01*
X88766198Y-146419136D01*
X88646273Y-146377491D01*
X88646271Y-146377490D01*
X88641826Y-146375947D01*
X88612039Y-146371628D01*
X88438674Y-146346491D01*
X88438673Y-146346491D01*
X88434004Y-146345814D01*
X88429293Y-146346032D01*
X88429292Y-146346032D01*
X88228941Y-146355305D01*
X88228940Y-146355305D01*
X88224233Y-146355523D01*
X88166520Y-146369432D01*
X88024665Y-146403619D01*
X88024660Y-146403621D01*
X88020082Y-146404724D01*
X88015794Y-146406674D01*
X88015793Y-146406674D01*
X88002832Y-146412567D01*
X87828919Y-146491640D01*
X87657640Y-146613137D01*
X87588963Y-146684878D01*
X87515683Y-146761427D01*
X87515680Y-146761431D01*
X87512425Y-146764831D01*
X87398515Y-146941246D01*
X87320019Y-147136019D01*
X87319116Y-147140643D01*
X87280452Y-147338627D01*
X87280451Y-147338634D01*
X87279770Y-147342122D01*
X87279500Y-147347643D01*
X87279500Y-148402469D01*
X86940500Y-148402469D01*
X86940500Y-147397531D01*
X86925561Y-147240954D01*
X86866447Y-147039451D01*
X86803315Y-146916874D01*
X86772452Y-146856949D01*
X86770295Y-146852761D01*
X86640576Y-146687621D01*
X86494304Y-146560692D01*
X86485531Y-146553079D01*
X86485530Y-146553078D01*
X86481971Y-146549990D01*
X86300201Y-146444834D01*
X86226198Y-146419136D01*
X86106273Y-146377491D01*
X86106271Y-146377490D01*
X86101826Y-146375947D01*
X86072039Y-146371628D01*
X85898674Y-146346491D01*
X85898673Y-146346491D01*
X85894004Y-146345814D01*
X85889293Y-146346032D01*
X85889292Y-146346032D01*
X85688941Y-146355305D01*
X85688940Y-146355305D01*
X85684233Y-146355523D01*
X85626520Y-146369432D01*
X85484665Y-146403619D01*
X85484660Y-146403621D01*
X85480082Y-146404724D01*
X85475794Y-146406674D01*
X85475793Y-146406674D01*
X85462832Y-146412567D01*
X85288919Y-146491640D01*
X85117640Y-146613137D01*
X85048963Y-146684878D01*
X84975683Y-146761427D01*
X84975680Y-146761431D01*
X84972425Y-146764831D01*
X84858515Y-146941246D01*
X84780019Y-147136019D01*
X84779116Y-147140643D01*
X84740452Y-147338627D01*
X84740451Y-147338634D01*
X84739770Y-147342122D01*
X84739500Y-147347643D01*
X84739500Y-148402469D01*
X84400500Y-148402469D01*
X84400500Y-147397531D01*
X84385561Y-147240954D01*
X84326447Y-147039451D01*
X84263315Y-146916874D01*
X84232452Y-146856949D01*
X84230295Y-146852761D01*
X84100576Y-146687621D01*
X83954304Y-146560692D01*
X83945531Y-146553079D01*
X83945530Y-146553078D01*
X83941971Y-146549990D01*
X83760201Y-146444834D01*
X83686198Y-146419136D01*
X83566273Y-146377491D01*
X83566271Y-146377490D01*
X83561826Y-146375947D01*
X83532039Y-146371628D01*
X83358674Y-146346491D01*
X83358673Y-146346491D01*
X83354004Y-146345814D01*
X83349293Y-146346032D01*
X83349292Y-146346032D01*
X83148941Y-146355305D01*
X83148940Y-146355305D01*
X83144233Y-146355523D01*
X83086520Y-146369432D01*
X82944665Y-146403619D01*
X82944660Y-146403621D01*
X82940082Y-146404724D01*
X82935794Y-146406674D01*
X82935793Y-146406674D01*
X82922832Y-146412567D01*
X82748919Y-146491640D01*
X82577640Y-146613137D01*
X82508963Y-146684878D01*
X82435683Y-146761427D01*
X82435680Y-146761431D01*
X82432425Y-146764831D01*
X82318515Y-146941246D01*
X82240019Y-147136019D01*
X82239116Y-147140643D01*
X82200452Y-147338627D01*
X82200451Y-147338634D01*
X82199770Y-147342122D01*
X82199500Y-147347643D01*
X82199500Y-148402469D01*
X81860500Y-148402469D01*
X81860500Y-147397531D01*
X81845561Y-147240954D01*
X81786447Y-147039451D01*
X81723315Y-146916874D01*
X81692452Y-146856949D01*
X81690295Y-146852761D01*
X81560576Y-146687621D01*
X81414304Y-146560692D01*
X81405531Y-146553079D01*
X81405530Y-146553078D01*
X81401971Y-146549990D01*
X81220201Y-146444834D01*
X81146198Y-146419136D01*
X81026273Y-146377491D01*
X81026271Y-146377490D01*
X81021826Y-146375947D01*
X80992039Y-146371628D01*
X80818674Y-146346491D01*
X80818673Y-146346491D01*
X80814004Y-146345814D01*
X80809293Y-146346032D01*
X80809292Y-146346032D01*
X80608941Y-146355305D01*
X80608940Y-146355305D01*
X80604233Y-146355523D01*
X80546520Y-146369432D01*
X80404665Y-146403619D01*
X80404660Y-146403621D01*
X80400082Y-146404724D01*
X80395794Y-146406674D01*
X80395793Y-146406674D01*
X80382832Y-146412567D01*
X80208919Y-146491640D01*
X80037640Y-146613137D01*
X79968963Y-146684878D01*
X79895683Y-146761427D01*
X79895680Y-146761431D01*
X79892425Y-146764831D01*
X79778515Y-146941246D01*
X79700019Y-147136019D01*
X79699116Y-147140643D01*
X79660452Y-147338627D01*
X79660451Y-147338634D01*
X79659770Y-147342122D01*
X79659500Y-147347643D01*
X79659500Y-148402469D01*
X79320500Y-148402469D01*
X79320500Y-147397531D01*
X79305561Y-147240954D01*
X79246447Y-147039451D01*
X79183315Y-146916874D01*
X79152452Y-146856949D01*
X79150295Y-146852761D01*
X79020576Y-146687621D01*
X78874304Y-146560692D01*
X78865531Y-146553079D01*
X78865530Y-146553078D01*
X78861971Y-146549990D01*
X78680201Y-146444834D01*
X78606198Y-146419136D01*
X78486273Y-146377491D01*
X78486271Y-146377490D01*
X78481826Y-146375947D01*
X78452039Y-146371628D01*
X78278674Y-146346491D01*
X78278673Y-146346491D01*
X78274004Y-146345814D01*
X78269293Y-146346032D01*
X78269292Y-146346032D01*
X78068941Y-146355305D01*
X78068940Y-146355305D01*
X78064233Y-146355523D01*
X78006520Y-146369432D01*
X77864665Y-146403619D01*
X77864660Y-146403621D01*
X77860082Y-146404724D01*
X77855794Y-146406674D01*
X77855793Y-146406674D01*
X77842832Y-146412567D01*
X77668919Y-146491640D01*
X77497640Y-146613137D01*
X77428963Y-146684878D01*
X77355683Y-146761427D01*
X77355680Y-146761431D01*
X77352425Y-146764831D01*
X77238515Y-146941246D01*
X77160019Y-147136019D01*
X77159116Y-147140643D01*
X77120452Y-147338627D01*
X77120451Y-147338634D01*
X77119770Y-147342122D01*
X77119500Y-147347643D01*
X77119500Y-148402469D01*
X76780500Y-148402469D01*
X76780500Y-147397531D01*
X76765561Y-147240954D01*
X76706447Y-147039451D01*
X76643315Y-146916874D01*
X76612452Y-146856949D01*
X76610295Y-146852761D01*
X76480576Y-146687621D01*
X76334304Y-146560692D01*
X76325531Y-146553079D01*
X76325530Y-146553078D01*
X76321971Y-146549990D01*
X76140201Y-146444834D01*
X76066198Y-146419136D01*
X75946273Y-146377491D01*
X75946271Y-146377490D01*
X75941826Y-146375947D01*
X75912039Y-146371628D01*
X75738674Y-146346491D01*
X75738673Y-146346491D01*
X75734004Y-146345814D01*
X75729293Y-146346032D01*
X75729292Y-146346032D01*
X75528941Y-146355305D01*
X75528940Y-146355305D01*
X75524233Y-146355523D01*
X75466520Y-146369432D01*
X75324665Y-146403619D01*
X75324660Y-146403621D01*
X75320082Y-146404724D01*
X75315794Y-146406674D01*
X75315793Y-146406674D01*
X75302832Y-146412567D01*
X75128919Y-146491640D01*
X74957640Y-146613137D01*
X74888963Y-146684878D01*
X74815683Y-146761427D01*
X74815680Y-146761431D01*
X74812425Y-146764831D01*
X74698515Y-146941246D01*
X74620019Y-147136019D01*
X74619116Y-147140643D01*
X74580452Y-147338627D01*
X74580451Y-147338634D01*
X74579770Y-147342122D01*
X74579500Y-147347643D01*
X74579500Y-148402469D01*
X74240500Y-148402469D01*
X74240500Y-147397531D01*
X74225561Y-147240954D01*
X74166447Y-147039451D01*
X74103315Y-146916874D01*
X74072452Y-146856949D01*
X74070295Y-146852761D01*
X73940576Y-146687621D01*
X73794304Y-146560692D01*
X73785531Y-146553079D01*
X73785530Y-146553078D01*
X73781971Y-146549990D01*
X73600201Y-146444834D01*
X73526198Y-146419136D01*
X73406273Y-146377491D01*
X73406271Y-146377490D01*
X73401826Y-146375947D01*
X73372039Y-146371628D01*
X73198674Y-146346491D01*
X73198673Y-146346491D01*
X73194004Y-146345814D01*
X73189293Y-146346032D01*
X73189292Y-146346032D01*
X72988941Y-146355305D01*
X72988940Y-146355305D01*
X72984233Y-146355523D01*
X72926520Y-146369432D01*
X72784665Y-146403619D01*
X72784660Y-146403621D01*
X72780082Y-146404724D01*
X72775794Y-146406674D01*
X72775793Y-146406674D01*
X72762832Y-146412567D01*
X72588919Y-146491640D01*
X72417640Y-146613137D01*
X72348963Y-146684878D01*
X72275683Y-146761427D01*
X72275680Y-146761431D01*
X72272425Y-146764831D01*
X72158515Y-146941246D01*
X72080019Y-147136019D01*
X72079116Y-147140643D01*
X72040452Y-147338627D01*
X72040451Y-147338634D01*
X72039770Y-147342122D01*
X72039500Y-147347643D01*
X72039500Y-148402469D01*
X71700500Y-148402469D01*
X71700500Y-147397531D01*
X71685561Y-147240954D01*
X71626447Y-147039451D01*
X71563315Y-146916874D01*
X71532452Y-146856949D01*
X71530295Y-146852761D01*
X71400576Y-146687621D01*
X71254304Y-146560692D01*
X71245531Y-146553079D01*
X71245530Y-146553078D01*
X71241971Y-146549990D01*
X71060201Y-146444834D01*
X70986198Y-146419136D01*
X70866273Y-146377491D01*
X70866271Y-146377490D01*
X70861826Y-146375947D01*
X70832039Y-146371628D01*
X70658674Y-146346491D01*
X70658673Y-146346491D01*
X70654004Y-146345814D01*
X70649293Y-146346032D01*
X70649292Y-146346032D01*
X70448941Y-146355305D01*
X70448940Y-146355305D01*
X70444233Y-146355523D01*
X70386520Y-146369432D01*
X70244665Y-146403619D01*
X70244660Y-146403621D01*
X70240082Y-146404724D01*
X70235794Y-146406674D01*
X70235793Y-146406674D01*
X70222832Y-146412567D01*
X70048919Y-146491640D01*
X69877640Y-146613137D01*
X69808963Y-146684878D01*
X69735683Y-146761427D01*
X69735680Y-146761431D01*
X69732425Y-146764831D01*
X69618515Y-146941246D01*
X69540019Y-147136019D01*
X69539116Y-147140643D01*
X69500452Y-147338627D01*
X69500451Y-147338634D01*
X69499770Y-147342122D01*
X69499500Y-147347643D01*
X69499500Y-148402469D01*
X69160500Y-148402469D01*
X69160500Y-147397531D01*
X69145561Y-147240954D01*
X69086447Y-147039451D01*
X69023315Y-146916874D01*
X68992452Y-146856949D01*
X68990295Y-146852761D01*
X68860576Y-146687621D01*
X68714304Y-146560692D01*
X68705531Y-146553079D01*
X68705530Y-146553078D01*
X68701971Y-146549990D01*
X68520201Y-146444834D01*
X68446198Y-146419136D01*
X68326273Y-146377491D01*
X68326271Y-146377490D01*
X68321826Y-146375947D01*
X68292039Y-146371628D01*
X68118674Y-146346491D01*
X68118673Y-146346491D01*
X68114004Y-146345814D01*
X68109293Y-146346032D01*
X68109292Y-146346032D01*
X67908941Y-146355305D01*
X67908940Y-146355305D01*
X67904233Y-146355523D01*
X67846520Y-146369432D01*
X67704665Y-146403619D01*
X67704660Y-146403621D01*
X67700082Y-146404724D01*
X67695794Y-146406674D01*
X67695793Y-146406674D01*
X67682832Y-146412567D01*
X67508919Y-146491640D01*
X67337640Y-146613137D01*
X67268963Y-146684878D01*
X67195683Y-146761427D01*
X67195680Y-146761431D01*
X67192425Y-146764831D01*
X67078515Y-146941246D01*
X67000019Y-147136019D01*
X66999116Y-147140643D01*
X66960452Y-147338627D01*
X66960451Y-147338634D01*
X66959770Y-147342122D01*
X66959500Y-147347643D01*
X66959500Y-148402469D01*
X66620500Y-148402469D01*
X66620500Y-147397531D01*
X66605561Y-147240954D01*
X66546447Y-147039451D01*
X66483315Y-146916874D01*
X66452452Y-146856949D01*
X66450295Y-146852761D01*
X66320576Y-146687621D01*
X66174304Y-146560692D01*
X66165531Y-146553079D01*
X66165530Y-146553078D01*
X66161971Y-146549990D01*
X65980201Y-146444834D01*
X65906198Y-146419136D01*
X65786273Y-146377491D01*
X65786271Y-146377490D01*
X65781826Y-146375947D01*
X65752039Y-146371628D01*
X65578674Y-146346491D01*
X65578673Y-146346491D01*
X65574004Y-146345814D01*
X65569293Y-146346032D01*
X65569292Y-146346032D01*
X65368941Y-146355305D01*
X65368940Y-146355305D01*
X65364233Y-146355523D01*
X65306520Y-146369432D01*
X65164665Y-146403619D01*
X65164660Y-146403621D01*
X65160082Y-146404724D01*
X65155794Y-146406674D01*
X65155793Y-146406674D01*
X65142832Y-146412567D01*
X64968919Y-146491640D01*
X64797640Y-146613137D01*
X64728963Y-146684878D01*
X64655683Y-146761427D01*
X64655680Y-146761431D01*
X64652425Y-146764831D01*
X64538515Y-146941246D01*
X64460019Y-147136019D01*
X64459116Y-147140643D01*
X64420452Y-147338627D01*
X64420451Y-147338634D01*
X64419770Y-147342122D01*
X64419500Y-147347643D01*
X64419500Y-148402469D01*
X64080500Y-148402469D01*
X64080500Y-147397531D01*
X64065561Y-147240954D01*
X64006447Y-147039451D01*
X63943315Y-146916874D01*
X63912452Y-146856949D01*
X63910295Y-146852761D01*
X63780576Y-146687621D01*
X63634304Y-146560692D01*
X63625531Y-146553079D01*
X63625530Y-146553078D01*
X63621971Y-146549990D01*
X63440201Y-146444834D01*
X63366198Y-146419136D01*
X63246273Y-146377491D01*
X63246271Y-146377490D01*
X63241826Y-146375947D01*
X63212039Y-146371628D01*
X63038674Y-146346491D01*
X63038673Y-146346491D01*
X63034004Y-146345814D01*
X63029293Y-146346032D01*
X63029292Y-146346032D01*
X62828941Y-146355305D01*
X62828940Y-146355305D01*
X62824233Y-146355523D01*
X62766520Y-146369432D01*
X62624665Y-146403619D01*
X62624660Y-146403621D01*
X62620082Y-146404724D01*
X62615794Y-146406674D01*
X62615793Y-146406674D01*
X62437242Y-146487856D01*
X62376444Y-146494729D01*
X62326262Y-146467738D01*
X61879496Y-146020972D01*
X61851719Y-145966455D01*
X61850500Y-145950968D01*
X61850500Y-123568897D01*
X61869407Y-123510706D01*
X61918907Y-123474742D01*
X61980093Y-123474742D01*
X62029593Y-123510706D01*
X62037513Y-123523567D01*
X62049705Y-123547239D01*
X62179424Y-123712379D01*
X62338029Y-123850010D01*
X62519799Y-123955166D01*
X62524244Y-123956710D01*
X62524245Y-123956710D01*
X62713727Y-124022509D01*
X62713729Y-124022510D01*
X62718174Y-124024053D01*
X62722836Y-124024729D01*
X62921326Y-124053509D01*
X62921327Y-124053509D01*
X62925996Y-124054186D01*
X62930707Y-124053968D01*
X62930708Y-124053968D01*
X63131059Y-124044695D01*
X63131060Y-124044695D01*
X63135767Y-124044477D01*
X63220513Y-124024053D01*
X63335335Y-123996381D01*
X63335340Y-123996379D01*
X63339918Y-123995276D01*
X63531081Y-123908360D01*
X63702360Y-123786863D01*
X63777306Y-123708573D01*
X63844317Y-123638573D01*
X63844320Y-123638569D01*
X63847575Y-123635169D01*
X63961485Y-123458754D01*
X64039981Y-123263981D01*
X64059591Y-123163565D01*
X64079548Y-123061373D01*
X64079549Y-123061366D01*
X64080230Y-123057878D01*
X64080500Y-123052357D01*
X64080500Y-123002469D01*
X64419500Y-123002469D01*
X64434439Y-123159046D01*
X64493553Y-123360549D01*
X64589705Y-123547239D01*
X64719424Y-123712379D01*
X64878029Y-123850010D01*
X65059799Y-123955166D01*
X65064244Y-123956710D01*
X65064245Y-123956710D01*
X65253727Y-124022509D01*
X65253729Y-124022510D01*
X65258174Y-124024053D01*
X65262836Y-124024729D01*
X65461326Y-124053509D01*
X65461327Y-124053509D01*
X65465996Y-124054186D01*
X65470707Y-124053968D01*
X65470708Y-124053968D01*
X65671059Y-124044695D01*
X65671060Y-124044695D01*
X65675767Y-124044477D01*
X65760513Y-124024053D01*
X65875335Y-123996381D01*
X65875340Y-123996379D01*
X65879918Y-123995276D01*
X66071081Y-123908360D01*
X66242360Y-123786863D01*
X66317306Y-123708573D01*
X66384317Y-123638573D01*
X66384320Y-123638569D01*
X66387575Y-123635169D01*
X66501485Y-123458754D01*
X66579981Y-123263981D01*
X66599591Y-123163565D01*
X66619548Y-123061373D01*
X66619549Y-123061366D01*
X66620230Y-123057878D01*
X66620500Y-123052357D01*
X66620500Y-123002469D01*
X66959500Y-123002469D01*
X66974439Y-123159046D01*
X67033553Y-123360549D01*
X67129705Y-123547239D01*
X67259424Y-123712379D01*
X67418029Y-123850010D01*
X67599799Y-123955166D01*
X67604244Y-123956710D01*
X67604245Y-123956710D01*
X67793727Y-124022509D01*
X67793729Y-124022510D01*
X67798174Y-124024053D01*
X67802836Y-124024729D01*
X68001326Y-124053509D01*
X68001327Y-124053509D01*
X68005996Y-124054186D01*
X68010707Y-124053968D01*
X68010708Y-124053968D01*
X68211059Y-124044695D01*
X68211060Y-124044695D01*
X68215767Y-124044477D01*
X68300513Y-124024053D01*
X68415335Y-123996381D01*
X68415340Y-123996379D01*
X68419918Y-123995276D01*
X68611081Y-123908360D01*
X68782360Y-123786863D01*
X68857306Y-123708573D01*
X68924317Y-123638573D01*
X68924320Y-123638569D01*
X68927575Y-123635169D01*
X69041485Y-123458754D01*
X69119981Y-123263981D01*
X69139591Y-123163565D01*
X69159548Y-123061373D01*
X69159549Y-123061366D01*
X69160230Y-123057878D01*
X69160500Y-123052357D01*
X69160500Y-123002469D01*
X69499500Y-123002469D01*
X69514439Y-123159046D01*
X69573553Y-123360549D01*
X69669705Y-123547239D01*
X69799424Y-123712379D01*
X69958029Y-123850010D01*
X70139799Y-123955166D01*
X70144244Y-123956710D01*
X70144245Y-123956710D01*
X70333727Y-124022509D01*
X70333729Y-124022510D01*
X70338174Y-124024053D01*
X70342836Y-124024729D01*
X70541326Y-124053509D01*
X70541327Y-124053509D01*
X70545996Y-124054186D01*
X70550707Y-124053968D01*
X70550708Y-124053968D01*
X70751059Y-124044695D01*
X70751060Y-124044695D01*
X70755767Y-124044477D01*
X70840513Y-124024053D01*
X70955335Y-123996381D01*
X70955340Y-123996379D01*
X70959918Y-123995276D01*
X71151081Y-123908360D01*
X71322360Y-123786863D01*
X71397306Y-123708573D01*
X71464317Y-123638573D01*
X71464320Y-123638569D01*
X71467575Y-123635169D01*
X71581485Y-123458754D01*
X71659981Y-123263981D01*
X71679591Y-123163565D01*
X71699548Y-123061373D01*
X71699549Y-123061366D01*
X71700230Y-123057878D01*
X71700500Y-123052357D01*
X71700500Y-123002469D01*
X72039500Y-123002469D01*
X72054439Y-123159046D01*
X72113553Y-123360549D01*
X72209705Y-123547239D01*
X72339424Y-123712379D01*
X72498029Y-123850010D01*
X72679799Y-123955166D01*
X72684244Y-123956710D01*
X72684245Y-123956710D01*
X72873727Y-124022509D01*
X72873729Y-124022510D01*
X72878174Y-124024053D01*
X72882836Y-124024729D01*
X73081326Y-124053509D01*
X73081327Y-124053509D01*
X73085996Y-124054186D01*
X73090707Y-124053968D01*
X73090708Y-124053968D01*
X73291059Y-124044695D01*
X73291060Y-124044695D01*
X73295767Y-124044477D01*
X73380513Y-124024053D01*
X73495335Y-123996381D01*
X73495340Y-123996379D01*
X73499918Y-123995276D01*
X73691081Y-123908360D01*
X73862360Y-123786863D01*
X73937306Y-123708573D01*
X74004317Y-123638573D01*
X74004320Y-123638569D01*
X74007575Y-123635169D01*
X74121485Y-123458754D01*
X74199981Y-123263981D01*
X74219591Y-123163565D01*
X74239548Y-123061373D01*
X74239549Y-123061366D01*
X74240230Y-123057878D01*
X74240500Y-123052357D01*
X74240500Y-123002469D01*
X74579500Y-123002469D01*
X74594439Y-123159046D01*
X74653553Y-123360549D01*
X74749705Y-123547239D01*
X74879424Y-123712379D01*
X75038029Y-123850010D01*
X75219799Y-123955166D01*
X75224244Y-123956710D01*
X75224245Y-123956710D01*
X75413727Y-124022509D01*
X75413729Y-124022510D01*
X75418174Y-124024053D01*
X75422836Y-124024729D01*
X75621326Y-124053509D01*
X75621327Y-124053509D01*
X75625996Y-124054186D01*
X75630707Y-124053968D01*
X75630708Y-124053968D01*
X75831059Y-124044695D01*
X75831060Y-124044695D01*
X75835767Y-124044477D01*
X75920513Y-124024053D01*
X76035335Y-123996381D01*
X76035340Y-123996379D01*
X76039918Y-123995276D01*
X76231081Y-123908360D01*
X76402360Y-123786863D01*
X76477306Y-123708573D01*
X76544317Y-123638573D01*
X76544320Y-123638569D01*
X76547575Y-123635169D01*
X76661485Y-123458754D01*
X76739981Y-123263981D01*
X76759591Y-123163565D01*
X76779548Y-123061373D01*
X76779549Y-123061366D01*
X76780230Y-123057878D01*
X76780500Y-123052357D01*
X76780500Y-123002469D01*
X77119500Y-123002469D01*
X77134439Y-123159046D01*
X77193553Y-123360549D01*
X77289705Y-123547239D01*
X77419424Y-123712379D01*
X77578029Y-123850010D01*
X77759799Y-123955166D01*
X77764244Y-123956710D01*
X77764245Y-123956710D01*
X77953727Y-124022509D01*
X77953729Y-124022510D01*
X77958174Y-124024053D01*
X77962836Y-124024729D01*
X78161326Y-124053509D01*
X78161327Y-124053509D01*
X78165996Y-124054186D01*
X78170707Y-124053968D01*
X78170708Y-124053968D01*
X78371059Y-124044695D01*
X78371060Y-124044695D01*
X78375767Y-124044477D01*
X78460513Y-124024053D01*
X78575335Y-123996381D01*
X78575340Y-123996379D01*
X78579918Y-123995276D01*
X78771081Y-123908360D01*
X78942360Y-123786863D01*
X79017306Y-123708573D01*
X79084317Y-123638573D01*
X79084320Y-123638569D01*
X79087575Y-123635169D01*
X79201485Y-123458754D01*
X79279981Y-123263981D01*
X79299591Y-123163565D01*
X79319548Y-123061373D01*
X79319549Y-123061366D01*
X79320230Y-123057878D01*
X79320500Y-123052357D01*
X79320500Y-123002469D01*
X79659500Y-123002469D01*
X79674439Y-123159046D01*
X79733553Y-123360549D01*
X79829705Y-123547239D01*
X79959424Y-123712379D01*
X80118029Y-123850010D01*
X80299799Y-123955166D01*
X80304244Y-123956710D01*
X80304245Y-123956710D01*
X80493727Y-124022509D01*
X80493729Y-124022510D01*
X80498174Y-124024053D01*
X80502836Y-124024729D01*
X80701326Y-124053509D01*
X80701327Y-124053509D01*
X80705996Y-124054186D01*
X80710707Y-124053968D01*
X80710708Y-124053968D01*
X80911059Y-124044695D01*
X80911060Y-124044695D01*
X80915767Y-124044477D01*
X81000513Y-124024053D01*
X81115335Y-123996381D01*
X81115340Y-123996379D01*
X81119918Y-123995276D01*
X81311081Y-123908360D01*
X81482360Y-123786863D01*
X81557306Y-123708573D01*
X81624317Y-123638573D01*
X81624320Y-123638569D01*
X81627575Y-123635169D01*
X81741485Y-123458754D01*
X81819981Y-123263981D01*
X81839591Y-123163565D01*
X81859548Y-123061373D01*
X81859549Y-123061366D01*
X81860230Y-123057878D01*
X81860500Y-123052357D01*
X81860500Y-123002469D01*
X82199500Y-123002469D01*
X82214439Y-123159046D01*
X82273553Y-123360549D01*
X82369705Y-123547239D01*
X82499424Y-123712379D01*
X82658029Y-123850010D01*
X82839799Y-123955166D01*
X82844244Y-123956710D01*
X82844245Y-123956710D01*
X83033727Y-124022509D01*
X83033729Y-124022510D01*
X83038174Y-124024053D01*
X83042836Y-124024729D01*
X83241326Y-124053509D01*
X83241327Y-124053509D01*
X83245996Y-124054186D01*
X83250707Y-124053968D01*
X83250708Y-124053968D01*
X83451059Y-124044695D01*
X83451060Y-124044695D01*
X83455767Y-124044477D01*
X83540513Y-124024053D01*
X83655335Y-123996381D01*
X83655340Y-123996379D01*
X83659918Y-123995276D01*
X83851081Y-123908360D01*
X84022360Y-123786863D01*
X84097306Y-123708573D01*
X84164317Y-123638573D01*
X84164320Y-123638569D01*
X84167575Y-123635169D01*
X84281485Y-123458754D01*
X84359981Y-123263981D01*
X84379591Y-123163565D01*
X84399548Y-123061373D01*
X84399549Y-123061366D01*
X84400230Y-123057878D01*
X84400500Y-123052357D01*
X84400500Y-123002469D01*
X84739500Y-123002469D01*
X84754439Y-123159046D01*
X84813553Y-123360549D01*
X84909705Y-123547239D01*
X85039424Y-123712379D01*
X85198029Y-123850010D01*
X85379799Y-123955166D01*
X85384244Y-123956710D01*
X85384245Y-123956710D01*
X85573727Y-124022509D01*
X85573729Y-124022510D01*
X85578174Y-124024053D01*
X85582836Y-124024729D01*
X85781326Y-124053509D01*
X85781327Y-124053509D01*
X85785996Y-124054186D01*
X85790707Y-124053968D01*
X85790708Y-124053968D01*
X85991059Y-124044695D01*
X85991060Y-124044695D01*
X85995767Y-124044477D01*
X86080513Y-124024053D01*
X86195335Y-123996381D01*
X86195340Y-123996379D01*
X86199918Y-123995276D01*
X86391081Y-123908360D01*
X86562360Y-123786863D01*
X86637306Y-123708573D01*
X86704317Y-123638573D01*
X86704320Y-123638569D01*
X86707575Y-123635169D01*
X86821485Y-123458754D01*
X86899981Y-123263981D01*
X86919591Y-123163565D01*
X86939548Y-123061373D01*
X86939549Y-123061366D01*
X86940230Y-123057878D01*
X86940500Y-123052357D01*
X86940500Y-123002469D01*
X87279500Y-123002469D01*
X87294439Y-123159046D01*
X87353553Y-123360549D01*
X87449705Y-123547239D01*
X87579424Y-123712379D01*
X87738029Y-123850010D01*
X87919799Y-123955166D01*
X87924244Y-123956710D01*
X87924245Y-123956710D01*
X88113727Y-124022509D01*
X88113729Y-124022510D01*
X88118174Y-124024053D01*
X88122836Y-124024729D01*
X88321326Y-124053509D01*
X88321327Y-124053509D01*
X88325996Y-124054186D01*
X88330707Y-124053968D01*
X88330708Y-124053968D01*
X88531059Y-124044695D01*
X88531060Y-124044695D01*
X88535767Y-124044477D01*
X88620513Y-124024053D01*
X88735335Y-123996381D01*
X88735340Y-123996379D01*
X88739918Y-123995276D01*
X88931081Y-123908360D01*
X89102360Y-123786863D01*
X89177306Y-123708573D01*
X89244317Y-123638573D01*
X89244320Y-123638569D01*
X89247575Y-123635169D01*
X89361485Y-123458754D01*
X89439981Y-123263981D01*
X89459591Y-123163565D01*
X89479548Y-123061373D01*
X89479549Y-123061366D01*
X89480230Y-123057878D01*
X89480500Y-123052357D01*
X89480500Y-123002469D01*
X89819500Y-123002469D01*
X89834439Y-123159046D01*
X89893553Y-123360549D01*
X89989705Y-123547239D01*
X90119424Y-123712379D01*
X90278029Y-123850010D01*
X90459799Y-123955166D01*
X90464244Y-123956710D01*
X90464245Y-123956710D01*
X90653727Y-124022509D01*
X90653729Y-124022510D01*
X90658174Y-124024053D01*
X90662836Y-124024729D01*
X90861326Y-124053509D01*
X90861327Y-124053509D01*
X90865996Y-124054186D01*
X90870707Y-124053968D01*
X90870708Y-124053968D01*
X91071059Y-124044695D01*
X91071060Y-124044695D01*
X91075767Y-124044477D01*
X91160513Y-124024053D01*
X91275335Y-123996381D01*
X91275340Y-123996379D01*
X91279918Y-123995276D01*
X91471081Y-123908360D01*
X91642360Y-123786863D01*
X91717306Y-123708573D01*
X91784317Y-123638573D01*
X91784320Y-123638569D01*
X91787575Y-123635169D01*
X91901485Y-123458754D01*
X91979981Y-123263981D01*
X91999591Y-123163565D01*
X92019548Y-123061373D01*
X92019549Y-123061366D01*
X92020230Y-123057878D01*
X92020500Y-123052357D01*
X92020500Y-123002469D01*
X92359500Y-123002469D01*
X92374439Y-123159046D01*
X92433553Y-123360549D01*
X92529705Y-123547239D01*
X92659424Y-123712379D01*
X92818029Y-123850010D01*
X92999799Y-123955166D01*
X93004244Y-123956710D01*
X93004245Y-123956710D01*
X93193727Y-124022509D01*
X93193729Y-124022510D01*
X93198174Y-124024053D01*
X93202836Y-124024729D01*
X93401326Y-124053509D01*
X93401327Y-124053509D01*
X93405996Y-124054186D01*
X93410707Y-124053968D01*
X93410708Y-124053968D01*
X93611059Y-124044695D01*
X93611060Y-124044695D01*
X93615767Y-124044477D01*
X93700513Y-124024053D01*
X93815335Y-123996381D01*
X93815340Y-123996379D01*
X93819918Y-123995276D01*
X94011081Y-123908360D01*
X94182360Y-123786863D01*
X94257306Y-123708573D01*
X94324317Y-123638573D01*
X94324320Y-123638569D01*
X94327575Y-123635169D01*
X94441485Y-123458754D01*
X94519981Y-123263981D01*
X94539591Y-123163565D01*
X94559548Y-123061373D01*
X94559549Y-123061366D01*
X94560230Y-123057878D01*
X94560500Y-123052357D01*
X94560500Y-123002469D01*
X94899500Y-123002469D01*
X94914439Y-123159046D01*
X94973553Y-123360549D01*
X95069705Y-123547239D01*
X95199424Y-123712379D01*
X95358029Y-123850010D01*
X95539799Y-123955166D01*
X95544244Y-123956710D01*
X95544245Y-123956710D01*
X95733727Y-124022509D01*
X95733729Y-124022510D01*
X95738174Y-124024053D01*
X95742836Y-124024729D01*
X95941326Y-124053509D01*
X95941327Y-124053509D01*
X95945996Y-124054186D01*
X95950707Y-124053968D01*
X95950708Y-124053968D01*
X96151059Y-124044695D01*
X96151060Y-124044695D01*
X96155767Y-124044477D01*
X96240513Y-124024053D01*
X96355335Y-123996381D01*
X96355340Y-123996379D01*
X96359918Y-123995276D01*
X96551081Y-123908360D01*
X96722360Y-123786863D01*
X96797306Y-123708573D01*
X96864317Y-123638573D01*
X96864320Y-123638569D01*
X96867575Y-123635169D01*
X96981485Y-123458754D01*
X97059981Y-123263981D01*
X97079591Y-123163565D01*
X97099548Y-123061373D01*
X97099549Y-123061366D01*
X97100230Y-123057878D01*
X97100500Y-123052357D01*
X97100500Y-123002469D01*
X97439500Y-123002469D01*
X97454439Y-123159046D01*
X97513553Y-123360549D01*
X97609705Y-123547239D01*
X97739424Y-123712379D01*
X97898029Y-123850010D01*
X98079799Y-123955166D01*
X98084244Y-123956710D01*
X98084245Y-123956710D01*
X98273727Y-124022509D01*
X98273729Y-124022510D01*
X98278174Y-124024053D01*
X98282836Y-124024729D01*
X98481326Y-124053509D01*
X98481327Y-124053509D01*
X98485996Y-124054186D01*
X98490707Y-124053968D01*
X98490708Y-124053968D01*
X98691059Y-124044695D01*
X98691060Y-124044695D01*
X98695767Y-124044477D01*
X98780513Y-124024053D01*
X98895335Y-123996381D01*
X98895340Y-123996379D01*
X98899918Y-123995276D01*
X99091081Y-123908360D01*
X99262360Y-123786863D01*
X99337306Y-123708573D01*
X99404317Y-123638573D01*
X99404320Y-123638569D01*
X99407575Y-123635169D01*
X99521485Y-123458754D01*
X99599981Y-123263981D01*
X99619591Y-123163565D01*
X99639548Y-123061373D01*
X99639549Y-123061366D01*
X99640230Y-123057878D01*
X99640500Y-123052357D01*
X99640500Y-123002469D01*
X99979500Y-123002469D01*
X99994439Y-123159046D01*
X100053553Y-123360549D01*
X100149705Y-123547239D01*
X100279424Y-123712379D01*
X100438029Y-123850010D01*
X100619799Y-123955166D01*
X100624244Y-123956710D01*
X100624245Y-123956710D01*
X100813727Y-124022509D01*
X100813729Y-124022510D01*
X100818174Y-124024053D01*
X100822836Y-124024729D01*
X101021326Y-124053509D01*
X101021327Y-124053509D01*
X101025996Y-124054186D01*
X101030707Y-124053968D01*
X101030708Y-124053968D01*
X101231059Y-124044695D01*
X101231060Y-124044695D01*
X101235767Y-124044477D01*
X101320513Y-124024053D01*
X101435335Y-123996381D01*
X101435340Y-123996379D01*
X101439918Y-123995276D01*
X101631081Y-123908360D01*
X101802360Y-123786863D01*
X101877306Y-123708573D01*
X101944317Y-123638573D01*
X101944320Y-123638569D01*
X101947575Y-123635169D01*
X102061485Y-123458754D01*
X102139981Y-123263981D01*
X102159591Y-123163565D01*
X102179548Y-123061373D01*
X102179549Y-123061366D01*
X102180230Y-123057878D01*
X102180500Y-123052357D01*
X102180500Y-123002469D01*
X102519500Y-123002469D01*
X102534439Y-123159046D01*
X102593553Y-123360549D01*
X102689705Y-123547239D01*
X102819424Y-123712379D01*
X102978029Y-123850010D01*
X103159799Y-123955166D01*
X103164244Y-123956710D01*
X103164245Y-123956710D01*
X103353727Y-124022509D01*
X103353729Y-124022510D01*
X103358174Y-124024053D01*
X103362836Y-124024729D01*
X103561326Y-124053509D01*
X103561327Y-124053509D01*
X103565996Y-124054186D01*
X103570707Y-124053968D01*
X103570708Y-124053968D01*
X103771059Y-124044695D01*
X103771060Y-124044695D01*
X103775767Y-124044477D01*
X103860513Y-124024053D01*
X103975335Y-123996381D01*
X103975340Y-123996379D01*
X103979918Y-123995276D01*
X104171081Y-123908360D01*
X104342360Y-123786863D01*
X104417306Y-123708573D01*
X104484317Y-123638573D01*
X104484320Y-123638569D01*
X104487575Y-123635169D01*
X104601485Y-123458754D01*
X104679981Y-123263981D01*
X104699591Y-123163565D01*
X104719548Y-123061373D01*
X104719549Y-123061366D01*
X104720230Y-123057878D01*
X104720500Y-123052357D01*
X104720500Y-123002469D01*
X105059500Y-123002469D01*
X105074439Y-123159046D01*
X105133553Y-123360549D01*
X105229705Y-123547239D01*
X105359424Y-123712379D01*
X105518029Y-123850010D01*
X105699799Y-123955166D01*
X105704244Y-123956710D01*
X105704245Y-123956710D01*
X105893727Y-124022509D01*
X105893729Y-124022510D01*
X105898174Y-124024053D01*
X105902836Y-124024729D01*
X106101326Y-124053509D01*
X106101327Y-124053509D01*
X106105996Y-124054186D01*
X106110707Y-124053968D01*
X106110708Y-124053968D01*
X106311059Y-124044695D01*
X106311060Y-124044695D01*
X106315767Y-124044477D01*
X106400513Y-124024053D01*
X106515335Y-123996381D01*
X106515340Y-123996379D01*
X106519918Y-123995276D01*
X106711081Y-123908360D01*
X106882360Y-123786863D01*
X106957306Y-123708573D01*
X107024317Y-123638573D01*
X107024320Y-123638569D01*
X107027575Y-123635169D01*
X107141485Y-123458754D01*
X107219981Y-123263981D01*
X107239591Y-123163565D01*
X107259548Y-123061373D01*
X107259549Y-123061366D01*
X107260230Y-123057878D01*
X107260500Y-123052357D01*
X107260500Y-123002469D01*
X107599500Y-123002469D01*
X107614439Y-123159046D01*
X107673553Y-123360549D01*
X107769705Y-123547239D01*
X107899424Y-123712379D01*
X108058029Y-123850010D01*
X108239799Y-123955166D01*
X108244244Y-123956710D01*
X108244245Y-123956710D01*
X108433727Y-124022509D01*
X108433729Y-124022510D01*
X108438174Y-124024053D01*
X108442836Y-124024729D01*
X108641326Y-124053509D01*
X108641327Y-124053509D01*
X108645996Y-124054186D01*
X108650707Y-124053968D01*
X108650708Y-124053968D01*
X108851059Y-124044695D01*
X108851060Y-124044695D01*
X108855767Y-124044477D01*
X108940513Y-124024053D01*
X109055335Y-123996381D01*
X109055340Y-123996379D01*
X109059918Y-123995276D01*
X109251081Y-123908360D01*
X109422360Y-123786863D01*
X109497306Y-123708573D01*
X109564317Y-123638573D01*
X109564320Y-123638569D01*
X109567575Y-123635169D01*
X109681485Y-123458754D01*
X109759981Y-123263981D01*
X109779591Y-123163565D01*
X109799548Y-123061373D01*
X109799549Y-123061366D01*
X109800230Y-123057878D01*
X109800500Y-123052357D01*
X109800500Y-123002469D01*
X110139500Y-123002469D01*
X110154439Y-123159046D01*
X110213553Y-123360549D01*
X110309705Y-123547239D01*
X110439424Y-123712379D01*
X110598029Y-123850010D01*
X110779799Y-123955166D01*
X110784244Y-123956710D01*
X110784245Y-123956710D01*
X110973727Y-124022509D01*
X110973729Y-124022510D01*
X110978174Y-124024053D01*
X110982836Y-124024729D01*
X111181326Y-124053509D01*
X111181327Y-124053509D01*
X111185996Y-124054186D01*
X111190707Y-124053968D01*
X111190708Y-124053968D01*
X111391059Y-124044695D01*
X111391060Y-124044695D01*
X111395767Y-124044477D01*
X111480513Y-124024053D01*
X111595335Y-123996381D01*
X111595340Y-123996379D01*
X111599918Y-123995276D01*
X111791081Y-123908360D01*
X111962360Y-123786863D01*
X112037306Y-123708573D01*
X112104317Y-123638573D01*
X112104320Y-123638569D01*
X112107575Y-123635169D01*
X112221485Y-123458754D01*
X112299981Y-123263981D01*
X112319591Y-123163565D01*
X112339548Y-123061373D01*
X112339549Y-123061366D01*
X112340230Y-123057878D01*
X112340500Y-123052357D01*
X112340500Y-121997531D01*
X112325561Y-121840954D01*
X112266447Y-121639451D01*
X112170295Y-121452761D01*
X112040576Y-121287621D01*
X111881971Y-121149990D01*
X111700201Y-121044834D01*
X111695755Y-121043290D01*
X111506273Y-120977491D01*
X111506271Y-120977490D01*
X111501826Y-120975947D01*
X111497164Y-120975271D01*
X111298674Y-120946491D01*
X111298673Y-120946491D01*
X111294004Y-120945814D01*
X111289293Y-120946032D01*
X111289292Y-120946032D01*
X111088941Y-120955305D01*
X111088940Y-120955305D01*
X111084233Y-120955523D01*
X111014536Y-120972320D01*
X110884665Y-121003619D01*
X110884660Y-121003621D01*
X110880082Y-121004724D01*
X110688919Y-121091640D01*
X110517640Y-121213137D01*
X110446337Y-121287621D01*
X110375683Y-121361427D01*
X110375680Y-121361431D01*
X110372425Y-121364831D01*
X110258515Y-121541246D01*
X110180019Y-121736019D01*
X110179116Y-121740643D01*
X110140452Y-121938627D01*
X110140451Y-121938634D01*
X110139770Y-121942122D01*
X110139500Y-121947643D01*
X110139500Y-123002469D01*
X109800500Y-123002469D01*
X109800500Y-121997531D01*
X109785561Y-121840954D01*
X109726447Y-121639451D01*
X109630295Y-121452761D01*
X109500576Y-121287621D01*
X109341971Y-121149990D01*
X109160201Y-121044834D01*
X109155755Y-121043290D01*
X108966273Y-120977491D01*
X108966271Y-120977490D01*
X108961826Y-120975947D01*
X108957164Y-120975271D01*
X108758674Y-120946491D01*
X108758673Y-120946491D01*
X108754004Y-120945814D01*
X108749293Y-120946032D01*
X108749292Y-120946032D01*
X108548941Y-120955305D01*
X108548940Y-120955305D01*
X108544233Y-120955523D01*
X108474536Y-120972320D01*
X108344665Y-121003619D01*
X108344660Y-121003621D01*
X108340082Y-121004724D01*
X108148919Y-121091640D01*
X107977640Y-121213137D01*
X107906337Y-121287621D01*
X107835683Y-121361427D01*
X107835680Y-121361431D01*
X107832425Y-121364831D01*
X107718515Y-121541246D01*
X107640019Y-121736019D01*
X107639116Y-121740643D01*
X107600452Y-121938627D01*
X107600451Y-121938634D01*
X107599770Y-121942122D01*
X107599500Y-121947643D01*
X107599500Y-123002469D01*
X107260500Y-123002469D01*
X107260500Y-121997531D01*
X107245561Y-121840954D01*
X107186447Y-121639451D01*
X107090295Y-121452761D01*
X106960576Y-121287621D01*
X106801971Y-121149990D01*
X106620201Y-121044834D01*
X106615755Y-121043290D01*
X106426273Y-120977491D01*
X106426271Y-120977490D01*
X106421826Y-120975947D01*
X106417164Y-120975271D01*
X106218674Y-120946491D01*
X106218673Y-120946491D01*
X106214004Y-120945814D01*
X106209293Y-120946032D01*
X106209292Y-120946032D01*
X106008941Y-120955305D01*
X106008940Y-120955305D01*
X106004233Y-120955523D01*
X105934536Y-120972320D01*
X105804665Y-121003619D01*
X105804660Y-121003621D01*
X105800082Y-121004724D01*
X105608919Y-121091640D01*
X105437640Y-121213137D01*
X105366337Y-121287621D01*
X105295683Y-121361427D01*
X105295680Y-121361431D01*
X105292425Y-121364831D01*
X105178515Y-121541246D01*
X105100019Y-121736019D01*
X105099116Y-121740643D01*
X105060452Y-121938627D01*
X105060451Y-121938634D01*
X105059770Y-121942122D01*
X105059500Y-121947643D01*
X105059500Y-123002469D01*
X104720500Y-123002469D01*
X104720500Y-121997531D01*
X104705561Y-121840954D01*
X104646447Y-121639451D01*
X104550295Y-121452761D01*
X104420576Y-121287621D01*
X104261971Y-121149990D01*
X104080201Y-121044834D01*
X104075755Y-121043290D01*
X103886273Y-120977491D01*
X103886271Y-120977490D01*
X103881826Y-120975947D01*
X103877164Y-120975271D01*
X103678674Y-120946491D01*
X103678673Y-120946491D01*
X103674004Y-120945814D01*
X103669293Y-120946032D01*
X103669292Y-120946032D01*
X103468941Y-120955305D01*
X103468940Y-120955305D01*
X103464233Y-120955523D01*
X103394536Y-120972320D01*
X103264665Y-121003619D01*
X103264660Y-121003621D01*
X103260082Y-121004724D01*
X103068919Y-121091640D01*
X102897640Y-121213137D01*
X102826337Y-121287621D01*
X102755683Y-121361427D01*
X102755680Y-121361431D01*
X102752425Y-121364831D01*
X102638515Y-121541246D01*
X102560019Y-121736019D01*
X102559116Y-121740643D01*
X102520452Y-121938627D01*
X102520451Y-121938634D01*
X102519770Y-121942122D01*
X102519500Y-121947643D01*
X102519500Y-123002469D01*
X102180500Y-123002469D01*
X102180500Y-121997531D01*
X102165561Y-121840954D01*
X102106447Y-121639451D01*
X102010295Y-121452761D01*
X101880576Y-121287621D01*
X101721971Y-121149990D01*
X101540201Y-121044834D01*
X101535755Y-121043290D01*
X101346273Y-120977491D01*
X101346271Y-120977490D01*
X101341826Y-120975947D01*
X101337164Y-120975271D01*
X101138674Y-120946491D01*
X101138673Y-120946491D01*
X101134004Y-120945814D01*
X101129293Y-120946032D01*
X101129292Y-120946032D01*
X100928941Y-120955305D01*
X100928940Y-120955305D01*
X100924233Y-120955523D01*
X100854536Y-120972320D01*
X100724665Y-121003619D01*
X100724660Y-121003621D01*
X100720082Y-121004724D01*
X100528919Y-121091640D01*
X100357640Y-121213137D01*
X100286337Y-121287621D01*
X100215683Y-121361427D01*
X100215680Y-121361431D01*
X100212425Y-121364831D01*
X100098515Y-121541246D01*
X100020019Y-121736019D01*
X100019116Y-121740643D01*
X99980452Y-121938627D01*
X99980451Y-121938634D01*
X99979770Y-121942122D01*
X99979500Y-121947643D01*
X99979500Y-123002469D01*
X99640500Y-123002469D01*
X99640500Y-121997531D01*
X99625561Y-121840954D01*
X99566447Y-121639451D01*
X99470295Y-121452761D01*
X99340576Y-121287621D01*
X99181971Y-121149990D01*
X99000201Y-121044834D01*
X98995755Y-121043290D01*
X98806273Y-120977491D01*
X98806271Y-120977490D01*
X98801826Y-120975947D01*
X98797164Y-120975271D01*
X98598674Y-120946491D01*
X98598673Y-120946491D01*
X98594004Y-120945814D01*
X98589293Y-120946032D01*
X98589292Y-120946032D01*
X98388941Y-120955305D01*
X98388940Y-120955305D01*
X98384233Y-120955523D01*
X98314536Y-120972320D01*
X98184665Y-121003619D01*
X98184660Y-121003621D01*
X98180082Y-121004724D01*
X97988919Y-121091640D01*
X97817640Y-121213137D01*
X97746337Y-121287621D01*
X97675683Y-121361427D01*
X97675680Y-121361431D01*
X97672425Y-121364831D01*
X97558515Y-121541246D01*
X97480019Y-121736019D01*
X97479116Y-121740643D01*
X97440452Y-121938627D01*
X97440451Y-121938634D01*
X97439770Y-121942122D01*
X97439500Y-121947643D01*
X97439500Y-123002469D01*
X97100500Y-123002469D01*
X97100500Y-121997531D01*
X97085561Y-121840954D01*
X97026447Y-121639451D01*
X96930295Y-121452761D01*
X96800576Y-121287621D01*
X96641971Y-121149990D01*
X96460201Y-121044834D01*
X96455755Y-121043290D01*
X96266273Y-120977491D01*
X96266271Y-120977490D01*
X96261826Y-120975947D01*
X96257164Y-120975271D01*
X96058674Y-120946491D01*
X96058673Y-120946491D01*
X96054004Y-120945814D01*
X96049293Y-120946032D01*
X96049292Y-120946032D01*
X95848941Y-120955305D01*
X95848940Y-120955305D01*
X95844233Y-120955523D01*
X95774536Y-120972320D01*
X95644665Y-121003619D01*
X95644660Y-121003621D01*
X95640082Y-121004724D01*
X95448919Y-121091640D01*
X95277640Y-121213137D01*
X95206337Y-121287621D01*
X95135683Y-121361427D01*
X95135680Y-121361431D01*
X95132425Y-121364831D01*
X95018515Y-121541246D01*
X94940019Y-121736019D01*
X94939116Y-121740643D01*
X94900452Y-121938627D01*
X94900451Y-121938634D01*
X94899770Y-121942122D01*
X94899500Y-121947643D01*
X94899500Y-123002469D01*
X94560500Y-123002469D01*
X94560500Y-121997531D01*
X94545561Y-121840954D01*
X94486447Y-121639451D01*
X94390295Y-121452761D01*
X94260576Y-121287621D01*
X94101971Y-121149990D01*
X93920201Y-121044834D01*
X93915755Y-121043290D01*
X93726273Y-120977491D01*
X93726271Y-120977490D01*
X93721826Y-120975947D01*
X93717164Y-120975271D01*
X93518674Y-120946491D01*
X93518673Y-120946491D01*
X93514004Y-120945814D01*
X93509293Y-120946032D01*
X93509292Y-120946032D01*
X93308941Y-120955305D01*
X93308940Y-120955305D01*
X93304233Y-120955523D01*
X93234536Y-120972320D01*
X93104665Y-121003619D01*
X93104660Y-121003621D01*
X93100082Y-121004724D01*
X92908919Y-121091640D01*
X92737640Y-121213137D01*
X92666337Y-121287621D01*
X92595683Y-121361427D01*
X92595680Y-121361431D01*
X92592425Y-121364831D01*
X92478515Y-121541246D01*
X92400019Y-121736019D01*
X92399116Y-121740643D01*
X92360452Y-121938627D01*
X92360451Y-121938634D01*
X92359770Y-121942122D01*
X92359500Y-121947643D01*
X92359500Y-123002469D01*
X92020500Y-123002469D01*
X92020500Y-121997531D01*
X92005561Y-121840954D01*
X91946447Y-121639451D01*
X91850295Y-121452761D01*
X91720576Y-121287621D01*
X91561971Y-121149990D01*
X91380201Y-121044834D01*
X91375755Y-121043290D01*
X91186273Y-120977491D01*
X91186271Y-120977490D01*
X91181826Y-120975947D01*
X91177164Y-120975271D01*
X90978674Y-120946491D01*
X90978673Y-120946491D01*
X90974004Y-120945814D01*
X90969293Y-120946032D01*
X90969292Y-120946032D01*
X90768941Y-120955305D01*
X90768940Y-120955305D01*
X90764233Y-120955523D01*
X90694536Y-120972320D01*
X90564665Y-121003619D01*
X90564660Y-121003621D01*
X90560082Y-121004724D01*
X90368919Y-121091640D01*
X90197640Y-121213137D01*
X90126337Y-121287621D01*
X90055683Y-121361427D01*
X90055680Y-121361431D01*
X90052425Y-121364831D01*
X89938515Y-121541246D01*
X89860019Y-121736019D01*
X89859116Y-121740643D01*
X89820452Y-121938627D01*
X89820451Y-121938634D01*
X89819770Y-121942122D01*
X89819500Y-121947643D01*
X89819500Y-123002469D01*
X89480500Y-123002469D01*
X89480500Y-121997531D01*
X89465561Y-121840954D01*
X89406447Y-121639451D01*
X89310295Y-121452761D01*
X89180576Y-121287621D01*
X89021971Y-121149990D01*
X88840201Y-121044834D01*
X88835755Y-121043290D01*
X88646273Y-120977491D01*
X88646271Y-120977490D01*
X88641826Y-120975947D01*
X88637164Y-120975271D01*
X88438674Y-120946491D01*
X88438673Y-120946491D01*
X88434004Y-120945814D01*
X88429293Y-120946032D01*
X88429292Y-120946032D01*
X88228941Y-120955305D01*
X88228940Y-120955305D01*
X88224233Y-120955523D01*
X88154536Y-120972320D01*
X88024665Y-121003619D01*
X88024660Y-121003621D01*
X88020082Y-121004724D01*
X87828919Y-121091640D01*
X87657640Y-121213137D01*
X87586337Y-121287621D01*
X87515683Y-121361427D01*
X87515680Y-121361431D01*
X87512425Y-121364831D01*
X87398515Y-121541246D01*
X87320019Y-121736019D01*
X87319116Y-121740643D01*
X87280452Y-121938627D01*
X87280451Y-121938634D01*
X87279770Y-121942122D01*
X87279500Y-121947643D01*
X87279500Y-123002469D01*
X86940500Y-123002469D01*
X86940500Y-121997531D01*
X86925561Y-121840954D01*
X86866447Y-121639451D01*
X86770295Y-121452761D01*
X86640576Y-121287621D01*
X86481971Y-121149990D01*
X86300201Y-121044834D01*
X86295755Y-121043290D01*
X86106273Y-120977491D01*
X86106271Y-120977490D01*
X86101826Y-120975947D01*
X86097164Y-120975271D01*
X85898674Y-120946491D01*
X85898673Y-120946491D01*
X85894004Y-120945814D01*
X85889293Y-120946032D01*
X85889292Y-120946032D01*
X85688941Y-120955305D01*
X85688940Y-120955305D01*
X85684233Y-120955523D01*
X85614536Y-120972320D01*
X85484665Y-121003619D01*
X85484660Y-121003621D01*
X85480082Y-121004724D01*
X85288919Y-121091640D01*
X85117640Y-121213137D01*
X85046337Y-121287621D01*
X84975683Y-121361427D01*
X84975680Y-121361431D01*
X84972425Y-121364831D01*
X84858515Y-121541246D01*
X84780019Y-121736019D01*
X84779116Y-121740643D01*
X84740452Y-121938627D01*
X84740451Y-121938634D01*
X84739770Y-121942122D01*
X84739500Y-121947643D01*
X84739500Y-123002469D01*
X84400500Y-123002469D01*
X84400500Y-121997531D01*
X84385561Y-121840954D01*
X84326447Y-121639451D01*
X84230295Y-121452761D01*
X84100576Y-121287621D01*
X83941971Y-121149990D01*
X83760201Y-121044834D01*
X83755755Y-121043290D01*
X83566273Y-120977491D01*
X83566271Y-120977490D01*
X83561826Y-120975947D01*
X83557164Y-120975271D01*
X83358674Y-120946491D01*
X83358673Y-120946491D01*
X83354004Y-120945814D01*
X83349293Y-120946032D01*
X83349292Y-120946032D01*
X83148941Y-120955305D01*
X83148940Y-120955305D01*
X83144233Y-120955523D01*
X83074536Y-120972320D01*
X82944665Y-121003619D01*
X82944660Y-121003621D01*
X82940082Y-121004724D01*
X82748919Y-121091640D01*
X82577640Y-121213137D01*
X82506337Y-121287621D01*
X82435683Y-121361427D01*
X82435680Y-121361431D01*
X82432425Y-121364831D01*
X82318515Y-121541246D01*
X82240019Y-121736019D01*
X82239116Y-121740643D01*
X82200452Y-121938627D01*
X82200451Y-121938634D01*
X82199770Y-121942122D01*
X82199500Y-121947643D01*
X82199500Y-123002469D01*
X81860500Y-123002469D01*
X81860500Y-121997531D01*
X81845561Y-121840954D01*
X81786447Y-121639451D01*
X81690295Y-121452761D01*
X81560576Y-121287621D01*
X81401971Y-121149990D01*
X81220201Y-121044834D01*
X81215755Y-121043290D01*
X81026273Y-120977491D01*
X81026271Y-120977490D01*
X81021826Y-120975947D01*
X81017164Y-120975271D01*
X80818674Y-120946491D01*
X80818673Y-120946491D01*
X80814004Y-120945814D01*
X80809293Y-120946032D01*
X80809292Y-120946032D01*
X80608941Y-120955305D01*
X80608940Y-120955305D01*
X80604233Y-120955523D01*
X80534536Y-120972320D01*
X80404665Y-121003619D01*
X80404660Y-121003621D01*
X80400082Y-121004724D01*
X80208919Y-121091640D01*
X80037640Y-121213137D01*
X79966337Y-121287621D01*
X79895683Y-121361427D01*
X79895680Y-121361431D01*
X79892425Y-121364831D01*
X79778515Y-121541246D01*
X79700019Y-121736019D01*
X79699116Y-121740643D01*
X79660452Y-121938627D01*
X79660451Y-121938634D01*
X79659770Y-121942122D01*
X79659500Y-121947643D01*
X79659500Y-123002469D01*
X79320500Y-123002469D01*
X79320500Y-121997531D01*
X79305561Y-121840954D01*
X79246447Y-121639451D01*
X79150295Y-121452761D01*
X79020576Y-121287621D01*
X78861971Y-121149990D01*
X78680201Y-121044834D01*
X78675755Y-121043290D01*
X78486273Y-120977491D01*
X78486271Y-120977490D01*
X78481826Y-120975947D01*
X78477164Y-120975271D01*
X78278674Y-120946491D01*
X78278673Y-120946491D01*
X78274004Y-120945814D01*
X78269293Y-120946032D01*
X78269292Y-120946032D01*
X78068941Y-120955305D01*
X78068940Y-120955305D01*
X78064233Y-120955523D01*
X77994536Y-120972320D01*
X77864665Y-121003619D01*
X77864660Y-121003621D01*
X77860082Y-121004724D01*
X77668919Y-121091640D01*
X77497640Y-121213137D01*
X77426337Y-121287621D01*
X77355683Y-121361427D01*
X77355680Y-121361431D01*
X77352425Y-121364831D01*
X77238515Y-121541246D01*
X77160019Y-121736019D01*
X77159116Y-121740643D01*
X77120452Y-121938627D01*
X77120451Y-121938634D01*
X77119770Y-121942122D01*
X77119500Y-121947643D01*
X77119500Y-123002469D01*
X76780500Y-123002469D01*
X76780500Y-121997531D01*
X76765561Y-121840954D01*
X76706447Y-121639451D01*
X76610295Y-121452761D01*
X76480576Y-121287621D01*
X76321971Y-121149990D01*
X76140201Y-121044834D01*
X76135755Y-121043290D01*
X75946273Y-120977491D01*
X75946271Y-120977490D01*
X75941826Y-120975947D01*
X75937164Y-120975271D01*
X75738674Y-120946491D01*
X75738673Y-120946491D01*
X75734004Y-120945814D01*
X75729293Y-120946032D01*
X75729292Y-120946032D01*
X75528941Y-120955305D01*
X75528940Y-120955305D01*
X75524233Y-120955523D01*
X75454536Y-120972320D01*
X75324665Y-121003619D01*
X75324660Y-121003621D01*
X75320082Y-121004724D01*
X75128919Y-121091640D01*
X74957640Y-121213137D01*
X74886337Y-121287621D01*
X74815683Y-121361427D01*
X74815680Y-121361431D01*
X74812425Y-121364831D01*
X74698515Y-121541246D01*
X74620019Y-121736019D01*
X74619116Y-121740643D01*
X74580452Y-121938627D01*
X74580451Y-121938634D01*
X74579770Y-121942122D01*
X74579500Y-121947643D01*
X74579500Y-123002469D01*
X74240500Y-123002469D01*
X74240500Y-121997531D01*
X74225561Y-121840954D01*
X74166447Y-121639451D01*
X74070295Y-121452761D01*
X73940576Y-121287621D01*
X73781971Y-121149990D01*
X73600201Y-121044834D01*
X73595755Y-121043290D01*
X73406273Y-120977491D01*
X73406271Y-120977490D01*
X73401826Y-120975947D01*
X73397164Y-120975271D01*
X73198674Y-120946491D01*
X73198673Y-120946491D01*
X73194004Y-120945814D01*
X73189293Y-120946032D01*
X73189292Y-120946032D01*
X72988941Y-120955305D01*
X72988940Y-120955305D01*
X72984233Y-120955523D01*
X72914536Y-120972320D01*
X72784665Y-121003619D01*
X72784660Y-121003621D01*
X72780082Y-121004724D01*
X72588919Y-121091640D01*
X72417640Y-121213137D01*
X72346337Y-121287621D01*
X72275683Y-121361427D01*
X72275680Y-121361431D01*
X72272425Y-121364831D01*
X72158515Y-121541246D01*
X72080019Y-121736019D01*
X72079116Y-121740643D01*
X72040452Y-121938627D01*
X72040451Y-121938634D01*
X72039770Y-121942122D01*
X72039500Y-121947643D01*
X72039500Y-123002469D01*
X71700500Y-123002469D01*
X71700500Y-121997531D01*
X71685561Y-121840954D01*
X71626447Y-121639451D01*
X71530295Y-121452761D01*
X71400576Y-121287621D01*
X71241971Y-121149990D01*
X71060201Y-121044834D01*
X71055755Y-121043290D01*
X70866273Y-120977491D01*
X70866271Y-120977490D01*
X70861826Y-120975947D01*
X70857164Y-120975271D01*
X70658674Y-120946491D01*
X70658673Y-120946491D01*
X70654004Y-120945814D01*
X70649293Y-120946032D01*
X70649292Y-120946032D01*
X70448941Y-120955305D01*
X70448940Y-120955305D01*
X70444233Y-120955523D01*
X70374536Y-120972320D01*
X70244665Y-121003619D01*
X70244660Y-121003621D01*
X70240082Y-121004724D01*
X70048919Y-121091640D01*
X69877640Y-121213137D01*
X69806337Y-121287621D01*
X69735683Y-121361427D01*
X69735680Y-121361431D01*
X69732425Y-121364831D01*
X69618515Y-121541246D01*
X69540019Y-121736019D01*
X69539116Y-121740643D01*
X69500452Y-121938627D01*
X69500451Y-121938634D01*
X69499770Y-121942122D01*
X69499500Y-121947643D01*
X69499500Y-123002469D01*
X69160500Y-123002469D01*
X69160500Y-121997531D01*
X69145561Y-121840954D01*
X69086447Y-121639451D01*
X68990295Y-121452761D01*
X68860576Y-121287621D01*
X68701971Y-121149990D01*
X68520201Y-121044834D01*
X68515755Y-121043290D01*
X68326273Y-120977491D01*
X68326271Y-120977490D01*
X68321826Y-120975947D01*
X68317164Y-120975271D01*
X68118674Y-120946491D01*
X68118673Y-120946491D01*
X68114004Y-120945814D01*
X68109293Y-120946032D01*
X68109292Y-120946032D01*
X67908941Y-120955305D01*
X67908940Y-120955305D01*
X67904233Y-120955523D01*
X67834536Y-120972320D01*
X67704665Y-121003619D01*
X67704660Y-121003621D01*
X67700082Y-121004724D01*
X67508919Y-121091640D01*
X67337640Y-121213137D01*
X67266337Y-121287621D01*
X67195683Y-121361427D01*
X67195680Y-121361431D01*
X67192425Y-121364831D01*
X67078515Y-121541246D01*
X67000019Y-121736019D01*
X66999116Y-121740643D01*
X66960452Y-121938627D01*
X66960451Y-121938634D01*
X66959770Y-121942122D01*
X66959500Y-121947643D01*
X66959500Y-123002469D01*
X66620500Y-123002469D01*
X66620500Y-121997531D01*
X66605561Y-121840954D01*
X66546447Y-121639451D01*
X66450295Y-121452761D01*
X66320576Y-121287621D01*
X66161971Y-121149990D01*
X65980201Y-121044834D01*
X65975755Y-121043290D01*
X65786273Y-120977491D01*
X65786271Y-120977490D01*
X65781826Y-120975947D01*
X65777164Y-120975271D01*
X65578674Y-120946491D01*
X65578673Y-120946491D01*
X65574004Y-120945814D01*
X65569293Y-120946032D01*
X65569292Y-120946032D01*
X65368941Y-120955305D01*
X65368940Y-120955305D01*
X65364233Y-120955523D01*
X65294536Y-120972320D01*
X65164665Y-121003619D01*
X65164660Y-121003621D01*
X65160082Y-121004724D01*
X64968919Y-121091640D01*
X64797640Y-121213137D01*
X64726337Y-121287621D01*
X64655683Y-121361427D01*
X64655680Y-121361431D01*
X64652425Y-121364831D01*
X64538515Y-121541246D01*
X64460019Y-121736019D01*
X64459116Y-121740643D01*
X64420452Y-121938627D01*
X64420451Y-121938634D01*
X64419770Y-121942122D01*
X64419500Y-121947643D01*
X64419500Y-123002469D01*
X64080500Y-123002469D01*
X64080500Y-121997531D01*
X64065561Y-121840954D01*
X64006447Y-121639451D01*
X63910295Y-121452761D01*
X63780576Y-121287621D01*
X63621971Y-121149990D01*
X63440201Y-121044834D01*
X63435755Y-121043290D01*
X63246273Y-120977491D01*
X63246271Y-120977490D01*
X63241826Y-120975947D01*
X63237164Y-120975271D01*
X63038674Y-120946491D01*
X63038673Y-120946491D01*
X63034004Y-120945814D01*
X63029293Y-120946032D01*
X63029292Y-120946032D01*
X62828941Y-120955305D01*
X62828940Y-120955305D01*
X62824233Y-120955523D01*
X62754536Y-120972320D01*
X62624665Y-121003619D01*
X62624660Y-121003621D01*
X62620082Y-121004724D01*
X62428919Y-121091640D01*
X62257640Y-121213137D01*
X62186337Y-121287621D01*
X62115683Y-121361427D01*
X62115680Y-121361431D01*
X62112425Y-121364831D01*
X62055649Y-121452761D01*
X62032669Y-121488351D01*
X61985220Y-121526980D01*
X61924127Y-121530342D01*
X61872726Y-121497153D01*
X61850500Y-121434649D01*
X61850500Y-106903365D01*
X61867041Y-106848579D01*
X61941816Y-106736033D01*
X61944879Y-106731423D01*
X61955248Y-106704128D01*
X62000314Y-106585490D01*
X62002280Y-106580315D01*
X62024776Y-106420245D01*
X62025059Y-106400000D01*
X62007041Y-106239364D01*
X61953882Y-106086712D01*
X61868224Y-105949631D01*
X61754325Y-105834934D01*
X61617845Y-105748321D01*
X61465568Y-105694098D01*
X61460075Y-105693443D01*
X61310558Y-105675614D01*
X61310555Y-105675614D01*
X61305062Y-105674959D01*
X61144304Y-105691855D01*
X61139065Y-105693639D01*
X61139063Y-105693639D01*
X61137715Y-105694098D01*
X60991285Y-105743947D01*
X60986575Y-105746845D01*
X60986570Y-105746847D01*
X60858612Y-105825568D01*
X60853609Y-105828646D01*
X60738120Y-105941741D01*
X60735122Y-105946393D01*
X60653552Y-106072963D01*
X60653550Y-106072968D01*
X60650556Y-106077613D01*
X60595271Y-106229508D01*
X60575012Y-106389877D01*
X51875500Y-106389877D01*
X51875500Y-90844646D01*
X77349500Y-90844646D01*
X77352618Y-90870846D01*
X77398061Y-90973153D01*
X77477287Y-91052241D01*
X77506409Y-91065116D01*
X77572864Y-91094496D01*
X77572866Y-91094496D01*
X77579673Y-91097506D01*
X77587067Y-91098368D01*
X77602378Y-91100153D01*
X77605354Y-91100500D01*
X79294646Y-91100500D01*
X79312561Y-91098368D01*
X79313469Y-91098260D01*
X79313470Y-91098260D01*
X79320846Y-91097382D01*
X79423153Y-91051939D01*
X79429805Y-91045276D01*
X79468303Y-91006710D01*
X79502241Y-90972713D01*
X79537466Y-90893037D01*
X79544496Y-90877136D01*
X79544496Y-90877134D01*
X79547506Y-90870327D01*
X79550500Y-90844646D01*
X79550500Y-90052469D01*
X79889500Y-90052469D01*
X79904439Y-90209046D01*
X79963553Y-90410549D01*
X80059705Y-90597239D01*
X80189424Y-90762379D01*
X80280924Y-90841779D01*
X80331526Y-90885689D01*
X80348029Y-90900010D01*
X80529799Y-91005166D01*
X80534244Y-91006710D01*
X80534245Y-91006710D01*
X80723727Y-91072509D01*
X80723729Y-91072510D01*
X80728174Y-91074053D01*
X80732836Y-91074729D01*
X80931326Y-91103509D01*
X80931327Y-91103509D01*
X80935996Y-91104186D01*
X80940707Y-91103968D01*
X80940708Y-91103968D01*
X81141059Y-91094695D01*
X81141060Y-91094695D01*
X81145767Y-91094477D01*
X81230513Y-91074053D01*
X81345335Y-91046381D01*
X81345340Y-91046379D01*
X81349918Y-91045276D01*
X81541081Y-90958360D01*
X81712360Y-90836863D01*
X81787776Y-90758082D01*
X81854317Y-90688573D01*
X81854320Y-90688569D01*
X81857575Y-90685169D01*
X81971485Y-90508754D01*
X82049981Y-90313981D01*
X82069591Y-90213565D01*
X82089548Y-90111373D01*
X82089549Y-90111366D01*
X82090230Y-90107878D01*
X82090500Y-90102357D01*
X82090500Y-90052469D01*
X82429500Y-90052469D01*
X82444439Y-90209046D01*
X82503553Y-90410549D01*
X82599705Y-90597239D01*
X82729424Y-90762379D01*
X82820924Y-90841779D01*
X82871526Y-90885689D01*
X82888029Y-90900010D01*
X83069799Y-91005166D01*
X83074244Y-91006710D01*
X83074245Y-91006710D01*
X83263727Y-91072509D01*
X83263729Y-91072510D01*
X83268174Y-91074053D01*
X83272836Y-91074729D01*
X83471326Y-91103509D01*
X83471327Y-91103509D01*
X83475996Y-91104186D01*
X83480707Y-91103968D01*
X83480708Y-91103968D01*
X83681059Y-91094695D01*
X83681060Y-91094695D01*
X83685767Y-91094477D01*
X83770513Y-91074053D01*
X83885335Y-91046381D01*
X83885340Y-91046379D01*
X83889918Y-91045276D01*
X84081081Y-90958360D01*
X84252360Y-90836863D01*
X84327776Y-90758082D01*
X84394317Y-90688573D01*
X84394320Y-90688569D01*
X84397575Y-90685169D01*
X84511485Y-90508754D01*
X84589981Y-90313981D01*
X84609591Y-90213565D01*
X84629548Y-90111373D01*
X84629549Y-90111366D01*
X84630230Y-90107878D01*
X84630500Y-90102357D01*
X84630500Y-90052469D01*
X84969500Y-90052469D01*
X84984439Y-90209046D01*
X85043553Y-90410549D01*
X85139705Y-90597239D01*
X85269424Y-90762379D01*
X85360924Y-90841779D01*
X85411526Y-90885689D01*
X85428029Y-90900010D01*
X85609799Y-91005166D01*
X85614244Y-91006710D01*
X85614245Y-91006710D01*
X85803727Y-91072509D01*
X85803729Y-91072510D01*
X85808174Y-91074053D01*
X85812836Y-91074729D01*
X86011326Y-91103509D01*
X86011327Y-91103509D01*
X86015996Y-91104186D01*
X86020707Y-91103968D01*
X86020708Y-91103968D01*
X86221059Y-91094695D01*
X86221060Y-91094695D01*
X86225767Y-91094477D01*
X86310513Y-91074053D01*
X86425335Y-91046381D01*
X86425340Y-91046379D01*
X86429918Y-91045276D01*
X86621081Y-90958360D01*
X86792360Y-90836863D01*
X86867776Y-90758082D01*
X86934317Y-90688573D01*
X86934320Y-90688569D01*
X86937575Y-90685169D01*
X87051485Y-90508754D01*
X87129981Y-90313981D01*
X87149591Y-90213565D01*
X87169548Y-90111373D01*
X87169549Y-90111366D01*
X87170230Y-90107878D01*
X87170500Y-90102357D01*
X87170500Y-89047531D01*
X87155561Y-88890954D01*
X87096447Y-88689451D01*
X87000295Y-88502761D01*
X86870576Y-88337621D01*
X86754081Y-88236531D01*
X86715531Y-88203079D01*
X86715530Y-88203078D01*
X86711971Y-88199990D01*
X86530201Y-88094834D01*
X86433771Y-88061348D01*
X86336273Y-88027491D01*
X86336271Y-88027490D01*
X86331826Y-88025947D01*
X86327164Y-88025271D01*
X86128674Y-87996491D01*
X86128673Y-87996491D01*
X86124004Y-87995814D01*
X86119293Y-87996032D01*
X86119292Y-87996032D01*
X85918941Y-88005305D01*
X85918940Y-88005305D01*
X85914233Y-88005523D01*
X85844536Y-88022320D01*
X85714665Y-88053619D01*
X85714660Y-88053621D01*
X85710082Y-88054724D01*
X85518919Y-88141640D01*
X85347640Y-88263137D01*
X85276337Y-88337621D01*
X85205683Y-88411427D01*
X85205680Y-88411431D01*
X85202425Y-88414831D01*
X85088515Y-88591246D01*
X85010019Y-88786019D01*
X85009116Y-88790643D01*
X84970452Y-88988627D01*
X84970451Y-88988634D01*
X84969770Y-88992122D01*
X84969500Y-88997643D01*
X84969500Y-90052469D01*
X84630500Y-90052469D01*
X84630500Y-89047531D01*
X84615561Y-88890954D01*
X84556447Y-88689451D01*
X84460295Y-88502761D01*
X84330576Y-88337621D01*
X84214081Y-88236531D01*
X84175531Y-88203079D01*
X84175530Y-88203078D01*
X84171971Y-88199990D01*
X83990201Y-88094834D01*
X83893771Y-88061348D01*
X83796273Y-88027491D01*
X83796271Y-88027490D01*
X83791826Y-88025947D01*
X83787164Y-88025271D01*
X83588674Y-87996491D01*
X83588673Y-87996491D01*
X83584004Y-87995814D01*
X83579293Y-87996032D01*
X83579292Y-87996032D01*
X83378941Y-88005305D01*
X83378940Y-88005305D01*
X83374233Y-88005523D01*
X83304536Y-88022320D01*
X83174665Y-88053619D01*
X83174660Y-88053621D01*
X83170082Y-88054724D01*
X82978919Y-88141640D01*
X82807640Y-88263137D01*
X82736337Y-88337621D01*
X82665683Y-88411427D01*
X82665680Y-88411431D01*
X82662425Y-88414831D01*
X82548515Y-88591246D01*
X82470019Y-88786019D01*
X82469116Y-88790643D01*
X82430452Y-88988627D01*
X82430451Y-88988634D01*
X82429770Y-88992122D01*
X82429500Y-88997643D01*
X82429500Y-90052469D01*
X82090500Y-90052469D01*
X82090500Y-89047531D01*
X82075561Y-88890954D01*
X82016447Y-88689451D01*
X81920295Y-88502761D01*
X81790576Y-88337621D01*
X81674081Y-88236531D01*
X81635531Y-88203079D01*
X81635530Y-88203078D01*
X81631971Y-88199990D01*
X81450201Y-88094834D01*
X81353771Y-88061348D01*
X81256273Y-88027491D01*
X81256271Y-88027490D01*
X81251826Y-88025947D01*
X81247164Y-88025271D01*
X81048674Y-87996491D01*
X81048673Y-87996491D01*
X81044004Y-87995814D01*
X81039293Y-87996032D01*
X81039292Y-87996032D01*
X80838941Y-88005305D01*
X80838940Y-88005305D01*
X80834233Y-88005523D01*
X80764536Y-88022320D01*
X80634665Y-88053619D01*
X80634660Y-88053621D01*
X80630082Y-88054724D01*
X80438919Y-88141640D01*
X80267640Y-88263137D01*
X80196337Y-88337621D01*
X80125683Y-88411427D01*
X80125680Y-88411431D01*
X80122425Y-88414831D01*
X80008515Y-88591246D01*
X79930019Y-88786019D01*
X79929116Y-88790643D01*
X79890452Y-88988627D01*
X79890451Y-88988634D01*
X79889770Y-88992122D01*
X79889500Y-88997643D01*
X79889500Y-90052469D01*
X79550500Y-90052469D01*
X79550500Y-88255354D01*
X79547382Y-88229154D01*
X79501939Y-88126847D01*
X79494619Y-88119539D01*
X79436326Y-88061348D01*
X79422713Y-88047759D01*
X79329678Y-88006628D01*
X79327136Y-88005504D01*
X79327134Y-88005504D01*
X79320327Y-88002494D01*
X79306322Y-88000861D01*
X79297494Y-87999832D01*
X79297493Y-87999832D01*
X79294646Y-87999500D01*
X77605354Y-87999500D01*
X77588951Y-88001452D01*
X77586531Y-88001740D01*
X77586530Y-88001740D01*
X77579154Y-88002618D01*
X77476847Y-88048061D01*
X77470390Y-88054529D01*
X77470389Y-88054530D01*
X77468249Y-88056674D01*
X77397759Y-88127287D01*
X77352494Y-88229673D01*
X77349500Y-88255354D01*
X77349500Y-90844646D01*
X51875500Y-90844646D01*
X51875500Y-77352469D01*
X77349500Y-77352469D01*
X77364439Y-77509046D01*
X77423553Y-77710549D01*
X77519705Y-77897239D01*
X77649424Y-78062379D01*
X77808029Y-78200010D01*
X77989799Y-78305166D01*
X77994244Y-78306710D01*
X77994245Y-78306710D01*
X78183727Y-78372509D01*
X78183729Y-78372510D01*
X78188174Y-78374053D01*
X78192836Y-78374729D01*
X78391326Y-78403509D01*
X78391327Y-78403509D01*
X78395996Y-78404186D01*
X78400707Y-78403968D01*
X78400708Y-78403968D01*
X78601059Y-78394695D01*
X78601060Y-78394695D01*
X78605767Y-78394477D01*
X78690513Y-78374053D01*
X78805335Y-78346381D01*
X78805340Y-78346379D01*
X78809918Y-78345276D01*
X79001081Y-78258360D01*
X79172360Y-78136863D01*
X79247306Y-78058573D01*
X79314317Y-77988573D01*
X79314320Y-77988569D01*
X79317575Y-77985169D01*
X79431485Y-77808754D01*
X79509981Y-77613981D01*
X79529591Y-77513565D01*
X79549548Y-77411373D01*
X79549549Y-77411366D01*
X79550230Y-77407878D01*
X79550500Y-77402357D01*
X79550500Y-77352469D01*
X79889500Y-77352469D01*
X79904439Y-77509046D01*
X79963553Y-77710549D01*
X80059705Y-77897239D01*
X80189424Y-78062379D01*
X80348029Y-78200010D01*
X80529799Y-78305166D01*
X80534244Y-78306710D01*
X80534245Y-78306710D01*
X80723727Y-78372509D01*
X80723729Y-78372510D01*
X80728174Y-78374053D01*
X80732836Y-78374729D01*
X80931326Y-78403509D01*
X80931327Y-78403509D01*
X80935996Y-78404186D01*
X80940707Y-78403968D01*
X80940708Y-78403968D01*
X81141059Y-78394695D01*
X81141060Y-78394695D01*
X81145767Y-78394477D01*
X81230513Y-78374053D01*
X81345335Y-78346381D01*
X81345340Y-78346379D01*
X81349918Y-78345276D01*
X81541081Y-78258360D01*
X81712360Y-78136863D01*
X81787306Y-78058573D01*
X81854317Y-77988573D01*
X81854320Y-77988569D01*
X81857575Y-77985169D01*
X81971485Y-77808754D01*
X82049981Y-77613981D01*
X82069591Y-77513565D01*
X82089548Y-77411373D01*
X82089549Y-77411366D01*
X82090230Y-77407878D01*
X82090500Y-77402357D01*
X82090500Y-77352469D01*
X82429500Y-77352469D01*
X82444439Y-77509046D01*
X82503553Y-77710549D01*
X82599705Y-77897239D01*
X82729424Y-78062379D01*
X82888029Y-78200010D01*
X82992266Y-78260312D01*
X83030075Y-78282185D01*
X83070976Y-78327690D01*
X83079500Y-78367878D01*
X83079500Y-79597373D01*
X83078814Y-79609009D01*
X83074636Y-79644310D01*
X83075965Y-79651586D01*
X83075965Y-79651589D01*
X83085248Y-79702414D01*
X83085758Y-79705476D01*
X83094551Y-79763962D01*
X83097679Y-79770475D01*
X83098975Y-79777573D01*
X83102386Y-79784139D01*
X83126198Y-79829980D01*
X83127588Y-79832762D01*
X83149987Y-79879408D01*
X83149989Y-79879411D01*
X83153191Y-79886079D01*
X83157297Y-79890521D01*
X83158820Y-79892781D01*
X83161421Y-79897788D01*
X83165725Y-79902828D01*
X83203357Y-79940460D01*
X83206051Y-79943263D01*
X83240124Y-79980124D01*
X83240127Y-79980126D01*
X83245146Y-79985556D01*
X83251210Y-79989078D01*
X83258535Y-79995638D01*
X89280024Y-86017127D01*
X89307801Y-86071644D01*
X89309020Y-86087131D01*
X89309020Y-88061348D01*
X89290113Y-88119539D01*
X89240613Y-88155503D01*
X89179427Y-88155503D01*
X89160446Y-88147041D01*
X89074282Y-88097194D01*
X89074275Y-88097191D01*
X89070201Y-88094834D01*
X88973771Y-88061348D01*
X88876273Y-88027491D01*
X88876271Y-88027490D01*
X88871826Y-88025947D01*
X88867164Y-88025271D01*
X88668674Y-87996491D01*
X88668673Y-87996491D01*
X88664004Y-87995814D01*
X88659293Y-87996032D01*
X88659292Y-87996032D01*
X88458941Y-88005305D01*
X88458940Y-88005305D01*
X88454233Y-88005523D01*
X88384536Y-88022320D01*
X88254665Y-88053619D01*
X88254660Y-88053621D01*
X88250082Y-88054724D01*
X88058919Y-88141640D01*
X87887640Y-88263137D01*
X87816337Y-88337621D01*
X87745683Y-88411427D01*
X87745680Y-88411431D01*
X87742425Y-88414831D01*
X87628515Y-88591246D01*
X87550019Y-88786019D01*
X87549116Y-88790643D01*
X87510452Y-88988627D01*
X87510451Y-88988634D01*
X87509770Y-88992122D01*
X87509500Y-88997643D01*
X87509500Y-90052469D01*
X87524439Y-90209046D01*
X87583553Y-90410549D01*
X87679705Y-90597239D01*
X87809424Y-90762379D01*
X87900924Y-90841779D01*
X87951526Y-90885689D01*
X87968029Y-90900010D01*
X88149799Y-91005166D01*
X88154244Y-91006710D01*
X88154245Y-91006710D01*
X88343727Y-91072509D01*
X88343729Y-91072510D01*
X88348174Y-91074053D01*
X88352836Y-91074729D01*
X88551326Y-91103509D01*
X88551327Y-91103509D01*
X88555996Y-91104186D01*
X88560707Y-91103968D01*
X88560708Y-91103968D01*
X88761059Y-91094695D01*
X88761060Y-91094695D01*
X88765767Y-91094477D01*
X88850513Y-91074053D01*
X88965335Y-91046381D01*
X88965340Y-91046379D01*
X88969918Y-91045276D01*
X89115292Y-90979179D01*
X89156795Y-90960309D01*
X89156797Y-90960308D01*
X89161081Y-90958360D01*
X89161815Y-90957840D01*
X89220539Y-90945463D01*
X89276392Y-90970447D01*
X89306892Y-91023488D01*
X89309020Y-91043903D01*
X89309020Y-92326893D01*
X89308334Y-92338529D01*
X89304156Y-92373830D01*
X89305485Y-92381106D01*
X89305485Y-92381109D01*
X89314768Y-92431934D01*
X89315278Y-92434996D01*
X89324071Y-92493482D01*
X89327199Y-92499995D01*
X89328495Y-92507093D01*
X89331906Y-92513659D01*
X89355718Y-92559500D01*
X89357108Y-92562282D01*
X89379507Y-92608928D01*
X89379509Y-92608931D01*
X89382711Y-92615599D01*
X89386817Y-92620041D01*
X89388340Y-92622301D01*
X89390941Y-92627308D01*
X89395245Y-92632348D01*
X89432877Y-92669980D01*
X89435571Y-92672783D01*
X89469644Y-92709644D01*
X89469647Y-92709646D01*
X89474666Y-92715076D01*
X89480730Y-92718598D01*
X89488055Y-92725158D01*
X90049440Y-93286543D01*
X90077217Y-93341060D01*
X90077655Y-93368955D01*
X90075012Y-93389877D01*
X90090785Y-93550748D01*
X90141808Y-93704128D01*
X90144673Y-93708859D01*
X90144675Y-93708863D01*
X90222676Y-93837658D01*
X90222679Y-93837662D01*
X90225543Y-93842391D01*
X90229385Y-93846370D01*
X90229387Y-93846372D01*
X90333983Y-93954685D01*
X90333986Y-93954688D01*
X90337830Y-93958668D01*
X90473087Y-94047177D01*
X90478267Y-94049103D01*
X90478270Y-94049105D01*
X90574621Y-94084938D01*
X90624592Y-94103522D01*
X90630078Y-94104254D01*
X90630082Y-94104255D01*
X90771691Y-94123149D01*
X90784816Y-94124900D01*
X90790322Y-94124399D01*
X90790324Y-94124399D01*
X90854330Y-94118574D01*
X90945793Y-94110250D01*
X90951051Y-94108542D01*
X90951054Y-94108541D01*
X91094260Y-94062010D01*
X91094262Y-94062009D01*
X91099525Y-94060299D01*
X91104281Y-94057464D01*
X91104283Y-94057463D01*
X91233619Y-93980363D01*
X91238370Y-93977531D01*
X91355427Y-93866059D01*
X91444879Y-93731423D01*
X91455248Y-93704128D01*
X91500314Y-93585490D01*
X91502280Y-93580315D01*
X91524776Y-93420245D01*
X91525059Y-93400000D01*
X91507041Y-93239364D01*
X91453882Y-93086712D01*
X91368224Y-92949631D01*
X91254325Y-92834934D01*
X91117845Y-92748321D01*
X90965568Y-92694098D01*
X90960075Y-92693443D01*
X90810558Y-92675614D01*
X90810555Y-92675614D01*
X90805062Y-92674959D01*
X90775173Y-92678100D01*
X90767869Y-92678868D01*
X90708021Y-92666146D01*
X90687517Y-92650414D01*
X90239016Y-92201913D01*
X90211239Y-92147396D01*
X90210020Y-92131909D01*
X90210020Y-90858396D01*
X90228927Y-90800205D01*
X90278427Y-90764241D01*
X90339613Y-90764241D01*
X90373905Y-90783623D01*
X90499993Y-90893037D01*
X90508029Y-90900010D01*
X90689799Y-91005166D01*
X90694244Y-91006710D01*
X90694245Y-91006710D01*
X90883727Y-91072509D01*
X90883729Y-91072510D01*
X90888174Y-91074053D01*
X90892836Y-91074729D01*
X91091326Y-91103509D01*
X91091327Y-91103509D01*
X91095996Y-91104186D01*
X91100707Y-91103968D01*
X91100708Y-91103968D01*
X91301059Y-91094695D01*
X91301060Y-91094695D01*
X91305767Y-91094477D01*
X91390513Y-91074053D01*
X91505335Y-91046381D01*
X91505340Y-91046379D01*
X91509918Y-91045276D01*
X91701081Y-90958360D01*
X91872360Y-90836863D01*
X91947776Y-90758082D01*
X92014317Y-90688573D01*
X92014320Y-90688569D01*
X92017575Y-90685169D01*
X92131485Y-90508754D01*
X92209981Y-90313981D01*
X92229591Y-90213565D01*
X92249548Y-90111373D01*
X92249549Y-90111366D01*
X92250230Y-90107878D01*
X92250500Y-90102357D01*
X92250500Y-90099500D01*
X92269407Y-90041309D01*
X92318907Y-90005345D01*
X92349500Y-90000500D01*
X104222389Y-90000500D01*
X104280580Y-90019407D01*
X104292393Y-90029496D01*
X105320504Y-91057607D01*
X105348281Y-91112124D01*
X105349500Y-91127611D01*
X105349500Y-91291054D01*
X105330593Y-91349245D01*
X105319766Y-91361787D01*
X105242077Y-91437866D01*
X105238120Y-91441741D01*
X105235122Y-91446393D01*
X105153552Y-91572963D01*
X105153550Y-91572968D01*
X105150556Y-91577613D01*
X105095271Y-91729508D01*
X105075012Y-91889877D01*
X105090785Y-92050748D01*
X105141808Y-92204128D01*
X105144673Y-92208859D01*
X105144675Y-92208863D01*
X105222676Y-92337658D01*
X105222679Y-92337662D01*
X105225543Y-92342391D01*
X105229385Y-92346370D01*
X105229387Y-92346372D01*
X105333983Y-92454685D01*
X105333986Y-92454688D01*
X105337830Y-92458668D01*
X105342465Y-92461701D01*
X105395221Y-92496223D01*
X105473087Y-92547177D01*
X105478267Y-92549103D01*
X105478270Y-92549105D01*
X105574621Y-92584938D01*
X105624592Y-92603522D01*
X105630078Y-92604254D01*
X105630082Y-92604255D01*
X105754859Y-92620903D01*
X105784816Y-92624900D01*
X105790322Y-92624399D01*
X105790324Y-92624399D01*
X105854330Y-92618574D01*
X105945793Y-92610250D01*
X105951051Y-92608542D01*
X105951054Y-92608541D01*
X106094260Y-92562010D01*
X106094262Y-92562009D01*
X106099525Y-92560299D01*
X106104281Y-92557464D01*
X106104283Y-92557463D01*
X106233619Y-92480363D01*
X106238370Y-92477531D01*
X106355427Y-92366059D01*
X106444879Y-92231423D01*
X106455248Y-92204128D01*
X106500314Y-92085490D01*
X106502280Y-92080315D01*
X106524776Y-91920245D01*
X106525059Y-91900000D01*
X106507041Y-91739364D01*
X106453882Y-91586712D01*
X106368224Y-91449631D01*
X106364325Y-91445704D01*
X106364322Y-91445701D01*
X106279253Y-91360036D01*
X106251665Y-91305423D01*
X106250500Y-91290277D01*
X106250500Y-90932626D01*
X106251186Y-90920990D01*
X106251368Y-90919453D01*
X106255364Y-90885689D01*
X106254035Y-90878413D01*
X106254035Y-90878409D01*
X106244750Y-90827573D01*
X106244239Y-90824505D01*
X106236549Y-90773355D01*
X106235449Y-90766038D01*
X106232321Y-90759525D01*
X106231025Y-90752427D01*
X106203793Y-90700002D01*
X106202403Y-90697221D01*
X106176809Y-90643921D01*
X106172705Y-90639481D01*
X106171180Y-90637218D01*
X106168579Y-90632211D01*
X106164275Y-90627172D01*
X106126643Y-90589540D01*
X106123949Y-90586737D01*
X106089876Y-90549876D01*
X106089873Y-90549874D01*
X106084854Y-90544444D01*
X106078790Y-90540922D01*
X106071465Y-90534362D01*
X104791619Y-89254516D01*
X104783877Y-89245803D01*
X104766453Y-89223701D01*
X104761872Y-89217890D01*
X104713251Y-89184286D01*
X104710728Y-89182483D01*
X104669139Y-89151764D01*
X104669137Y-89151763D01*
X104663184Y-89147366D01*
X104656368Y-89144973D01*
X104650431Y-89140869D01*
X104643372Y-89138636D01*
X104643371Y-89138636D01*
X104623027Y-89132202D01*
X104594071Y-89123044D01*
X104591186Y-89122082D01*
X104535369Y-89102481D01*
X104529327Y-89102244D01*
X104526653Y-89101723D01*
X104521270Y-89100020D01*
X104514663Y-89099500D01*
X104461459Y-89099500D01*
X104457572Y-89099424D01*
X104407397Y-89097452D01*
X104407394Y-89097452D01*
X104400006Y-89097162D01*
X104393228Y-89098959D01*
X104383403Y-89099500D01*
X92345462Y-89099500D01*
X92287271Y-89080593D01*
X92251307Y-89031093D01*
X92246910Y-89009903D01*
X92236009Y-88895647D01*
X92236009Y-88895645D01*
X92235561Y-88890954D01*
X92176447Y-88689451D01*
X92080295Y-88502761D01*
X91950576Y-88337621D01*
X91834081Y-88236531D01*
X91795531Y-88203079D01*
X91795530Y-88203078D01*
X91791971Y-88199990D01*
X91610201Y-88094834D01*
X91513771Y-88061348D01*
X91416273Y-88027491D01*
X91416271Y-88027490D01*
X91411826Y-88025947D01*
X91407164Y-88025271D01*
X91208674Y-87996491D01*
X91208673Y-87996491D01*
X91204004Y-87995814D01*
X91199293Y-87996032D01*
X91199292Y-87996032D01*
X90998941Y-88005305D01*
X90998940Y-88005305D01*
X90994233Y-88005523D01*
X90924536Y-88022320D01*
X90794665Y-88053619D01*
X90794660Y-88053621D01*
X90790082Y-88054724D01*
X90598919Y-88141640D01*
X90427640Y-88263137D01*
X90424386Y-88266536D01*
X90424377Y-88266544D01*
X90380534Y-88312344D01*
X90326637Y-88341305D01*
X90266010Y-88333054D01*
X90221812Y-88290744D01*
X90210020Y-88243885D01*
X90210020Y-85892147D01*
X90210706Y-85880511D01*
X90214014Y-85852558D01*
X90214884Y-85845210D01*
X90204269Y-85787087D01*
X90203760Y-85784030D01*
X90196069Y-85732873D01*
X90196069Y-85732872D01*
X90194969Y-85725558D01*
X90191843Y-85719048D01*
X90190546Y-85711947D01*
X90163316Y-85659525D01*
X90161928Y-85656747D01*
X90139537Y-85610120D01*
X90139535Y-85610116D01*
X90136329Y-85603441D01*
X90132226Y-85599003D01*
X90130701Y-85596740D01*
X90128100Y-85591732D01*
X90123795Y-85586692D01*
X90086163Y-85549060D01*
X90083469Y-85546257D01*
X90049396Y-85509396D01*
X90049393Y-85509394D01*
X90044374Y-85503964D01*
X90038310Y-85500442D01*
X90030985Y-85493882D01*
X87926980Y-83389877D01*
X88575012Y-83389877D01*
X88590785Y-83550748D01*
X88641808Y-83704128D01*
X88644673Y-83708859D01*
X88644675Y-83708863D01*
X88722676Y-83837658D01*
X88722679Y-83837662D01*
X88725543Y-83842391D01*
X88729385Y-83846370D01*
X88729387Y-83846372D01*
X88833983Y-83954685D01*
X88833986Y-83954688D01*
X88837830Y-83958668D01*
X88973087Y-84047177D01*
X88978267Y-84049103D01*
X88978270Y-84049105D01*
X89074621Y-84084938D01*
X89124592Y-84103522D01*
X89130078Y-84104254D01*
X89130082Y-84104255D01*
X89271691Y-84123149D01*
X89284816Y-84124900D01*
X89290322Y-84124399D01*
X89290324Y-84124399D01*
X89354330Y-84118574D01*
X89445793Y-84110250D01*
X89451051Y-84108542D01*
X89451054Y-84108541D01*
X89594260Y-84062010D01*
X89594262Y-84062009D01*
X89599525Y-84060299D01*
X89604281Y-84057464D01*
X89604283Y-84057463D01*
X89733619Y-83980363D01*
X89738370Y-83977531D01*
X89843092Y-83877806D01*
X89898268Y-83851370D01*
X89911362Y-83850500D01*
X90267373Y-83850500D01*
X90279009Y-83851186D01*
X90314310Y-83855364D01*
X90321586Y-83854035D01*
X90321589Y-83854035D01*
X90352288Y-83848428D01*
X90372430Y-83844749D01*
X90375476Y-83844242D01*
X90433962Y-83835449D01*
X90440475Y-83832321D01*
X90447573Y-83831025D01*
X90499982Y-83803801D01*
X90502762Y-83802412D01*
X90549408Y-83780013D01*
X90549411Y-83780011D01*
X90556079Y-83776809D01*
X90560521Y-83772703D01*
X90562781Y-83771180D01*
X90567788Y-83768579D01*
X90572828Y-83764275D01*
X90610460Y-83726643D01*
X90613263Y-83723949D01*
X90650119Y-83689880D01*
X90655556Y-83684854D01*
X90659079Y-83678788D01*
X90665637Y-83671466D01*
X91445489Y-82891615D01*
X91454203Y-82883873D01*
X91476296Y-82866456D01*
X91476298Y-82866454D01*
X91482110Y-82861872D01*
X91505074Y-82828646D01*
X91515691Y-82813285D01*
X91517498Y-82810756D01*
X91548240Y-82769133D01*
X91552635Y-82763183D01*
X91555029Y-82756366D01*
X91559131Y-82750431D01*
X91561747Y-82742162D01*
X91576943Y-82694110D01*
X91577928Y-82691159D01*
X91595068Y-82642352D01*
X91595068Y-82642350D01*
X91597520Y-82635369D01*
X91597758Y-82629327D01*
X91598280Y-82626647D01*
X91599980Y-82621270D01*
X91600500Y-82614663D01*
X91600500Y-82561484D01*
X91600576Y-82557597D01*
X91602548Y-82507400D01*
X91602839Y-82500006D01*
X91601041Y-82493224D01*
X91600500Y-82483399D01*
X91600500Y-78367831D01*
X91619407Y-78309640D01*
X91658525Y-78277709D01*
X91696788Y-78260312D01*
X91696789Y-78260311D01*
X91701081Y-78258360D01*
X91872360Y-78136863D01*
X91947306Y-78058573D01*
X92014317Y-77988573D01*
X92014320Y-77988569D01*
X92017575Y-77985169D01*
X92131485Y-77808754D01*
X92209981Y-77613981D01*
X92229591Y-77513565D01*
X92249548Y-77411373D01*
X92249549Y-77411366D01*
X92250230Y-77407878D01*
X92250500Y-77402357D01*
X92250500Y-76347531D01*
X92235561Y-76190954D01*
X92176447Y-75989451D01*
X92080295Y-75802761D01*
X91950576Y-75637621D01*
X91791971Y-75499990D01*
X91610201Y-75394834D01*
X91605755Y-75393290D01*
X91416273Y-75327491D01*
X91416271Y-75327490D01*
X91411826Y-75325947D01*
X91407164Y-75325271D01*
X91208674Y-75296491D01*
X91208673Y-75296491D01*
X91204004Y-75295814D01*
X91199293Y-75296032D01*
X91199292Y-75296032D01*
X90998941Y-75305305D01*
X90998940Y-75305305D01*
X90994233Y-75305523D01*
X90924536Y-75322320D01*
X90794665Y-75353619D01*
X90794660Y-75353621D01*
X90790082Y-75354724D01*
X90598919Y-75441640D01*
X90427640Y-75563137D01*
X90356337Y-75637621D01*
X90285683Y-75711427D01*
X90285680Y-75711431D01*
X90282425Y-75714831D01*
X90168515Y-75891246D01*
X90090019Y-76086019D01*
X90089116Y-76090643D01*
X90050452Y-76288627D01*
X90050451Y-76288634D01*
X90049770Y-76292122D01*
X90049500Y-76297643D01*
X90049500Y-77352469D01*
X90064439Y-77509046D01*
X90123553Y-77710549D01*
X90219705Y-77897239D01*
X90349424Y-78062379D01*
X90508029Y-78200010D01*
X90612266Y-78260312D01*
X90650075Y-78282185D01*
X90690976Y-78327690D01*
X90699500Y-78367878D01*
X90699500Y-82322388D01*
X90680593Y-82380579D01*
X90670504Y-82392392D01*
X90142393Y-82920504D01*
X90087876Y-82948281D01*
X90072389Y-82949500D01*
X89909303Y-82949500D01*
X89851112Y-82930593D01*
X89839065Y-82920267D01*
X89754325Y-82834934D01*
X89718189Y-82812001D01*
X89622520Y-82751288D01*
X89622521Y-82751288D01*
X89617845Y-82748321D01*
X89465568Y-82694098D01*
X89453265Y-82692631D01*
X89310558Y-82675614D01*
X89310555Y-82675614D01*
X89305062Y-82674959D01*
X89144304Y-82691855D01*
X89139065Y-82693639D01*
X89139063Y-82693639D01*
X89132263Y-82695954D01*
X88991285Y-82743947D01*
X88986575Y-82746845D01*
X88986570Y-82746847D01*
X88882689Y-82810756D01*
X88853609Y-82828646D01*
X88849660Y-82832514D01*
X88849659Y-82832514D01*
X88819680Y-82861872D01*
X88738120Y-82941741D01*
X88735122Y-82946393D01*
X88653552Y-83072963D01*
X88653550Y-83072968D01*
X88650556Y-83077613D01*
X88595271Y-83229508D01*
X88575012Y-83389877D01*
X87926980Y-83389877D01*
X84009496Y-79472393D01*
X83981719Y-79417876D01*
X83980500Y-79402389D01*
X83980500Y-78367831D01*
X83999407Y-78309640D01*
X84038525Y-78277709D01*
X84076788Y-78260312D01*
X84076789Y-78260311D01*
X84081081Y-78258360D01*
X84252360Y-78136863D01*
X84327306Y-78058573D01*
X84394317Y-77988573D01*
X84394320Y-77988569D01*
X84397575Y-77985169D01*
X84511485Y-77808754D01*
X84589981Y-77613981D01*
X84609591Y-77513565D01*
X84629548Y-77411373D01*
X84629549Y-77411366D01*
X84630230Y-77407878D01*
X84630500Y-77402357D01*
X84630500Y-77352469D01*
X84969500Y-77352469D01*
X84984439Y-77509046D01*
X85043553Y-77710549D01*
X85139705Y-77897239D01*
X85269424Y-78062379D01*
X85428029Y-78200010D01*
X85609799Y-78305166D01*
X85614244Y-78306710D01*
X85614245Y-78306710D01*
X85803727Y-78372509D01*
X85803729Y-78372510D01*
X85808174Y-78374053D01*
X85812836Y-78374729D01*
X86011326Y-78403509D01*
X86011327Y-78403509D01*
X86015996Y-78404186D01*
X86020707Y-78403968D01*
X86020708Y-78403968D01*
X86221059Y-78394695D01*
X86221060Y-78394695D01*
X86225767Y-78394477D01*
X86310513Y-78374053D01*
X86425335Y-78346381D01*
X86425340Y-78346379D01*
X86429918Y-78345276D01*
X86621081Y-78258360D01*
X86792360Y-78136863D01*
X86867306Y-78058573D01*
X86934317Y-77988573D01*
X86934320Y-77988569D01*
X86937575Y-77985169D01*
X87051485Y-77808754D01*
X87129981Y-77613981D01*
X87149591Y-77513565D01*
X87169548Y-77411373D01*
X87169549Y-77411366D01*
X87170230Y-77407878D01*
X87170500Y-77402357D01*
X87170500Y-77352469D01*
X87509500Y-77352469D01*
X87524439Y-77509046D01*
X87583553Y-77710549D01*
X87679705Y-77897239D01*
X87809424Y-78062379D01*
X87968029Y-78200010D01*
X88149799Y-78305166D01*
X88154244Y-78306710D01*
X88154245Y-78306710D01*
X88343727Y-78372509D01*
X88343729Y-78372510D01*
X88348174Y-78374053D01*
X88352836Y-78374729D01*
X88551326Y-78403509D01*
X88551327Y-78403509D01*
X88555996Y-78404186D01*
X88560707Y-78403968D01*
X88560708Y-78403968D01*
X88761059Y-78394695D01*
X88761060Y-78394695D01*
X88765767Y-78394477D01*
X88850513Y-78374053D01*
X88965335Y-78346381D01*
X88965340Y-78346379D01*
X88969918Y-78345276D01*
X89161081Y-78258360D01*
X89332360Y-78136863D01*
X89407306Y-78058573D01*
X89474317Y-77988573D01*
X89474320Y-77988569D01*
X89477575Y-77985169D01*
X89591485Y-77808754D01*
X89669981Y-77613981D01*
X89689591Y-77513565D01*
X89709548Y-77411373D01*
X89709549Y-77411366D01*
X89710230Y-77407878D01*
X89710500Y-77402357D01*
X89710500Y-76347531D01*
X89695561Y-76190954D01*
X89636447Y-75989451D01*
X89540295Y-75802761D01*
X89410576Y-75637621D01*
X89251971Y-75499990D01*
X89070201Y-75394834D01*
X89065755Y-75393290D01*
X88876273Y-75327491D01*
X88876271Y-75327490D01*
X88871826Y-75325947D01*
X88867164Y-75325271D01*
X88668674Y-75296491D01*
X88668673Y-75296491D01*
X88664004Y-75295814D01*
X88659293Y-75296032D01*
X88659292Y-75296032D01*
X88458941Y-75305305D01*
X88458940Y-75305305D01*
X88454233Y-75305523D01*
X88384536Y-75322320D01*
X88254665Y-75353619D01*
X88254660Y-75353621D01*
X88250082Y-75354724D01*
X88058919Y-75441640D01*
X87887640Y-75563137D01*
X87816337Y-75637621D01*
X87745683Y-75711427D01*
X87745680Y-75711431D01*
X87742425Y-75714831D01*
X87628515Y-75891246D01*
X87550019Y-76086019D01*
X87549116Y-76090643D01*
X87510452Y-76288627D01*
X87510451Y-76288634D01*
X87509770Y-76292122D01*
X87509500Y-76297643D01*
X87509500Y-77352469D01*
X87170500Y-77352469D01*
X87170500Y-76347531D01*
X87155561Y-76190954D01*
X87096447Y-75989451D01*
X87000295Y-75802761D01*
X86870576Y-75637621D01*
X86711971Y-75499990D01*
X86530201Y-75394834D01*
X86525755Y-75393290D01*
X86336273Y-75327491D01*
X86336271Y-75327490D01*
X86331826Y-75325947D01*
X86327164Y-75325271D01*
X86128674Y-75296491D01*
X86128673Y-75296491D01*
X86124004Y-75295814D01*
X86119293Y-75296032D01*
X86119292Y-75296032D01*
X85918941Y-75305305D01*
X85918940Y-75305305D01*
X85914233Y-75305523D01*
X85844536Y-75322320D01*
X85714665Y-75353619D01*
X85714660Y-75353621D01*
X85710082Y-75354724D01*
X85518919Y-75441640D01*
X85347640Y-75563137D01*
X85276337Y-75637621D01*
X85205683Y-75711427D01*
X85205680Y-75711431D01*
X85202425Y-75714831D01*
X85088515Y-75891246D01*
X85010019Y-76086019D01*
X85009116Y-76090643D01*
X84970452Y-76288627D01*
X84970451Y-76288634D01*
X84969770Y-76292122D01*
X84969500Y-76297643D01*
X84969500Y-77352469D01*
X84630500Y-77352469D01*
X84630500Y-76347531D01*
X84615561Y-76190954D01*
X84556447Y-75989451D01*
X84460295Y-75802761D01*
X84330576Y-75637621D01*
X84171971Y-75499990D01*
X83990201Y-75394834D01*
X83985755Y-75393290D01*
X83796273Y-75327491D01*
X83796271Y-75327490D01*
X83791826Y-75325947D01*
X83787164Y-75325271D01*
X83588674Y-75296491D01*
X83588673Y-75296491D01*
X83584004Y-75295814D01*
X83579293Y-75296032D01*
X83579292Y-75296032D01*
X83378941Y-75305305D01*
X83378940Y-75305305D01*
X83374233Y-75305523D01*
X83304536Y-75322320D01*
X83174665Y-75353619D01*
X83174660Y-75353621D01*
X83170082Y-75354724D01*
X82978919Y-75441640D01*
X82807640Y-75563137D01*
X82736337Y-75637621D01*
X82665683Y-75711427D01*
X82665680Y-75711431D01*
X82662425Y-75714831D01*
X82548515Y-75891246D01*
X82470019Y-76086019D01*
X82469116Y-76090643D01*
X82430452Y-76288627D01*
X82430451Y-76288634D01*
X82429770Y-76292122D01*
X82429500Y-76297643D01*
X82429500Y-77352469D01*
X82090500Y-77352469D01*
X82090500Y-76347531D01*
X82075561Y-76190954D01*
X82016447Y-75989451D01*
X81920295Y-75802761D01*
X81790576Y-75637621D01*
X81631971Y-75499990D01*
X81450201Y-75394834D01*
X81445755Y-75393290D01*
X81256273Y-75327491D01*
X81256271Y-75327490D01*
X81251826Y-75325947D01*
X81247164Y-75325271D01*
X81048674Y-75296491D01*
X81048673Y-75296491D01*
X81044004Y-75295814D01*
X81039293Y-75296032D01*
X81039292Y-75296032D01*
X80838941Y-75305305D01*
X80838940Y-75305305D01*
X80834233Y-75305523D01*
X80764536Y-75322320D01*
X80634665Y-75353619D01*
X80634660Y-75353621D01*
X80630082Y-75354724D01*
X80438919Y-75441640D01*
X80267640Y-75563137D01*
X80196337Y-75637621D01*
X80125683Y-75711427D01*
X80125680Y-75711431D01*
X80122425Y-75714831D01*
X80008515Y-75891246D01*
X79930019Y-76086019D01*
X79929116Y-76090643D01*
X79890452Y-76288627D01*
X79890451Y-76288634D01*
X79889770Y-76292122D01*
X79889500Y-76297643D01*
X79889500Y-77352469D01*
X79550500Y-77352469D01*
X79550500Y-76347531D01*
X79535561Y-76190954D01*
X79476447Y-75989451D01*
X79380295Y-75802761D01*
X79250576Y-75637621D01*
X79091971Y-75499990D01*
X78910201Y-75394834D01*
X78905755Y-75393290D01*
X78716273Y-75327491D01*
X78716271Y-75327490D01*
X78711826Y-75325947D01*
X78707164Y-75325271D01*
X78508674Y-75296491D01*
X78508673Y-75296491D01*
X78504004Y-75295814D01*
X78499293Y-75296032D01*
X78499292Y-75296032D01*
X78298941Y-75305305D01*
X78298940Y-75305305D01*
X78294233Y-75305523D01*
X78224536Y-75322320D01*
X78094665Y-75353619D01*
X78094660Y-75353621D01*
X78090082Y-75354724D01*
X77898919Y-75441640D01*
X77727640Y-75563137D01*
X77656337Y-75637621D01*
X77585683Y-75711427D01*
X77585680Y-75711431D01*
X77582425Y-75714831D01*
X77468515Y-75891246D01*
X77390019Y-76086019D01*
X77389116Y-76090643D01*
X77350452Y-76288627D01*
X77350451Y-76288634D01*
X77349770Y-76292122D01*
X77349500Y-76297643D01*
X77349500Y-77352469D01*
X51875500Y-77352469D01*
X51875500Y-73574500D01*
X51894407Y-73516309D01*
X51943907Y-73480345D01*
X51974500Y-73475500D01*
X114625500Y-73475500D01*
X114683691Y-73494407D01*
G37*
%TD.AperFunction*%
%TD*%
M02*
